<svg xmlns="http://www.w3.org/2000/svg" xmlns:xlink="http://www.w3.org/1999/xlink" width="85" height="85" viewBox="0 0 85 85">
  <defs>
    <linearGradient id="linear-gradient" x1="0.298" y1="0.411" x2="0.936" y2="0.721" gradientUnits="objectBoundingBox">
      <stop offset="0" stop-color="#acc288" stop-opacity="0"/>
      <stop offset="1" stop-color="#b0c18e" stop-opacity="0.412"/>
    </linearGradient>
  </defs>
  <g id="Group_24762" data-name="Group 24762" transform="translate(-1476 -371)">
    <circle id="Ellipse_676" data-name="Ellipse 676" cx="42.5" cy="42.5" r="42.5" transform="translate(1561 371) rotate(90)" fill="url(#linear-gradient)"/>
    <path id="address-book" d="M22.313,0H3.243V3.365H1V5.609H3.243V7.852H1V10.1H3.243v2.243H1v2.243H3.243v2.243H1V19.07H3.243v2.243H1v2.243H3.243v3.365h19.07a3.365,3.365,0,0,0,3.365-3.365V3.365A3.365,3.365,0,0,0,22.313,0Zm1.122,23.557a1.122,1.122,0,0,1-1.122,1.122H5.487V2.243H22.313a1.122,1.122,0,0,1,1.122,1.122Zm-8.974-10.1A3.365,3.365,0,1,0,11.1,10.1a3.365,3.365,0,0,0,3.365,3.365Zm5.609,4.487v2.243H17.826V17.948A1.122,1.122,0,0,0,16.7,16.826H12.217A1.122,1.122,0,0,0,11.1,17.948v2.243H8.852V17.948a3.365,3.365,0,0,1,3.365-3.365H16.7A3.365,3.365,0,0,1,20.07,17.948Z" transform="translate(1505.661 400.539)" fill="#8ebf2d"/>
  </g>
</svg>
