<svg xmlns="http://www.w3.org/2000/svg" xmlns:xlink="http://www.w3.org/1999/xlink" width="85" height="85" viewBox="0 0 85 85">
  <defs>
    <linearGradient id="linear-gradient" x1="0.298" y1="0.411" x2="0.936" y2="0.721" gradientUnits="objectBoundingBox">
      <stop offset="0" stop-color="#acc288" stop-opacity="0"/>
      <stop offset="1" stop-color="#b0c18e" stop-opacity="0.412"/>
    </linearGradient>
  </defs>
  <g id="Group_24760" data-name="Group 24760" transform="translate(-1476 -371)">
    <circle id="Ellipse_676" data-name="Ellipse 676" cx="42.5" cy="42.5" r="42.5" transform="translate(1561 371) rotate(90)" fill="url(#linear-gradient)"/>
    <g id="shopping-cart-3" transform="translate(1503.891 398.813)">
      <path id="Path_1" data-name="Path 1" d="M28.746,5.16A3.788,3.788,0,0,0,25.831,3.8H5.369l-.053-.444A3.8,3.8,0,0,0,1.547,0H1.266a1.266,1.266,0,0,0,0,2.531h.281A1.266,1.266,0,0,1,2.8,3.649L4.545,18.457a6.328,6.328,0,0,0,6.285,5.59H24.047a1.266,1.266,0,0,0,0-2.531H10.83a3.8,3.8,0,0,1-3.569-2.531H22.347a6.328,6.328,0,0,0,6.228-5.206l.993-5.51a3.789,3.789,0,0,0-.823-3.108ZM27.084,7.819,26.09,13.33a3.8,3.8,0,0,1-3.742,3.124H6.858L5.667,6.328H25.831a1.266,1.266,0,0,1,1.253,1.491Z" fill="#8ebf2d"/>
      <circle id="Ellipse_1" data-name="Ellipse 1" cx="2.5" cy="2.5" r="2.5" transform="translate(6.109 25.188)" fill="#8ebf2d"/>
      <circle id="Ellipse_2" data-name="Ellipse 2" cx="2.5" cy="2.5" r="2.5" transform="translate(19.109 25.188)" fill="#8ebf2d"/>
    </g>
  </g>
</svg>
