<svg xmlns="http://www.w3.org/2000/svg" width="50.468" height="49.717" viewBox="0 0 50.468 49.717">
  <g id="cash-on-delivery" transform="translate(0 -3.81)">
    <path id="Path_42457" data-name="Path 42457" d="M44.437,6.874A5.914,5.914,0,0,0,39.255,3.81h-28.8A2.957,2.957,0,0,0,7.5,6.767V8.246L26.346,14.16,45.192,8.246Z" transform="translate(-6.761 0)" fill="#fcc95d"/>
    <path id="Path_42458" data-name="Path 42458" d="M444.5,208.121l5.914,2.957V213.3a.739.739,0,0,1-.739.739h-2.218Z" transform="translate(-400.685 -184.172)" fill="#5e8abd"/>
    <path id="Path_42459" data-name="Path 42459" d="M18.589,208.121H10.457L7.5,211.078V213.3a.739.739,0,0,0,.739.739h10.35Z" transform="translate(-6.761 -184.172)" fill="#5e9fd1"/>
    <path id="Path_42460" data-name="Path 42460" d="M392,208.121h8.132v5.914H392Z" transform="translate(-353.36 -184.172)" fill="#5e9fd1"/>
    <path id="Path_42461" data-name="Path 42461" d="M460.873,156.308l-2.957-1.479,1.635,8.21h2.957v-4.087A2.957,2.957,0,0,0,460.873,156.308Z" transform="translate(-412.779 -136.133)" fill="#fcc95d"/>
    <path id="Path_42462" data-name="Path 42462" d="M51.9,59.26,50.575,58.6,45.191,48.81H7.5V67.471H18.589v2.957H45.4V67.471h8.132V61.905A2.957,2.957,0,0,0,51.9,59.26Z" transform="translate(-6.761 -40.564)" fill="#fce06f"/>
    <circle id="Ellipse_694" data-name="Ellipse 694" cx="5.175" cy="5.175" r="5.175" transform="translate(6.654 24.688)" fill="#5c6b96"/>
    <circle id="Ellipse_695" data-name="Ellipse 695" cx="2.218" cy="2.218" r="2.218" transform="translate(9.611 27.646)" fill="#fff"/>
    <circle id="Ellipse_696" data-name="Ellipse 696" cx="5.175" cy="5.175" r="5.175" transform="translate(33.465 24.688)" fill="#5c6b96"/>
    <circle id="Ellipse_697" data-name="Ellipse 697" cx="2.218" cy="2.218" r="2.218" transform="translate(36.422 27.646)" fill="#fff"/>
    <path id="Path_42463" data-name="Path 42463" d="M330.13,78.81l-3.356.035-1.238,3.4,4.977,3.4h3.375Z" transform="translate(-293.448 -67.607)" fill="#4c5a80"/>
    <path id="Path_42464" data-name="Path 42464" d="M256,78.81v6.832h11.831l-3.738-6.8Z" transform="translate(-230.766 -67.607)" fill="#5c6b96"/>
    <g id="Group_24337" data-name="Group 24337" transform="translate(0 37.27)">
      <path id="Path_42465" data-name="Path 42465" d="M362.07,438.966h-1.746v-1.472h1.562a.739.739,0,1,0,0-1.479h-1.562v-1.472h1.746a.746.746,0,1,0,0-1.492h-2.492a.746.746,0,0,0-.746.746v5.914a.746.746,0,0,0,.746.746h2.492a.746.746,0,1,0,0-1.492Z" transform="translate(-323.462 -424.202)" fill="#5e9fd1"/>
      <path id="Path_42466" data-name="Path 42466" d="M299.414,433.167a.739.739,0,0,0-.935.469l-1.369,4.119-1.437-4.14a.739.739,0,1,0-1.4.485l2.024,5.83a.874.874,0,0,0,.822.581h.006a.875.875,0,0,0,.822-.6l1.931-5.813A.739.739,0,0,0,299.414,433.167Z" transform="translate(-265.233 -424.261)" fill="#5e9fd1"/>
      <path id="Path_42467" data-name="Path 42467" d="M463.732,433.254a.739.739,0,0,0-1.023.216l-1.255,1.928-1.269-1.944a.739.739,0,0,0-1.238.808l1.769,2.709v2.8a.739.739,0,0,0,1.479,0v-2.8l1.754-2.694A.739.739,0,0,0,463.732,433.254Z" transform="translate(-413.6 -424.262)" fill="#5e9fd1"/>
      <path id="Path_42468" data-name="Path 42468" d="M413.857,435.4a2.324,2.324,0,0,0-2.363-2.276h-1.573a.739.739,0,0,0-.739.739v5.914a.739.739,0,1,0,1.479,0V438.1l1.9,2.162a.739.739,0,1,0,1.11-.977l-1.5-1.708a2.391,2.391,0,0,0,.972-.555A2.215,2.215,0,0,0,413.857,435.4Zm-1.728.548a.937.937,0,0,1-.636.25l-.834,0v-1.6h.833a.856.856,0,0,1,.885.8.752.752,0,0,1-.249.548Z" transform="translate(-368.848 -424.264)" fill="#5e9fd1"/>
      <path id="Path_42469" data-name="Path 42469" d="M182.1,438.966h-1.746v-1.472h1.562a.739.739,0,1,0,0-1.479h-1.562v-1.472H182.1a.746.746,0,1,0,0-1.492h-2.492a.746.746,0,0,0-.746.746v5.914a.746.746,0,0,0,.746.746H182.1a.746.746,0,1,0,0-1.492Z" transform="translate(-161.229 -424.202)" fill="#5e9fd1"/>
      <path id="Path_42470" data-name="Path 42470" d="M272.977,433.121a.739.739,0,0,0-.739.739v5.914a.739.739,0,1,0,1.479,0V433.86A.739.739,0,0,0,272.977,433.121Z" transform="translate(-245.403 -424.264)" fill="#5e9fd1"/>
      <path id="Path_42471" data-name="Path 42471" d="M115.12,433.121h-1.675a.739.739,0,0,0-.739.739v5.914a.739.739,0,0,0,.739.739c.054,0,1.26,0,1.737-.013,1.776-.031,3.066-1.58,3.066-3.683C118.248,434.606,116.991,433.121,115.12,433.121Zm.036,5.9c-.222,0-.617.007-.972.009V434.6h.936c1.216,0,1.649,1.146,1.649,2.218S116.271,439,115.156,439.022Z" transform="translate(-101.596 -424.264)" fill="#5e9fd1"/>
      <path id="Path_42472" data-name="Path 42472" d="M232.022,439.035h-1.333V433.86a.739.739,0,1,0-1.479,0v5.914a.739.739,0,0,0,.739.739h2.073a.739.739,0,1,0,0-1.479Z" transform="translate(-206.617 -424.264)" fill="#5e9fd1"/>
      <path id="Path_42473" data-name="Path 42473" d="M137.021,350.656a2.439,2.439,0,0,0,2.489-1.891,2.227,2.227,0,0,0-1.719-2.452c-.726-.268-1.4-.56-1.61-.651a.41.41,0,0,1-.145-.385.594.594,0,0,1,.47-.474,1.971,1.971,0,0,1,1.628.376.739.739,0,0,0,.948-1.135,3.446,3.446,0,0,0-3-.657,2.08,2.08,0,0,0-1.508,1.679,1.88,1.88,0,0,0,.839,1.861.738.738,0,0,0,.1.056c.034.015.849.378,1.766.716.259.1.854.366.775.805a1,1,0,0,1-1.033.672,2.059,2.059,0,0,1-1.513-.634.739.739,0,0,0-1.1.993A3.559,3.559,0,0,0,137.021,350.656Z" transform="translate(-120.99 -343.263)" fill="#5e9fd1"/>
      <path id="Path_42474" data-name="Path 42474" d="M71.692,349.2l.368.974a.739.739,0,1,0,1.383-.522l-2.2-5.831-.008-.02a.873.873,0,0,0-1.616,0l-.007.017-2.221,5.831a.739.739,0,0,0,1.382.526l.372-.976h2.547Zm-1.268-3.36.71,1.881H69.708Z" transform="translate(-60.705 -343.264)" fill="#5e9fd1"/>
      <path id="Path_42475" data-name="Path 42475" d="M198.916,350.657a.739.739,0,0,0,.739-.739V347.6h2.614v2.319a.739.739,0,1,0,1.479,0V344a.739.739,0,1,0-1.479,0v2.116h-2.614V344a.739.739,0,1,0-1.479,0v5.914A.739.739,0,0,0,198.916,350.657Z" transform="translate(-178.643 -343.264)" fill="#5e9fd1"/>
      <path id="Path_42476" data-name="Path 42476" d="M5.974,348.828a.739.739,0,0,0-1.041.091,1.59,1.59,0,0,1-.162.167,1.616,1.616,0,0,1-1.111.393,2.181,2.181,0,1,1,1.219-3.989.739.739,0,1,0,.828-1.225,3.659,3.659,0,1,0-2.046,6.693,3.037,3.037,0,0,0,2.406-1.089.739.739,0,0,0-.091-1.042Z" transform="translate(0 -343.602)" fill="#5e9fd1"/>
      <path id="Path_42477" data-name="Path 42477" d="M302.77,377.7a2.218,2.218,0,1,0-2.218-2.218A2.22,2.22,0,0,0,302.77,377.7Zm0-2.957a.739.739,0,1,1-.739.739A.74.74,0,0,1,302.77,374.743Z" transform="translate(-270.926 -370.307)" fill="#5e9fd1"/>
      <path id="Path_42478" data-name="Path 42478" d="M357.77,373.264a2.2,2.2,0,0,0-.956.217.739.739,0,0,0-1.262.523v2.957a.739.739,0,0,0,1.479,0v-1.479a.739.739,0,1,1,1.479,0v1.464a.739.739,0,0,0,1.479,0v-1.464A2.22,2.22,0,0,0,357.77,373.264Z" transform="translate(-320.505 -370.307)" fill="#5e9fd1"/>
    </g>
  </g>
</svg>
