<svg xmlns="http://www.w3.org/2000/svg" xmlns:xlink="http://www.w3.org/1999/xlink" width="85" height="85" viewBox="0 0 85 85">
  <defs>
    <linearGradient id="linear-gradient" x1="0.298" y1="0.411" x2="0.936" y2="0.721" gradientUnits="objectBoundingBox">
      <stop offset="0" stop-color="#acc288" stop-opacity="0"/>
      <stop offset="1" stop-color="#b0c18e" stop-opacity="0.412"/>
    </linearGradient>
  </defs>
  <g id="Group_24761" data-name="Group 24761" transform="translate(-1476 -371)">
    <circle id="Ellipse_676" data-name="Ellipse 676" cx="42.5" cy="42.5" r="42.5" transform="translate(1561 371) rotate(90)" fill="url(#linear-gradient)"/>
    <path id="heart-3" d="M19.949.917a7.3,7.3,0,0,0-6.27,3.762A7.3,7.3,0,0,0,7.41.917,7.751,7.751,0,0,0,0,8.953C0,16.676,12.49,25.6,13.021,25.975l.659.466.659-.466c.531-.376,13.02-9.3,13.02-17.021A7.751,7.751,0,0,0,19.949.917Z" transform="translate(1504.377 399.664)" fill="none" stroke="#8ebf2d" stroke-width="3"/>
  </g>
</svg>
