<svg xmlns="http://www.w3.org/2000/svg" xmlns:xlink="http://www.w3.org/1999/xlink" width="85" height="85" viewBox="0 0 85 85">
  <defs>
    <linearGradient id="linear-gradient" x1="0.298" y1="0.411" x2="0.936" y2="0.721" gradientUnits="objectBoundingBox">
      <stop offset="0" stop-color="#acc288" stop-opacity="0"/>
      <stop offset="1" stop-color="#b0c18e" stop-opacity="0.412"/>
    </linearGradient>
  </defs>
  <g id="Group_24763" data-name="Group 24763" transform="translate(-1476 -371)">
    <circle id="Ellipse_676" data-name="Ellipse 676" cx="42.5" cy="42.5" r="42.5" transform="translate(1561 371) rotate(90)" fill="url(#linear-gradient)"/>
    <g id="lock" transform="translate(1504.487 398.984)">
      <path id="Path_42440" data-name="Path 42440" d="M23.272,10.541V8.759a8.759,8.759,0,1,0-17.518,0v1.782A6.257,6.257,0,0,0,2,16.267v7.508a6.264,6.264,0,0,0,6.257,6.257H20.77a6.264,6.264,0,0,0,6.257-6.257V16.267A6.257,6.257,0,0,0,23.272,10.541ZM8.257,8.759a6.257,6.257,0,1,1,12.513,0V10.01H8.257ZM24.523,23.775a3.754,3.754,0,0,1-3.754,3.754H8.257A3.754,3.754,0,0,1,4.5,23.775V16.267a3.754,3.754,0,0,1,3.754-3.754H20.77a3.754,3.754,0,0,1,3.754,3.754Z" fill="#8ebf2d"/>
      <path id="Path_42441" data-name="Path 42441" d="M12.251,14A1.251,1.251,0,0,0,11,15.251v2.5a1.251,1.251,0,0,0,2.5,0v-2.5A1.251,1.251,0,0,0,12.251,14Z" transform="translate(2.262 3.518)" fill="#8ebf2d"/>
    </g>
  </g>
</svg>
