<svg xmlns="http://www.w3.org/2000/svg" width="67.264" height="56.121" viewBox="0 0 67.264 56.121">
  <path id="headset" d="M58.9,31.25v-4a25.254,25.254,0,1,0-50.509,0v4A14.03,14.03,0,0,0,14,58.121a5.612,5.612,0,0,0,5.612-5.612V35.673A5.612,5.612,0,0,0,14,30.06V27.254a19.642,19.642,0,0,1,39.285,0V30.06a5.612,5.612,0,0,0-5.612,5.612V52.509H39.259a2.806,2.806,0,1,0,0,5.612h14.03A14.03,14.03,0,0,0,58.9,31.25ZM14,52.509h0a8.418,8.418,0,0,1,0-16.836Zm39.285,0V35.673a8.418,8.418,0,1,1,0,16.836Z" transform="translate(-0.014 -2)" fill="#a0b2b1"/>
</svg>
