<svg id="_01_align_center" data-name="01 align center" xmlns="http://www.w3.org/2000/svg" width="18" height="18" viewBox="0 0 18 18">
  <path id="Path_42449" data-name="Path 42449" d="M5,14.264H8.31L18.543,4.032a2.344,2.344,0,0,0,0-3.311,2.4,2.4,0,0,0-3.31,0L5,10.954Zm1.5-2.689,9.793-9.793a.861.861,0,0,1,1.189,0,.842.842,0,0,1,0,1.189L7.69,12.764H6.5Z" transform="translate(-1.25 -0.014)" fill="#8ebf2d"/>
  <path id="Path_42450" data-name="Path 42450" d="M17.716,5.716,16.5,6.932V12H12v4.5H1.5V2.25a.75.75,0,0,1,.75-.75h8.818L12.284.284A3.76,3.76,0,0,1,12.63,0H2.25A2.25,2.25,0,0,0,0,2.25V18H13.81L18,13.81V5.371a3.862,3.862,0,0,1-.284.346ZM13.5,16.189V13.5h2.689Z" fill="#8ebf2d"/>
</svg>
