<svg xmlns="http://www.w3.org/2000/svg" width="52.198" height="44.702" viewBox="0 0 52.198 44.702">
  <g id="flower-pot" transform="translate(0 -15.817)">
    <g id="Group_24698" data-name="Group 24698" transform="translate(0 15.817)">
      <path id="Path_42524" data-name="Path 42524" d="M107.4,78.4a.725.725,0,0,1-.726-.72c0-1.112,0-27.3,14.241-38.306a.725.725,0,0,1,.879,1.149C108.125,51.112,108.12,77.4,108.12,77.666A.726.726,0,0,1,107.4,78.4Z" transform="translate(-81.396 -33.7)" fill="#5fa348"/>
      <path id="Path_42525" data-name="Path 42525" d="M126.41,94.029s1.827-9.464,11.921-5.72C138.331,88.309,133.6,97.36,126.41,94.029Z" transform="translate(-96.455 -70.462)" fill="#65b54e"/>
      <path id="Path_42526" data-name="Path 42526" d="M101.058,77.439s4.364-8.606-5.942-11.741C95.116,65.7,93.315,75.739,101.058,77.439Z" transform="translate(-72.438 -53.878)" fill="#65b54e"/>
      <path id="Path_42527" data-name="Path 42527" d="M148.133,54.609s3.622-7.626,11.365-2.24C159.482,52.369,153.482,59,148.133,54.609Z" transform="translate(-113.031 -42.238)" fill="#65b54e"/>
      <path id="Path_42528" data-name="Path 42528" d="M131.769,30.5s5.587-6.355-2.463-11.265C129.306,19.232,125.578,27.356,131.769,30.5Z" transform="translate(-97.816 -18.423)" fill="#65b54e"/>
      <path id="Path_42529" data-name="Path 42529" d="M165.811,22.431s2.4-9.93,12.906-5.455C178.717,16.976,173.273,26.308,165.811,22.431Z" transform="translate(-126.52 -15.817)" fill="#65b54e"/>
      <path id="Path_42530" data-name="Path 42530" d="M56.066,118.956a.53.53,0,0,0,.425-.617c0-.01,0-.019-.006-.029-.175-.816-4.39-20.035-16.613-25.829a.545.545,0,1,0-.466.985C51.162,99.027,55.4,118.331,55.4,118.538a.53.53,0,0,0,.613.431l.033-.007Z" transform="translate(-29.829 -74.274)" fill="#5fa348"/>
      <g id="Group_24696" data-name="Group 24696" transform="translate(0 13.345)">
        <path id="Path_42531" data-name="Path 42531" d="M67.6,158.1s-1.451-7.759-9.739-4.766C57.878,153.353,61.712,160.794,67.6,158.1Z" transform="translate(-44.151 -133.567)" fill="#65b54e"/>
        <path id="Path_42532" data-name="Path 42532" d="M101.276,144.8s-3.532-7.065,4.92-9.591C106.2,135.2,107.626,143.434,101.276,144.8Z" transform="translate(-76.719 -120.258)" fill="#65b54e"/>
        <path id="Path_42533" data-name="Path 42533" d="M52.99,129.459s-2.844-6.652-9.676-2.282C43.314,127.176,48.25,133.06,52.99,129.459Z" transform="translate(-33.05 -112.998)" fill="#65b54e"/>
        <path id="Path_42534" data-name="Path 42534" d="M83.558,109.847s-4.592-5.619,2.473-9.575C86.031,100.272,88.965,107.369,83.558,109.847Z" transform="translate(-62.639 -93.604)" fill="#65b54e"/>
        <path id="Path_42535" data-name="Path 42535" d="M32.616,103.379s-3.882-5.021-8.7.18C23.915,103.559,29.386,107.473,32.616,103.379Z" transform="translate(-18.248 -94.312)" fill="#65b54e"/>
        <path id="Path_42536" data-name="Path 42536" d="M56.613,80.8s-5.121-3.76,0-8.665C56.613,72.127,60.675,77.5,56.613,80.8Z" transform="translate(-41.461 -72.132)" fill="#65b54e"/>
        <path id="Path_42537" data-name="Path 42537" d="M10.354,83.408S7,76.523,0,81.459C0,81.459,5.513,87.449,10.354,83.408Z" transform="translate(0 -77.89)" fill="#65b54e"/>
      </g>
      <g id="Group_24697" data-name="Group 24697" transform="translate(2.495 1.635)">
        <path id="Path_42538" data-name="Path 42538" d="M102.893,147.988a14.832,14.832,0,0,1,2.484-4.692,14.894,14.894,0,0,0-2,2.923,3.366,3.366,0,0,0-.18-1.589,3.255,3.255,0,0,1,.032,1.869,14.861,14.861,0,0,0-1.557,5.683h.53a14.449,14.449,0,0,1,.572-3.792h.042a4.66,4.66,0,0,1,2.759-2.166A4.763,4.763,0,0,0,102.893,147.988Z" transform="translate(-80.072 -114.723)" fill="#5fa348"/>
        <path id="Path_42539" data-name="Path 42539" d="M74.237,159.234h.032a4.681,4.681,0,0,0-1.875-2.118,4.638,4.638,0,0,1,1.658,1.981,15.627,15.627,0,0,0-1.838-1.059l.032-.032L70.4,156.369l1.589,1.541a15.361,15.361,0,0,0-3.421-1.165,15.1,15.1,0,0,1,3.956,1.705,17.708,17.708,0,0,1-3.3-.191,17.482,17.482,0,0,0,3.6.371,14.393,14.393,0,0,1,1.515,1.112l-3.781.164,4.02.037a14.15,14.15,0,0,1,1.944,2.039l.4-.318a14.842,14.842,0,0,0-2.686-2.431Z" transform="translate(-54.816 -124.699)" fill="#5fa348"/>
        <path id="Path_42540" data-name="Path 42540" d="M85.523,114.363a14.071,14.071,0,0,1,.275-2.346,3.215,3.215,0,0,1,1.324-1.435,3.291,3.291,0,0,0-1.234,1.059,13.817,13.817,0,0,1,.969-2.764,13.024,13.024,0,0,0-.736,1.589,2.331,2.331,0,0,0-.207-1.208,2.313,2.313,0,0,1,.058,1.673,13.54,13.54,0,0,0-.6,2.426,11.392,11.392,0,0,0-.731-1.642,11.249,11.249,0,0,1,.7,1.859,13.567,13.567,0,0,0,0,4.035l.461-.09a13.238,13.238,0,0,1-.27-2.823,3.579,3.579,0,0,1,1.589-1.965,3.6,3.6,0,0,0-1.594,1.631Z" transform="translate(-67.077 -88.46)" fill="#5fa348"/>
        <path id="Path_42541" data-name="Path 42541" d="M61.75,131.891a13.485,13.485,0,0,0-2.886-1.631,5.455,5.455,0,0,0-1.986-1.409,5.3,5.3,0,0,1,1.721,1.308,14.161,14.161,0,0,0-2.383-.7l-1.827-1.117,1.563,1.059a13.676,13.676,0,0,0-2.648-.238,13.762,13.762,0,0,1,4.073.789l-2.256.074,2.6.064a13.423,13.423,0,0,1,3.755,2.166Z" transform="translate(-43.167 -103.314)" fill="#5fa348"/>
        <path id="Path_42542" data-name="Path 42542" d="M59.675,88.123a11.45,11.45,0,0,1-.842-2.32,2.363,2.363,0,0,1,.763-1.372,2.4,2.4,0,0,0-.81,1.191,11.793,11.793,0,0,1-.307-2.389,2.648,2.648,0,0,1,1.165-2.081,2.718,2.718,0,0,0-1.165,1.483v-.26a11.775,11.775,0,0,1,.207-1.774,12.871,12.871,0,0,0-.275,1.563l-.334-1.059.313,1.191a11.782,11.782,0,0,0-.042,1.785,2.5,2.5,0,0,0-.641-.858,2.448,2.448,0,0,1,.646,1.059,11.906,11.906,0,0,0,.953,4.025Z" transform="translate(-46.526 -66.886)" fill="#5fa348"/>
        <path id="Path_42543" data-name="Path 42543" d="M40.051,106.057a11.972,11.972,0,0,0-2.383-.694h-.042a12.652,12.652,0,0,0-1.488-.175,9.115,9.115,0,0,1-2.553-.6,8.767,8.767,0,0,0,1.732.588,12.313,12.313,0,0,0-3.045.424,11.226,11.226,0,0,1,1.387-.207,2.49,2.49,0,0,0-.885.487,2.706,2.706,0,0,1,1.477-.53,12.068,12.068,0,0,1,2.516.143,5.214,5.214,0,0,0-2.288,1.155,5.149,5.149,0,0,1,2.749-1.059,11.606,11.606,0,0,1,2.648.863Z" transform="translate(-27.118 -85.186)" fill="#5fa348"/>
        <path id="Path_42544" data-name="Path 42544" d="M16.533,84.856a11.707,11.707,0,0,0-3.326-1.726,10.543,10.543,0,0,1,2.818,1.552,15.66,15.66,0,0,0-2.2-.53v-.032h-.09a14.79,14.79,0,0,0-3.209-.175,14.452,14.452,0,0,1,2.828.27,15.562,15.562,0,0,1-2.712.4,15.155,15.155,0,0,0,3.088-.323,13.106,13.106,0,0,1,1.335.349,4.014,4.014,0,0,1-2.346.53,4.062,4.062,0,0,0,2.516-.472,15.477,15.477,0,0,1,1.658.673,11.665,11.665,0,0,1-3.575.789,11.558,11.558,0,0,0,3.829-.668A13.675,13.675,0,0,1,19.3,86.821l.3-.4A14.3,14.3,0,0,0,16.533,84.856Z" transform="translate(-10.527 -68.815)" fill="#5fa348"/>
        <path id="Path_42545" data-name="Path 42545" d="M130.685,95.125a19.506,19.506,0,0,0-3.559.148,18.641,18.641,0,0,1,3.824-1.483,18.854,18.854,0,0,0-5.3,1.991,17.709,17.709,0,0,0,1.695-1.7,18.589,18.589,0,0,1-3.072,2.553,18.035,18.035,0,0,0-3.522,3.1l.487.392a17.433,17.433,0,0,1,2.267-2.372l5.084-.053-4.766-.2a18.711,18.711,0,0,1,2.791-1.933,19.405,19.405,0,0,1,4.067-.445Z" transform="translate(-94.635 -76.949)" fill="#5fa348"/>
        <path id="Path_42546" data-name="Path 42546" d="M107.979,82.184a11.033,11.033,0,0,0-.169-4.131,10.058,10.058,0,0,1,.058,3.8,19.386,19.386,0,0,0-1.186-2.77h.032l-.842-3.252.577,2.791A18.528,18.528,0,0,0,104.33,75.6a18.211,18.211,0,0,1,2.69,4.809,13.343,13.343,0,0,1-2.7-2.712,13.384,13.384,0,0,0,2.839,3.1,17.592,17.592,0,0,1,1,5.709h.63a18.147,18.147,0,0,0-.814-4.321Z" transform="translate(-82.098 -63.065)" fill="#5fa348"/>
        <path id="Path_42547" data-name="Path 42547" d="M152.35,55.3a15.581,15.581,0,0,0-2.33.058,3.9,3.9,0,0,0,1.425-.778,3.821,3.821,0,0,1-1.832.778v.037c-.455.058-.911.132-1.361.222q-.794.175-1.589.429a6.965,6.965,0,0,0,1.382-1.589,6.8,6.8,0,0,1-1.732,1.705,16.356,16.356,0,0,0-3.945,1.949l.334.44a15.283,15.283,0,0,1,2.256-1.425,19.453,19.453,0,0,1,3.707,0,20.111,20.111,0,0,0-3.294-.227,16.524,16.524,0,0,1,3.241-1.155,5,5,0,0,1,2.648.445A5.035,5.035,0,0,0,149.3,55.6,15.889,15.889,0,0,1,152.35,55.3Z" transform="translate(-111.126 -46.934)" fill="#5fa348"/>
        <path id="Path_42548" data-name="Path 42548" d="M139.963,32.077a10.292,10.292,0,0,1-.392,3.342,16.177,16.177,0,0,0-.53-2.981,8.472,8.472,0,0,0,.053-2.945,7.289,7.289,0,0,1-.117,2.648,15.859,15.859,0,0,0-1.059-2.7,15.9,15.9,0,0,1,1.255,4.92,14.521,14.521,0,0,1-1.117-2.648,14.872,14.872,0,0,0,1.16,3.072,15.3,15.3,0,0,1-.418,4.766l.53.127a15.891,15.891,0,0,0,.27-3.707A10.46,10.46,0,0,0,139.963,32.077Z" transform="translate(-107.731 -27.851)" fill="#5fa348"/>
        <path id="Path_42549" data-name="Path 42549" d="M169.627,23.973c-.868-.058-1.742-.069-2.611-.042a19.182,19.182,0,0,1,3.707-1.186,19.639,19.639,0,0,0-4.274,1.2c-.44.18-.879.376-1.3.588a5.628,5.628,0,0,0,1.26-1.811,5.462,5.462,0,0,1-1.848,2.118,19.6,19.6,0,0,0-4.915,3.707l.53.44a18.635,18.635,0,0,1,2.886-2.7,16.811,16.811,0,0,1,3.458-.4,16.346,16.346,0,0,0-3.135.164,19.357,19.357,0,0,1,3.331-1.944A26.567,26.567,0,0,1,169.627,23.973Z" transform="translate(-124.309 -22.718)" fill="#5fa348"/>
      </g>
    </g>
  </g>
</svg>
