<svg xmlns="http://www.w3.org/2000/svg" width="29" height="29" viewBox="0 0 29 29">
  <g id="Group_24300" data-name="Group 24300" transform="translate(-578 -356)">
    <g id="Path_42497" data-name="Path 42497" transform="translate(578 356)" fill="rgba(255,255,255,0)">
      <path d="M 14.5 28.25 C 10.82723999023438 28.25 7.37431001663208 26.81974983215332 4.777279853820801 24.22271919250488 C 2.180249929428101 21.62569046020508 0.75 18.17276000976562 0.75 14.5 C 0.75 10.82723999023438 2.180249929428101 7.37431001663208 4.777279853820801 4.777279853820801 C 7.37431001663208 2.180249929428101 10.82723999023438 0.75 14.5 0.75 C 18.17276000976562 0.75 21.62569046020508 2.180249929428101 24.22271919250488 4.777279853820801 C 26.81974983215332 7.37431001663208 28.25 10.82723999023438 28.25 14.5 C 28.25 18.17276000976562 26.81974983215332 21.62569046020508 24.22271919250488 24.22271919250488 C 21.62569046020508 26.81974983215332 18.17276000976562 28.25 14.5 28.25 Z" stroke="none"/>
      <path d="M 14.5 1.5 C 11.0275707244873 1.5 7.762990951538086 2.852239608764648 5.307609558105469 5.307609558105469 C 2.852239608764648 7.762990951538086 1.5 11.0275707244873 1.5 14.5 C 1.5 17.97243118286133 2.852239608764648 21.23701095581055 5.307609558105469 23.69239044189453 C 7.762990951538086 26.14776039123535 11.0275707244873 27.5 14.5 27.5 C 17.97243118286133 27.5 21.23701095581055 26.14776039123535 23.69239044189453 23.69239044189453 C 26.14776039123535 21.23701095581055 27.5 17.97243118286133 27.5 14.5 C 27.5 11.0275707244873 26.14776039123535 7.762990951538086 23.69239044189453 5.307609558105469 C 21.23701095581055 2.852239608764648 17.97243118286133 1.5 14.5 1.5 M 14.5 0 C 22.50812911987305 0 29 6.491870880126953 29 14.5 C 29 22.50812911987305 22.50812911987305 29 14.5 29 C 6.491870880126953 29 0 22.50812911987305 0 14.5 C 0 6.491870880126953 6.491870880126953 0 14.5 0 Z" stroke="none" fill="#cb772f"/>
    </g>
    <path id="Path_42496" data-name="Path 42496" d="M-3.16-4.26H-1.6l.4-6.26V-14.5H-3.6v3.98ZM-3.76,0h2.72V-2.72H-3.76Z" transform="translate(595 378)" fill="#cb772f" stroke="rgba(0,0,0,0)" stroke-width="1"/>
  </g>
</svg>
