<svg xmlns="http://www.w3.org/2000/svg" xmlns:xlink="http://www.w3.org/1999/xlink" width="690" height="222.353" viewBox="0 0 690 222.353">
  <defs>
    <linearGradient id="linear-gradient" x1="0.5" x2="0.5" y2="1" gradientUnits="objectBoundingBox">
      <stop offset="0" stop-color="#c3f4d8"/>
      <stop offset="1" stop-color="#f1e6c1"/>
    </linearGradient>
    <clipPath id="clip-path">
      <path id="Path_24086" data-name="Path 24086" d="M181.615,51.992c-6.563,7-12.617,15.683-15.424,25.858l158.171.279c-2.914-3.975-5.724-8.68-8.469-12.38A102.662,102.662,0,0,0,299.373,47.7c-12.879-10.613-28.595-15.848-44.248-17.941a121.57,121.57,0,0,0-16.082-1.116c-20.661,0-41.129,5.974-57.428,23.352" transform="translate(-166.191 -28.64)" fill="none"/>
    </clipPath>
  </defs>
  <g id="Group_24757" data-name="Group 24757" transform="translate(-260 -7471.001)">
    <g id="Group_21975" data-name="Group 21975" transform="translate(-710 1214.072)">
      <g id="Group_21879" data-name="Group 21879" transform="translate(970 6257)">
        <rect id="man-cutting-grass-with-lawn-mover-back-yard" width="690" height="222" rx="5" transform="translate(0 -0.071)" fill="url(#linear-gradient)"/>
        <g id="Group_21980" data-name="Group 21980" transform="translate(16.437 24.219)">
          <g id="Group_21977" data-name="Group 21977" transform="translate(0 0.002)">
            <g id="Group_21981" data-name="Group 21981" transform="translate(0 0)">
              <path id="Path_23939" data-name="Path 23939" d="M301.041,221.772l-282.936.219c-2.369-2.651-8.018-45.271-.868-56.708,4.1-6.562,5.058-9.276,10.147-14.536,3.526-3.645,7.215-7.268,9.986-11.908a32.208,32.208,0,0,0,4.247-15.885c.207-9.371-2.79-17.858-3.5-27.027a52.416,52.416,0,0,1,6.5-29.275A66.967,66.967,0,0,1,54.968,52.5c20.649-21.74,47.659-25.988,73.616-22.559,15.738,2.079,31.416,7.127,44.786,18.3a100.776,100.776,0,0,1,16.39,18q.148.2.294.407c4.855,6.736,9.522,15.7,16.085,19.787s15.125-.013,21.833-1.749c7.934-2.053,16.008-3.379,24.106-2.365,15.529,1.947,29.059,12.449,39.983,26.228,12.064,15.218,19.187,34.917,19.754,56.656a141.224,141.224,0,0,1-10.773,56.565" transform="translate(-11.389 -23.941)" fill="#ddeff2"/>
              <rect id="Rectangle_6417" data-name="Rectangle 6417" width="25.247" height="67.309" transform="translate(10.986 130.753)" fill="#6bdbad"/>
              <rect id="Rectangle_6418" data-name="Rectangle 6418" width="25.247" height="67.309" transform="translate(17.182 130.753)" fill="#a0e7b1"/>
              <path id="Path_23941" data-name="Path 23941" d="M299.124,375.484a.49.49,0,0,1,.485.484v1.275a.491.491,0,0,1-.485.485h-5.732v3.483h5.373a.489.489,0,0,1,.485.484v1.275a.491.491,0,0,1-.485.485h-5.373v4.11a.492.492,0,0,1-.486.485h-1.456a.492.492,0,0,1-.485-.485v-11.6a.491.491,0,0,1,.485-.484Z" transform="translate(-241.156 -311.206)" fill="#dff1f4"/>
              <path id="Path_23942" data-name="Path 23942" d="M361.992,385.806a.49.49,0,0,1,.485.485v1.274a.49.49,0,0,1-.485.485h-7.872a.492.492,0,0,1-.485-.485v-11.6a.491.491,0,0,1,.485-.484h1.456a.491.491,0,0,1,.486.484v9.838Z" transform="translate(-293.098 -311.206)" fill="#dff1f4"/>
              <path id="Path_23943" data-name="Path 23943" d="M411.511,379.3a6.345,6.345,0,0,1,.386-1.894,4.323,4.323,0,0,1,.98-1.543,4.66,4.66,0,0,1,1.617-1.042,6.213,6.213,0,0,1,2.3-.385,6.3,6.3,0,0,1,2.283.377,4.487,4.487,0,0,1,1.617,1.042,4.539,4.539,0,0,1,.989,1.543,6.116,6.116,0,0,1,.4,1.9q.017.342.027.754t.009.853q0,.439-.009.852t-.027.754a6.34,6.34,0,0,1-.387,1.894,4.328,4.328,0,0,1-.979,1.544,4.539,4.539,0,0,1-1.626,1.032,7.179,7.179,0,0,1-4.591,0,4.552,4.552,0,0,1-1.617-1.032,4.327,4.327,0,0,1-.98-1.544,6.338,6.338,0,0,1-.386-1.894c-.012-.227-.021-.478-.027-.754s-.009-.56-.009-.852,0-.578.009-.853.015-.526.027-.754m8.141.09a2.857,2.857,0,0,0-5.714,0q-.036.683-.036,1.517t.036,1.516a2.786,2.786,0,0,0,.836,1.993,3.268,3.268,0,0,0,4.043,0,2.793,2.793,0,0,0,.836-1.993q.036-.682.036-1.516t-.036-1.517" transform="translate(-341.036 -310.337)" fill="#dff1f4"/>
              <path id="Path_23944" data-name="Path 23944" d="M488.594,382.072l-1.546,5.367a1.445,1.445,0,0,1-.224.44.486.486,0,0,1-.4.17h-1.455a.54.54,0,0,1-.423-.17.923.923,0,0,1-.207-.44l-2.3-11.327a.732.732,0,0,1-.018-.144.49.49,0,0,1,.485-.484h1.329a.606.606,0,0,1,.341.107.56.56,0,0,1,.216.377l1.51,7.612,1.329-4.793a1.229,1.229,0,0,1,.171-.324.513.513,0,0,1,.458-.2h1.474a.513.513,0,0,1,.458.2,1.235,1.235,0,0,1,.171.324l1.329,4.793,1.51-7.612a.559.559,0,0,1,.216-.377.606.606,0,0,1,.341-.107h1.329a.49.49,0,0,1,.485.484.8.8,0,0,1-.018.144l-2.3,11.327a.918.918,0,0,1-.206.44.541.541,0,0,1-.423.17h-1.455a.486.486,0,0,1-.4-.17,1.432,1.432,0,0,1-.224-.44Z" transform="translate(-399.502 -311.206)" fill="#dff1f4"/>
              <path id="Path_23945" data-name="Path 23945" d="M579.094,385.806a.491.491,0,0,1,.485.485v1.274a.491.491,0,0,1-.485.485H571.2a.492.492,0,0,1-.485-.485v-11.6a.491.491,0,0,1,.485-.484h7.746a.489.489,0,0,1,.485.484v1.275a.49.49,0,0,1-.485.485h-5.8v2.854h5.409a.492.492,0,0,1,.485.485v1.275a.49.49,0,0,1-.485.484h-5.409v2.98Z" transform="translate(-473.02 -311.206)" fill="#dff1f4"/>
              <path id="Path_23946" data-name="Path 23946" d="M640.609,375.484a4.983,4.983,0,0,1,3.415,1.041,3.676,3.676,0,0,1,1.168,2.89,4.014,4.014,0,0,1-.6,2.235,3.561,3.561,0,0,1-1.77,1.373l2.479,4.434a.437.437,0,0,1,.054.2.4.4,0,0,1-.4.4h-1.527a.724.724,0,0,1-.53-.17,1.251,1.251,0,0,1-.243-.315l-2.354-4.183h-2.39v4.183a.492.492,0,0,1-.485.485h-1.456a.492.492,0,0,1-.485-.485v-11.6a.49.49,0,0,1,.485-.484Zm-2.7,5.654h2.605a3.216,3.216,0,0,0,1.636-.359,1.449,1.449,0,0,0,.611-1.365,1.4,1.4,0,0,0-.611-1.346,3.362,3.362,0,0,0-1.636-.341h-2.605Z" transform="translate(-526.7 -311.206)" fill="#dff1f4"/>
              <path id="Path_23947" data-name="Path 23947" d="M730.314,374.434a6.368,6.368,0,0,1,2.12.323,5.251,5.251,0,0,1,1.528.808,3.5,3.5,0,0,1,.926,1.069,2.751,2.751,0,0,1,.35,1.1.4.4,0,0,1-.134.35.517.517,0,0,1-.351.135h-1.258a.745.745,0,0,1-.458-.117,1.2,1.2,0,0,1-.278-.314,2.334,2.334,0,0,0-.818-.781,3.19,3.19,0,0,0-1.626-.332,3.9,3.9,0,0,0-.889.1,2.559,2.559,0,0,0-.737.287,1.522,1.522,0,0,0-.494.458,1.076,1.076,0,0,0-.18.611,1.2,1.2,0,0,0,.171.673,1.338,1.338,0,0,0,.575.449,5.934,5.934,0,0,0,1.07.35q.665.161,1.653.377a11.562,11.562,0,0,1,1.859.548,4.323,4.323,0,0,1,1.276.754,2.807,2.807,0,0,1,.737,1.014,3.349,3.349,0,0,1,.243,1.311,3.194,3.194,0,0,1-.36,1.5,3.447,3.447,0,0,1-1.025,1.185,5.182,5.182,0,0,1-1.635.782,7.682,7.682,0,0,1-2.175.287,7.489,7.489,0,0,1-1.923-.243,5.647,5.647,0,0,1-1.626-.7,3.868,3.868,0,0,1-1.141-1.1,2.888,2.888,0,0,1-.486-1.436.4.4,0,0,1,.135-.35.515.515,0,0,1,.351-.135h1.257a.845.845,0,0,1,.467.108.823.823,0,0,1,.27.323,3.33,3.33,0,0,0,.3.467,1.672,1.672,0,0,0,.485.413,2.952,2.952,0,0,0,.764.3,4.692,4.692,0,0,0,1.141.117,6.532,6.532,0,0,0,1.042-.081,3.049,3.049,0,0,0,.881-.269,1.884,1.884,0,0,0,.61-.467,1.039,1.039,0,0,0,.234-.692.874.874,0,0,0-.251-.646,2.014,2.014,0,0,0-.764-.431,10.516,10.516,0,0,0-1.267-.341q-.756-.162-1.743-.413a9.322,9.322,0,0,1-1.573-.512,3.7,3.7,0,0,1-1.114-.727,2.709,2.709,0,0,1-.656-1.014,4.012,4.012,0,0,1-.216-1.391,3.142,3.142,0,0,1,.359-1.49,3.546,3.546,0,0,1,.989-1.167,4.852,4.852,0,0,1,1.5-.763,6.142,6.142,0,0,1,1.878-.278" transform="translate(-601.077 -310.336)" fill="#dff1f4"/>
              <path id="Path_23948" data-name="Path 23948" d="M807.567,375.484a.489.489,0,0,1,.485.484v11.6a.49.49,0,0,1-.485.485h-1.456a.49.49,0,0,1-.485-.485v-4.739H800.2v4.739a.491.491,0,0,1-.485.485h-1.456a.479.479,0,0,1-.341-.134.457.457,0,0,1-.144-.351v-11.6a.491.491,0,0,1,.485-.484h1.456a.49.49,0,0,1,.485.484v4.614h5.427v-4.614a.489.489,0,0,1,.485-.484Z" transform="translate(-661.204 -311.206)" fill="#dff1f4"/>
              <path id="Path_23949" data-name="Path 23949" d="M871.5,379.3a6.347,6.347,0,0,1,.386-1.894,4.323,4.323,0,0,1,.98-1.543,4.66,4.66,0,0,1,1.617-1.042,6.212,6.212,0,0,1,2.3-.385,6.3,6.3,0,0,1,2.283.377,4.49,4.49,0,0,1,1.617,1.042,4.539,4.539,0,0,1,.988,1.543,6.116,6.116,0,0,1,.4,1.9q.017.342.027.754t.009.853q0,.439-.009.852t-.027.754a6.344,6.344,0,0,1-.387,1.894,4.324,4.324,0,0,1-.979,1.544,4.536,4.536,0,0,1-1.626,1.032,7.179,7.179,0,0,1-4.591,0,4.553,4.553,0,0,1-1.617-1.032,4.327,4.327,0,0,1-.98-1.544,6.34,6.34,0,0,1-.386-1.894c-.012-.227-.021-.478-.027-.754s-.009-.56-.009-.852,0-.578.009-.853.016-.526.027-.754m8.141.09a2.824,2.824,0,0,0-.836-2,3.235,3.235,0,0,0-4.043,0,2.818,2.818,0,0,0-.836,2q-.036.683-.036,1.517t.036,1.516a2.787,2.787,0,0,0,.836,1.993,3.268,3.268,0,0,0,4.043,0,2.792,2.792,0,0,0,.836-1.993q.036-.682.036-1.516t-.036-1.517" transform="translate(-722.284 -310.337)" fill="#dff1f4"/>
              <path id="Path_23950" data-name="Path 23950" d="M952.557,375.483a5.061,5.061,0,0,1,3.378,1.023,3.714,3.714,0,0,1,1.2,3,3.77,3.77,0,0,1-1.2,3.016,5,5,0,0,1-3.378,1.041h-2.875v4a.492.492,0,0,1-.486.485h-1.456a.492.492,0,0,1-.484-.485v-11.6a.49.49,0,0,1,.484-.484Zm-2.875,5.834h2.785a2.923,2.923,0,0,0,1.635-.4,1.562,1.562,0,0,0,.611-1.409,1.516,1.516,0,0,0-.611-1.391,3.033,3.033,0,0,0-1.635-.386h-2.785Z" transform="translate(-785.098 -311.205)" fill="#dff1f4"/>
              <path id="Path_23951" data-name="Path 23951" d="M1355.626,905.84a172.04,172.04,0,0,0,8.679-51.6h-82.041c-.516,0-.938.671-.938,1.49v50.074Z" transform="translate(-1061.98 -708.008)" fill="#a0e7b1"/>
              <rect id="Rectangle_6419" data-name="Rectangle 6419" width="27.877" height="26.649" transform="translate(38.263 171.042)" fill="#6bdbad"/>
              <rect id="Rectangle_6420" data-name="Rectangle 6420" width="27.878" height="26.647" transform="translate(45.103 171.043)" fill="#a0e7b1"/>
              <rect id="Rectangle_6421" data-name="Rectangle 6421" width="22.601" height="21.605" transform="translate(53.402 149.437)" fill="#6bdbad"/>
              <rect id="Rectangle_6422" data-name="Rectangle 6422" width="22.601" height="21.605" transform="translate(47.857 149.437)" fill="#a0e7b1"/>
              <path id="Path_23952" data-name="Path 23952" d="M279.559,999.16l25.123,11.707V999.16Z" transform="translate(-231.702 -828.116)" fill="#65c99e"/>
              <path id="Path_23953" data-name="Path 23953" d="M1507.946,854.244h55.2q-.024,1.286-.083,2.555t-.144,2.5a108.524,108.524,0,0,1-1.806,13.4c-.043.221-.087.44-.132.66l-.024.122q-.183.886-.373,1.757-.348,1.567-.72,3.074l-.138.551c-.664,2.623-1.385,5.1-2.125,7.412q-.185.577-.372,1.141-.5,1.52-1.009,2.933-.36,1.006-.719,1.954h0c-1.279,3.4-2.51,6.218-3.5,8.344-1.341,2.868-2.247,4.461-2.247,4.461l-26.215.085-16.983.056V855.9a1.549,1.549,0,0,1,1.4-1.658" transform="translate(-1248.646 -708.008)" fill="#6bdbad"/>
              <path id="Path_23954" data-name="Path 23954" d="M1281.488,1012.545h79.026c.089,0,.162.115.162.256v1.088c0,.141-.073.256-.162.256h-79.026c-.089,0-.161-.115-.161-.256V1012.8c0-.141.073-.256.161-.256" transform="translate(-1061.98 -839.21)" fill="#6bdbad"/>
              <path id="Path_23955" data-name="Path 23955" d="M339.54,66.651H194.1A66.967,66.967,0,0,1,204.455,52.5c20.65-21.74,47.658-25.988,73.616-22.559,15.738,2.079,31.416,7.127,44.786,18.3a100.78,100.78,0,0,1,16.39,18c.1.134.2.27.294.407" transform="translate(-160.875 -23.941)" fill="#b5dfe5"/>
              <path id="Path_23956" data-name="Path 23956" d="M743.063,1095.59H662.807a1.631,1.631,0,0,0-1.627,1.626v6.889a1.631,1.631,0,0,0,1.627,1.626h80.256a1.631,1.631,0,0,0,1.628-1.626v-6.889a1.631,1.631,0,0,0-1.628-1.626" transform="translate(-547.994 -908.039)" fill="#6bdbad"/>
              <rect id="Rectangle_6423" data-name="Rectangle 6423" width="17.972" height="17.223" transform="translate(164.922 170.328)" fill="#6bdbad"/>
              <rect id="Rectangle_6424" data-name="Rectangle 6424" width="17.972" height="17.222" transform="translate(160.513 170.329)" fill="#a0e7b1"/>
              <rect id="Rectangle_6425" data-name="Rectangle 6425" width="14.57" height="38.844" transform="translate(158.564 131.484)" fill="#6bdbad"/>
              <rect id="Rectangle_6426" data-name="Rectangle 6426" width="14.57" height="38.844" transform="translate(162.14 131.484)" fill="#a0e7b1"/>
              <path id="Path_23957" data-name="Path 23957" d="M953.842,994.986l-16.2,7.547v-7.547Z" transform="translate(-777.133 -824.657)" fill="#65c99e"/>
              <path id="Path_23958" data-name="Path 23958" d="M846.175,937.627s-4.625,3.436-5.526,3.227,3.38-3.708,3.38-3.708c-1.611-.774-6.62-.289-6.62-.289s-1.668,5.375-2.491,4.951,1.72-4.684,1.72-4.684a8.555,8.555,0,0,0-4,1.223c-3.013,2.377.2,6.12.2,6.12A9.146,9.146,0,0,1,830.319,948a7.941,7.941,0,0,0-2.906,5.6l.493.044s.791-3.375,2.225-4.945l.212-.216c.23-.213.391-.373.5-.492A7.221,7.221,0,0,1,833,946.359a.916.916,0,0,1-.02-.236c.006.076.013.153.02.236.161,1.891,3.834,3.543,6.094,3.883s1.561-.588.782-1.964-3.243-1.992-3.8-2.625.6-.635,1.962-.014,1.548,2.278,3.732,3.323,5.471-2.576,5.471-2.576c-1.741-.088-4.226-1.977-4.137-2.555s4.22,1,4.926,1.073,2.312-.8,2.561-3.643-4.413-3.633-4.413-3.633" transform="translate(-685.77 -776.355)" fill="#65c99e"/>
              <path id="Path_23959" data-name="Path 23959" d="M702.819,890.565s5.108-2.858,2.724-6.736a10.142,10.142,0,0,0-3.951-2.994s1.09,5.783,0,5.919-.749-6.532-.749-6.532-5.38-2.586-7.492-2.381c0,0,3.337,5.647,2.248,5.511s-4.836-5.852-4.836-5.852-5.517-1.021-6.4,2.246.545,4.9,1.362,5.1,6.062.136,5.925.817-3.678,1.769-5.653,1.157c0,0,2.18,5.375,5.04,5.1s3.746-2.041,5.517-2.177,3.065.34,2.18.817-3.882.156-5.312,1.371-2.588,1.963.068,2.507,7.424.2,8.377-1.837l.119-.255a1.083,1.083,0,0,1-.119.255,8.55,8.55,0,0,1,1.737,2.7c.073.177.186.421.356.752.061.132.111.244.148.327.956,2.335.456,6.417.456,6.417l.567.152a9.416,9.416,0,0,0-.948-7.419,10.846,10.846,0,0,1-1.362-4.967" transform="translate(-566.975 -727.159)" fill="#65c99e"/>
              <path id="Path_23960" data-name="Path 23960" d="M1015.465,863.327s-2,1.487-2.393,1.4,1.463-1.606,1.463-1.606a8.763,8.763,0,0,0-2.866-.125s-.638,2.07-.995,1.886.661-1.77.661-1.77a3.7,3.7,0,0,0-1.73.529c-1.3,1.029.086,2.65.086,2.65a3.958,3.958,0,0,1-1.092,1.53,3.437,3.437,0,0,0-1.258,2.422l.214.019a5.954,5.954,0,0,1,.964-2.141l.092-.093c.1-.092.169-.161.217-.213a3.122,3.122,0,0,1,.934-.706.385.385,0,0,1-.009-.1c0,.033.006.067.009.1.07.819,1.66,1.534,2.639,1.681s.676-.255.339-.85-1.137-.677-1.38-.952-.008-.46.582-.191.67.986,1.616,1.438,2.368-1.115,2.368-1.115c-.754-.038-1.83-.856-1.791-1.106s1.827.432,2.133.464,1-.347,1.109-1.577-1.911-1.573-1.911-1.573" transform="translate(-834.898 -715.206)" fill="#65c99e"/>
              <path id="Path_23961" data-name="Path 23961" d="M951.661,841.214s2.211-1.237,1.18-2.916a4.391,4.391,0,0,0-1.711-1.3s.472,2.5,0,2.563-.324-2.828-.324-2.828a10.4,10.4,0,0,0-3.244-1.031s1.445,2.445.973,2.386-2.094-2.533-2.094-2.533-2.388-.442-2.772.972.236,2.121.59,2.209,2.624.059,2.565.353-1.592.766-2.448.5c0,0,.944,2.327,2.182,2.209s1.622-.884,2.388-.942,1.327.147.944.353-1.681.068-2.3.594-1.12.85.029,1.086,3.214.088,3.627-.8l.052-.11a.461.461,0,0,1-.052.11,3.7,3.7,0,0,1,.752,1.167c.032.077.081.182.154.326l.064.142a7.059,7.059,0,0,1,.2,2.778l.246.066a4.077,4.077,0,0,0-.411-3.212,4.7,4.7,0,0,1-.589-2.15" transform="translate(-782.025 -692.468)" fill="#65c99e"/>
              <path id="Path_23962" data-name="Path 23962" d="M1010.135,818.867c-.505-1.864-3.654-1.281-3.654-1.281s-2.138,3.261-2.76,3.339S1005,817.78,1005,817.78c-1.2-.116-4.276,1.359-4.276,1.359s.194,3.805-.428,3.728,0-3.378,0-3.378a5.787,5.787,0,0,0-2.254,1.708c-1.361,2.214,1.555,3.844,1.555,3.844a6.189,6.189,0,0,1-.777,2.834,5.373,5.373,0,0,0-.541,4.234l.324-.087a9.375,9.375,0,0,1,.251-3.642c.022-.049.054-.12.093-.207.1-.19.163-.33.2-.431a4.873,4.873,0,0,1,.99-1.537.609.609,0,0,1-.068-.146l.068.146c.544,1.165,3.265,1.359,4.781,1.048s.855-.738.039-1.431-2.527-.51-3.032-.782.233-.544,1.244-.466,1.516,1.087,3.149,1.243,2.876-2.912,2.876-2.912c-1.127.349-3.148-.272-3.226-.66s2.915-.349,3.382-.466,1.282-1.048.777-2.912" transform="translate(-826.893 -677.554)" fill="#6bdbad"/>
              <path id="Path_23963" data-name="Path 23963" d="M789.01,1018.435a13.183,13.183,0,0,1-10.751,12.95,12.8,12.8,0,0,1-1.635.2c-.266.016-.534.025-.8.025a13.183,13.183,0,0,1-13.19-13.176Z" transform="translate(-632.077 -844.092)" fill="#6bdbad"/>
              <path id="Path_23964" data-name="Path 23964" d="M786.045,1031.385a12.849,12.849,0,0,1-1.635.2,13.181,13.181,0,0,1-12.385-13.151H775.3a13.185,13.185,0,0,0,10.744,12.95" transform="translate(-639.863 -844.092)" fill="#65c99e"/>
              <rect id="Rectangle_6427" data-name="Rectangle 6427" width="27.113" height="0.404" transform="translate(130.119 174.259)" fill="#6bdbad"/>
              <path id="Path_23965" data-name="Path 23965" d="M932.05,700.2s1.99,1.478,2.377,1.388-1.454-1.6-1.454-1.6a8.707,8.707,0,0,1,2.848-.124s.718,2.312,1.072,2.13-.74-2.015-.74-2.015a3.682,3.682,0,0,1,1.719.526c1.3,1.023-.085,2.633-.085,2.633a3.932,3.932,0,0,0,1.085,1.521,3.416,3.416,0,0,1,1.25,2.407l-.212.019a5.918,5.918,0,0,0-.957-2.127l-.091-.093c-.1-.092-.168-.16-.215-.212a3.11,3.11,0,0,0-.928-.7.381.381,0,0,0,.009-.1l-.009.1c-.069.814-1.65,1.525-2.622,1.671s-.672-.253-.337-.845,1.4-.857,1.637-1.129-.258-.273-.844-.006-.666.98-1.605,1.43-2.354-1.108-2.354-1.108c.749-.038,1.818-.85,1.78-1.1s-1.815.429-2.119.461-.995-.345-1.1-1.567,1.9-1.563,1.9-1.563" transform="translate(-770.918 -580.008)" fill="#65c99e"/>
              <path id="Path_23966" data-name="Path 23966" d="M995.991,679.955s-2.2-1.229-1.172-2.9a4.363,4.363,0,0,1,1.7-1.288s-.469,2.488,0,2.547.322-2.81.322-2.81a10.328,10.328,0,0,1,3.223-1.024s-1.436,2.429-.967,2.371,2.08-2.517,2.08-2.517,2.373-.439,2.754.966-.234,2.107-.586,2.2-2.608.058-2.549.351,1.582.761,2.432.5c0,0-.937,2.312-2.168,2.2s-1.611-.878-2.373-.937-1.318.147-.938.351,1.67.067,2.286.59,1.114.845-.029,1.079-3.194.088-3.6-.79l-.051-.11a.454.454,0,0,0,.051.11,3.684,3.684,0,0,0-.747,1.16c-.031.076-.08.181-.153.324-.026.057-.048.1-.064.141a7.014,7.014,0,0,0-.2,2.76l-.244.066a4.05,4.05,0,0,1,.408-3.192,4.665,4.665,0,0,0,.586-2.136" transform="translate(-824.292 -558.844)" fill="#65c99e"/>
              <path id="Path_23967" data-name="Path 23967" d="M920.654,655.159c.5-1.852,3.631-1.273,3.631-1.273s2.124,3.241,2.742,3.318-1.275-3.125-1.275-3.125c1.2-.116,4.249,1.35,4.249,1.35s-.193,3.781.425,3.7,0-3.357,0-3.357a5.75,5.75,0,0,1,2.24,1.7c1.351,2.2-1.545,3.82-1.545,3.82a6.148,6.148,0,0,0,.772,2.817,5.34,5.34,0,0,1,.538,4.207l-.322-.086a9.308,9.308,0,0,0-.25-3.619c-.021-.049-.053-.119-.093-.205-.1-.189-.162-.328-.2-.429a4.843,4.843,0,0,0-.984-1.527.616.616,0,0,0,.068-.145l-.068.145c-.541,1.157-3.244,1.35-4.751,1.042s-.85-.733-.038-1.422,2.51-.507,3.012-.777-.231-.54-1.236-.463-1.506,1.08-3.128,1.235-2.858-2.894-2.858-2.894c1.12.347,3.128-.27,3.206-.656s-2.9-.347-3.36-.463-1.275-1.042-.773-2.894" transform="translate(-762.918 -541.878)" fill="#6bdbad"/>
              <path id="Path_23968" data-name="Path 23968" d="M961.337,734.964a5.671,5.671,0,0,1-4.625,5.571,5.492,5.492,0,0,1-.7.087c-.114.007-.23.011-.345.011a5.671,5.671,0,0,1-5.675-5.668Z" transform="translate(-787.362 -609.148)" fill="#6bdbad"/>
              <path id="Path_23969" data-name="Path 23969" d="M960.062,740.535a5.5,5.5,0,0,1-.7.087,5.67,5.67,0,0,1-5.328-5.657h1.41a5.672,5.672,0,0,0,4.622,5.571" transform="translate(-790.713 -609.148)" fill="#65c99e"/>
              <rect id="Rectangle_6428" data-name="Rectangle 6428" width="11.664" height="0.174" transform="translate(162.497 125.78)" fill="#6bdbad"/>
              <path id="Path_23970" data-name="Path 23970" d="M981.828,897.277h-9.972v.447h.469v11.767a4.517,4.517,0,0,0,9.034,0V897.724h.469Z" transform="translate(-805.487 -743.675)" fill="#6bdbad"/>
              <path id="Path_23971" data-name="Path 23971" d="M981.153,914.861V904.019h-1.614v10.842a4.007,4.007,0,0,0,4.01,4.005,4.048,4.048,0,0,0,.807-.081,4.008,4.008,0,0,1-3.2-3.925" transform="translate(-811.854 -749.263)" fill="#65c99e"/>
              <path id="Path_23972" data-name="Path 23972" d="M843.9,832.927c-1.167-4.305-8.439-2.96-8.439-2.96s-4.938,7.534-6.374,7.713,2.963-7.265,2.963-7.265c-2.783-.269-9.876,3.139-9.876,3.139s.449,8.789-.988,8.61,0-7.8,0-7.8c-2.693.807-5.207,3.946-5.207,3.946-3.142,5.112,3.591,8.879,3.591,8.879a14.3,14.3,0,0,1-1.8,6.547,12.411,12.411,0,0,0-1.25,9.78l.748-.2s-.654-5.327.58-8.412c.051-.114.124-.278.216-.478.224-.439.376-.762.471-1,.672-1.377,1.641-3.173,2.287-3.55a1.422,1.422,0,0,1-.157-.336l.157.336c1.257,2.691,7.542,3.139,11.043,2.422s1.975-1.7.09-3.305-5.836-1.179-7-1.807.538-1.256,2.873-1.077,3.5,2.512,7.272,2.87,6.644-6.726,6.644-6.726c-2.6.807-7.272-.628-7.452-1.525s6.734-.807,7.811-1.076,2.963-2.422,1.8-6.727" transform="translate(-675.604 -687.723)" fill="#6bdbad"/>
              <path id="Path_23973" data-name="Path 23973" d="M203.533,914.4s2.449-1.511,1.2-3.366a4.987,4.987,0,0,0-2-1.387s.657,2.818.125,2.908-.506-3.193-.506-3.193-2.7-1.156-3.73-1.012c0,0,1.758,2.7,1.22,2.66s-2.5-2.773-2.5-2.773-2.731-.385-3.1,1.238.371,2.4.777,2.478,2.981-.061,2.928.276-1.769.947-2.752.688c0,0,1.184,2.594,2.584,2.4s1.8-1.082,2.664-1.186,1.513.1,1.088.355-1.9.158-2.581.785-1.23,1.019.087,1.23,3.651-.056,4.076-1.079Z" transform="translate(-160.905 -752.726)" fill="#f48d1c"/>
              <path id="Path_23974" data-name="Path 23974" d="M202.074,918.281s7.124,1.971,8.036,4.477a5.332,5.332,0,0,0,.774,2.411l.022.5a7.313,7.313,0,0,0-1.221-1.89s1.478-2.273-7.611-5.5" transform="translate(-167.481 -761.083)" fill="#f48d1c"/>
              <path id="Path_23975" data-name="Path 23975" d="M251.854,957.073a4.629,4.629,0,0,1,.622,3.624l-.282-.063a7.48,7.48,0,0,0-.439-3.3c-.615-1.084.1-.262.1-.262" transform="translate(-208.451 -792.987)" fill="#52a50e"/>
              <path id="Path_23976" data-name="Path 23976" d="M284.84,913.592s-2.332-2.493-.319-4.226a5.919,5.919,0,0,1,2.727-.964s-1.632,3.021-1.05,3.29,1.575-3.5,1.575-3.5,3.449-.484,4.587,0c0,0-2.857,2.548-2.227,2.665s3.726-2.4,3.726-2.4,3.247.409,3.16,2.381-1.172,2.627-1.663,2.6-3.393-1-3.438-.6,1.73,1.634,2.937,1.644c0,0-2.165,2.6-3.707,1.944s-1.72-1.8-2.68-2.187-1.764-.354-1.356.068,2.13.774,2.71,1.7,1.09,1.55-.483,1.382-4.163-1.2-4.33-2.5Z" transform="translate(-235.136 -752.545)" fill="#fbae25"/>
              <path id="Path_23977" data-name="Path 23977" d="M292.136,925.442s-8.771.039-10.6,2.623a6.333,6.333,0,0,1-1.639,2.52l-.181.567s1.449-1.663,1.987-1.783c0,0-.982-3.062,10.429-3.927" transform="translate(-231.835 -767.018)" fill="#f48d1c"/>
              <path id="Path_23978" data-name="Path 23978" d="M271.852,954.321a5.5,5.5,0,0,0-1.844,3.956l.342.016s.49-2.591,1.532-3.641-.031-.331-.031-.331" transform="translate(-223.786 -790.755)" fill="#f48d1c"/>
              <path id="Path_23979" data-name="Path 23979" d="M210.739,855.428s4.411-.9,3.572-4.3a7.79,7.79,0,0,0-2.194-3.115s-.554,4.491-1.385,4.337.979-4.961.979-4.961-3.337-3.15-4.932-3.493c0,0,1.124,4.917.358,4.563s-2.174-5.416-2.174-5.416-3.8-2.036-5.216.151-.747,3.716-.2,4.057,4.409,1.515,4.15,1.981-3.108.438-4.412-.472c0,0,.339,4.447,2.5,4.915s3.222-.621,4.551-.307,2.166.965,1.406,1.107-2.881-.792-4.213-.236-2.355.834-.536,1.853,5.391,1.883,6.567.61Z" transform="translate(-164.852 -698.011)" fill="#fbae25"/>
              <path id="Path_23980" data-name="Path 23980" d="M213.225,855.9s9.4,6.729,9.385,10.9a8.34,8.34,0,0,0-.164,3.957l-.239.748s-.286-2.892-.773-3.432c0,0,3.4-2.543-8.209-12.172" transform="translate(-176.724 -709.38)" fill="#f48d1c"/>
              <path id="Path_23981" data-name="Path 23981" d="M260.212,939.687a7.24,7.24,0,0,1-1.041,5.657l-.38-.244s1.453-3.158,1.135-5.081.286-.332.286-.332" transform="translate(-214.489 -778.313)" fill="#f48d1c"/>
              <path id="Path_23982" data-name="Path 23982" d="M232.156,957.742H212.024v.9h.946V982.4a9.12,9.12,0,0,0,18.239,0V958.645h.946Z" transform="translate(-175.728 -793.789)" fill="#008175"/>
              <path id="Path_23983" data-name="Path 23983" d="M230.794,993.241V971.353h-3.259v21.888a8.1,8.1,0,0,0,9.724,7.923,8.091,8.091,0,0,1-6.466-7.923" transform="translate(-188.584 -805.07)" fill="#00af8d"/>
              <path id="Path_23984" data-name="Path 23984" d="M1171.9,520.987a9.555,9.555,0,0,1,.849-2.928,7.726,7.726,0,0,1,1.834-2.451,1.4,1.4,0,0,1,.31-.265c.185-.153.365-.287.538-.4a5.883,5.883,0,0,1,1.459-.758c.471-.1.9.2,1.3.816a16.1,16.1,0,0,1,.918,2.1c.014.023.03.044.027.061.061.18.119.379.193.6a.5.5,0,0,1,.049.14c.053.193.106.389.157.587.07.272.141.547.208.832,1.362,5.281,2.415,13.1,4,15.661.687,1.1,4.269,3.662,7.135,5.607,1,.671,1.908,1.264,2.583,1.7a15.132,15.132,0,0,0,4.69.961c1.594-.177,3.976,1.993,3.976,1.993s.212.628-.839.917c-1.053.3-2.638,1.61-4.79.451a35.3,35.3,0,0,0-4-1.759c-.1-.032-.186-.06-.258-.084-.954-.24-2.234-.572-3.61-.975-3.258-.925-7.088-2.217-8.481-3.463-2.123-1.885-5.236-7.05-6.983-11.97a3,3,0,0,1-.123-.36,16.262,16.262,0,0,1-1.143-7.009" transform="translate(-971.231 -426.144)" fill="#e5a173"/>
              <path id="Path_23985" data-name="Path 23985" d="M1100.21,350.286c-.06-.328-.831-3.842-6.273-3.243,0,0,2.709-.069,3.339,1.034,0,0-2.023-1.182-3.432-.5s-1.9,3.389-1.786,4.24,1.333,3.473,2.3,3.57a2.9,2.9,0,0,0,1.135-.163,12.838,12.838,0,0,0-.539,1.4c-1.517,4.744,1.341,8.751,3.1,8.008,1.129-.477,1.751,1.475,1.751,1.475l10.059-10.871s-5.444-8.047-9.658-4.949" transform="translate(-905.098 -287.577)" fill="#4a2009"/>
              <path id="Path_23986" data-name="Path 23986" d="M1118.919,763.46l-2.446.91s-10.626-14.722-11.934-27.676a19.649,19.649,0,0,1,.349-6.622s-.1-.593-.286-1.64c-.084-.489-.188-1.077-.306-1.752-.346-1.977-.821-4.683-1.364-7.763-1.25-7.089-2.87-16.151-4.129-22.814l.659-.211,7.132-2.3,1.474-4.677,5.311-1.4s1.187,2.318,2.247,13.271c.2,1.437.373,3.021.507,4.739a93.7,93.7,0,0,1-.505,19.184q-.366,2.855-.933,5.888a26.243,26.243,0,0,0-.2,5.814c.535,10.589,4.426,27.045,4.426,27.045" transform="translate(-910.703 -569.826)" fill="#284663"/>
              <path id="Path_23987" data-name="Path 23987" d="M1116.135,705.53l-11.532,22.9c-.084-.489-.188-1.077-.306-1.752-.346-1.977-.821-4.683-1.364-7.764-1.25-7.089-2.87-16.151-4.129-22.813l.659-.212,7.132-2.3,1.474-4.677,5.31-1.4s1.187,2.318,2.247,13.27c.2,1.437.373,3.021.507,4.739" transform="translate(-910.703 -569.826)" fill="#2c3f4e"/>
              <path id="Path_23988" data-name="Path 23988" d="M1059.456,677.562l-.267-2.287c-4.473,1.187-16.423-3.316-16.423-3.316s-4.333,3.8-3.764,12.925c.278,4.452.785,23.368,1.314,28.966.192,2.029.359,3.473.428,4.049a.009.009,0,0,1,0,.006.8.8,0,0,1-.13.5,26.276,26.276,0,0,0-1.955,4.108c-5.2,13.841.8,30.887.8,30.887l1.557-.627s3.414-18.97,6.189-27.35a16.607,16.607,0,0,1,1.336-3.206,36.161,36.161,0,0,0,3.342-8.9,218.606,218.606,0,0,0,4.5-23.617c.142.006,3.076-12.13,3.076-12.13" transform="translate(-859.097 -556.928)" fill="#284663"/>
              <path id="Path_23989" data-name="Path 23989" d="M1115.012,467.779a13.937,13.937,0,0,1-4.925,1.932c-7.549,1.52-10.245-4.894-11.2-9.271a6.454,6.454,0,0,1,2.563-.708c.544-.048,1.115-.075,1.588-.085.86-.621,2.19-3.223,2.583-7.31l.35.1,5.865,1.783s-.324,1.87-.506,3.64a7.022,7.022,0,0,0,.059,3.044c.458.113.734.186.734.186a.013.013,0,0,0,0,.006,38.055,38.055,0,0,1,2.888,6.68" transform="translate(-910.77 -374.902)" fill="#ffb27d"/>
              <path id="Path_23990" data-name="Path 23990" d="M1146.133,454.735s-.324,1.868-.506,3.64c-3.34-.429-4.8-3.658-5.36-5.422Z" transform="translate(-945.068 -375.413)" fill="#ed985f"/>
              <path id="Path_23991" data-name="Path 23991" d="M1143.92,407.367s-7.937-.662-7.448-5.593-.207-8.338,4.882-8.124,5.885,2.193,6.122,3.879-1.479,9.883-3.556,9.838" transform="translate(-941.904 -326.254)" fill="#ffb27d"/>
              <path id="Path_23992" data-name="Path 23992" d="M1056.937,519.936a6.911,6.911,0,0,0,1.14-4.048,98.99,98.99,0,0,0-1.156-10.036h0c.374-.371.738-.716,1.075-1.043a10.8,10.8,0,0,0,1.287-1.424,2.232,2.232,0,0,0,.5-1.482,7.389,7.389,0,0,0-.2-1.153c-.044-.181-.095-.361-.149-.541a15.852,15.852,0,0,0-1.637-3.519c1.922-1.121,5.624-1.156,5.624-1.156s.025.2.071.532c.181,1.327.687,4.727,1.205,5.309.648.725,10.886,2.827,11.241,1.664.35-1.143-1.763-5.956-1.842-6.138a.012.012,0,0,1,0-.005,16.388,16.388,0,0,1,4.72,1.681,2.624,2.624,0,0,1,.895.982,16.113,16.113,0,0,1,.918,2.1c.014.023.03.045.028.061.061.18.119.379.193.6a.512.512,0,0,1,.049.14c.053.193.106.389.157.587a8.369,8.369,0,0,0-1.805.489,9.649,9.649,0,0,1,.364,4.757c-.035.16-.077.318-.124.48-1.325,4.426-2.4,22.12-2.4,22.12.957,3.015-23.321,2.762-23.791-.041-1.269-2.86,1.838-8.2,3.633-10.916" transform="translate(-872.746 -410.705)" fill="#fa412b"/>
              <path id="Path_23993" data-name="Path 23993" d="M1135.845,389.226c-1.076-1.606-2.034-1.373-2.6-.979-4.093-2.812-8.727-.144-8.727-.144a27.875,27.875,0,0,1-2.151,5.826s1.355,1.035,4.77.513a5.686,5.686,0,0,0,2.883-1.589,18.567,18.567,0,0,1-3.57,3.564c4.161-1.439,6.312-6.8,6.529-7.373a6.226,6.226,0,0,1,1.5,2.473c.269,1.3.188,3.9.951,3.885,0,0,2.029-3.768.415-6.176" transform="translate(-930.234 -320.717)" fill="#4a2009"/>
              <path id="Path_23994" data-name="Path 23994" d="M1088.813,564.057c-4.69.63-9.36-3.653-12.348-7.184a6.81,6.81,0,0,0,.561-2.977,99.064,99.064,0,0,0-1.156-10.036h0c.374-.371.738-.716,1.075-1.043a10.818,10.818,0,0,0,1.287-1.424c4.775,5.919,16.939,21.81,10.581,22.664" transform="translate(-891.695 -448.714)" fill="#e33115"/>
              <path id="Path_23995" data-name="Path 23995" d="M1046.5,1121.507h-12.321a6.753,6.753,0,0,1,.349-3.3c.616-1.366,1.583-1.987,1.351-3.639a4.44,4.44,0,0,0,3.84,1.468,13.508,13.508,0,0,0,2.138,2.768c.805.578,4.4.372,4.643,2.7" transform="translate(-857.085 -923.769)" fill="#2c3f4e"/>
              <path id="Path_23996" data-name="Path 23996" d="M1200.74,1124.178h-12.322a5.111,5.111,0,0,1,.349-3.3,2.371,2.371,0,0,0-.089-2.833,4.789,4.789,0,0,0,2.075.39,4.336,4.336,0,0,0,1.832-.644,44.311,44.311,0,0,0,3.511,3.685c.805.578,4.4.372,4.644,2.7" transform="translate(-984.868 -926.44)" fill="#2c3f4e"/>
              <path id="Path_23997" data-name="Path 23997" d="M1692.4,927.343a12.19,12.19,0,0,0-2.8-2.679s-1.374,13.245-2.99,11.708-.825-15.386-.825-15.386-7.775-8.319-13.167-4.053-5.03,8.656-3.941,9.975,9.733,7.531,8.689,8.478-8.144-1.546-10.628-4.929c0,0-2.936,11.405,2.064,14.41s8.583,1.184,11.638,3.1,4.593,4.251,2.573,3.961-6.528-4.426-10.332-4.168-6.6.085-2.919,4.177a28.383,28.383,0,0,0,5.957,4.852h5.663a115.183,115.183,0,0,0,11.016-29.446" transform="translate(-1380.704 -758.957)" fill="#f48d1c"/>
              <path id="Path_23998" data-name="Path 23998" d="M1169.028,455.719s.111.653,1.719.654c0,0,1.35,0,1.354-.708a4.34,4.34,0,0,0-3.073.054" transform="translate(-968.905 -377.459)" fill="#fff"/>
              <path id="Path_23999" data-name="Path 23999" d="M1027.724,645.6l1.369-5.81a1.722,1.722,0,0,1,2.065-1.276l9.463,2.225a1.72,1.72,0,0,1,1.278,2.062l-1.369,5.811a1.722,1.722,0,0,1-2.065,1.276L1029,647.665a1.72,1.72,0,0,1-1.278-2.062" transform="translate(-851.753 -529.173)" fill="#2c3f4e"/>
              <path id="Path_24000" data-name="Path 24000" d="M1056.2,525.728a44.848,44.848,0,0,0,3.311-9.764,27.859,27.859,0,0,0,.568-8.738,14.982,14.982,0,0,0-3.361-8.244,3.618,3.618,0,0,0-2.853-1.272,3.565,3.565,0,0,0-2.75,1.387c-3.7,4.793-4.472,15.573-4.471,23.771h.429c0-14.733,2.381-20.917,4.381-23.51a3.136,3.136,0,0,1,2.42-1.22,3.193,3.193,0,0,1,2.515,1.121c2.264,2.656,4.57,7.694,2.7,16.606a44.349,44.349,0,0,1-3.276,9.668Z" transform="translate(-867.473 -412.508)" fill="#2c3f4e"/>
              <path id="Path_24001" data-name="Path 24001" d="M1074.4,505.457c-3.635-.67-6.134,2.337-6.134,2.337-.419-5.338,2.176-6.3,2.176-6.3,1.031-.535,2.431,1.208,3.958,3.962" transform="translate(-885.354 -415.565)" fill="#fa412b"/>
              <path id="Path_24002" data-name="Path 24002" d="M1393.7,698.162s-3.247-3.784-.2-6.188a8.649,8.649,0,0,1,4.04-1.237s-2.571,4.307-1.739,4.736,2.518-5.006,2.518-5.006,5.065-.491,6.694.292c0,0-4.33,3.539-3.418,3.75s5.588-3.263,5.588-3.263,4.713.8,4.462,3.674-1.875,3.759-2.589,3.683-4.889-1.668-4.98-1.084,2.423,2.494,4.183,2.583c0,0-3.323,3.661-5.532,2.6s-2.4-2.731-3.773-3.36-2.552-.627-1.984.014,3.06,1.263,3.847,2.655,1.494,2.33-.791,1.986-6-2.014-6.163-3.926Z" transform="translate(-1153.866 -572.143)" fill="#52a50e"/>
              <path id="Path_24003" data-name="Path 24003" d="M1402.815,717.556s-12.8-.493-15.63,3.165a9.242,9.242,0,0,1-2.549,3.574l-.3.817s2.218-2.337,3.012-2.478c0,0-1.241-4.531,15.467-5.077" transform="translate(-1147.355 -594.702)" fill="#52a50e"/>
              <path id="Path_24004" data-name="Path 24004" d="M1371.861,755.472a8.028,8.028,0,0,0-2.939,5.658l.5.045s.877-3.751,2.464-5.217-.024-.485-.024-.485" transform="translate(-1134.58 -625.878)" fill="#52a50e"/>
              <path id="Path_24005" data-name="Path 24005" d="M1242.938,643.66s5.165-2.889,2.755-6.811a10.253,10.253,0,0,0-3.995-3.027s1.1,5.848,0,5.985-.757-6.6-.757-6.6-5.441-2.614-7.576-2.408c0,0,3.375,5.71,2.273,5.573s-4.89-5.917-4.89-5.917-5.578-1.032-6.474,2.27.551,4.953,1.377,5.16,6.129.137,5.992.826-3.719,1.789-5.716,1.17c0,0,2.2,5.435,5.1,5.16s3.788-2.064,5.578-2.2,3.1.344,2.2.825-3.926.158-5.372,1.386-2.617,1.985.069,2.535,7.507.206,8.471-1.857Z" transform="translate(-1014.46 -522.4)" fill="#79c80e"/>
              <path id="Path_24006" data-name="Path 24006" d="M1240.527,650.48s14.462,4.678,16.115,9.907a10.968,10.968,0,0,0,1.378,5.022v1.032s-1.515-3.509-2.342-3.99c0,0,3.237-4.541-15.151-11.971" transform="translate(-1028.164 -539.126)" fill="#52a50e"/>
              <path id="Path_24007" data-name="Path 24007" d="M1339.364,734.579a9.521,9.521,0,0,1,.959,7.5l-.574-.154s.557-4.536-.61-6.818.225-.53.225-.53" transform="translate(-1109.509 -608.297)" fill="#52a50e"/>
              <path id="Path_24008" data-name="Path 24008" d="M1361,599.8s-6.808-3.809-3.631-8.978c0,0,2.542-3.174,5.265-3.99,0,0-1.452,7.708,0,7.89s1-8.706,1-8.706,7.171-3.446,9.986-3.174c0,0-4.448,7.527-3,7.346s6.445-7.8,6.445-7.8,7.353-1.36,8.534,2.993-.727,6.53-1.816,6.8-8.079.181-7.9,1.088,4.9,2.358,7.535,1.542c0,0-2.9,7.164-6.718,6.8s-4.993-2.721-7.353-2.9-4.085.453-2.905,1.088,5.175.208,7.081,1.827,3.449,2.617-.091,3.342-9.895.272-11.166-2.448Z" transform="translate(-1124.3 -482.522)" fill="#79c80e"/>
              <path id="Path_24009" data-name="Path 24009" d="M1395.118,608.788s-19.064,6.167-21.243,13.059a14.454,14.454,0,0,1-1.816,6.62v1.36s2-4.625,3.087-5.26c0,0-4.267-5.985,19.972-15.78" transform="translate(-1137.181 -504.572)" fill="#52a50e"/>
              <path id="Path_24010" data-name="Path 24010" d="M1363.44,719.647a12.55,12.55,0,0,0-1.264,9.889l.757-.2s-.734-5.979.8-8.987-.3-.7-.3-.7" transform="translate(-1128.561 -595.751)" fill="#52a50e"/>
              <path id="Path_24011" data-name="Path 24011" d="M1316.754,785.779a13.33,13.33,0,0,0,13.337-13.323h-26.674a13.33,13.33,0,0,0,13.337,13.323" transform="translate(-1080.288 -640.222)" fill="#008175"/>
              <path id="Path_24012" data-name="Path 24012" d="M1327.905,785.676a13.344,13.344,0,0,1-14.993-13.221h3.313a13.33,13.33,0,0,0,11.68,13.221" transform="translate(-1088.158 -640.221)" fill="#00af8d"/>
              <path id="Path_24013" data-name="Path 24013" d="M1329.384,846.286h-27.042a1.645,1.645,0,0,1,1.646-1.644h23.751a1.645,1.645,0,0,1,1.645,1.644" transform="translate(-1079.397 -700.05)" fill="#008175"/>
              <rect id="Rectangle_6429" data-name="Rectangle 6429" width="27.415" height="0.409" transform="translate(222.69 132.234)" fill="#00aaa8"/>
              <path id="Path_24014" data-name="Path 24014" d="M169.7,607.718s-3.247-3.784-.2-6.188a8.648,8.648,0,0,1,4.04-1.237s-2.571,4.307-1.739,4.736,2.518-5.006,2.518-5.006,5.065-.49,6.694.292c0,0-4.329,3.539-3.418,3.75s5.588-3.263,5.588-3.263,4.713.8,4.462,3.674-1.875,3.76-2.589,3.683-4.89-1.669-4.981-1.084,2.423,2.494,4.183,2.583c0,0-3.323,3.661-5.532,2.6s-2.4-2.731-3.774-3.359-2.552-.627-1.984.014,3.06,1.263,3.847,2.654,1.494,2.329-.791,1.986-6-2.014-6.162-3.927Z" transform="translate(-139.407 -497.181)" fill="#52a50e"/>
              <path id="Path_24015" data-name="Path 24015" d="M178.822,627.112s-12.8-.493-15.63,3.165a9.248,9.248,0,0,1-2.549,3.574l-.3.817s2.219-2.337,3.012-2.478c0,0-1.241-4.531,15.467-5.077" transform="translate(-132.894 -519.741)" fill="#52a50e"/>
              <path id="Path_24016" data-name="Path 24016" d="M147.867,665.027a8.029,8.029,0,0,0-2.939,5.658l.5.045s.878-3.751,2.464-5.217-.024-.485-.024-.485" transform="translate(-120.118 -550.917)" fill="#52a50e"/>
              <path id="Path_24017" data-name="Path 24017" d="M18.945,553.215s5.165-2.889,2.755-6.811a10.253,10.253,0,0,0-3.994-3.027s1.1,5.848,0,5.985-.757-6.6-.757-6.6-5.441-2.614-7.576-2.408c0,0,3.374,5.71,2.273,5.572s-4.89-5.916-4.89-5.916-5.578-1.032-6.473,2.27.551,4.953,1.377,5.16,6.129.137,5.991.825-3.719,1.789-5.716,1.17c0,0,2.2,5.435,5.1,5.16s3.788-2.064,5.578-2.2,3.1.344,2.2.826-3.925.158-5.372,1.386-2.617,1.985.069,2.535,7.507.207,8.471-1.857Z" transform="translate(0 -447.438)" fill="#79c80e"/>
              <path id="Path_24018" data-name="Path 24018" d="M16.535,560.036S31,564.714,32.65,569.943a10.964,10.964,0,0,0,1.377,5.022V576s-1.515-3.509-2.342-3.99c0,0,3.237-4.541-15.151-11.971" transform="translate(-13.704 -464.165)" fill="#52a50e"/>
              <path id="Path_24019" data-name="Path 24019" d="M115.371,644.135a9.521,9.521,0,0,1,.959,7.5l-.574-.154s.557-4.536-.61-6.818.225-.53.225-.53" transform="translate(-95.049 -533.335)" fill="#52a50e"/>
              <path id="Path_24020" data-name="Path 24020" d="M137,509.353s-6.808-3.809-3.631-8.978c0,0,2.542-3.174,5.265-3.99,0,0-1.452,7.708,0,7.89s1-8.706,1-8.706,7.172-3.446,9.986-3.174c0,0-4.448,7.527-3,7.346s6.445-7.8,6.445-7.8,7.353-1.36,8.534,2.993-.726,6.53-1.816,6.8-8.08.181-7.9,1.088,4.9,2.358,7.535,1.542c0,0-2.9,7.164-6.718,6.8s-4.993-2.721-7.353-2.9-4.085.453-2.905,1.088,5.175.208,7.081,1.827,3.45,2.617-.091,3.342-9.895.272-11.166-2.449Z" transform="translate(-109.839 -407.56)" fill="#79c80e"/>
              <path id="Path_24021" data-name="Path 24021" d="M171.125,518.344s-19.064,6.166-21.242,13.059a14.456,14.456,0,0,1-1.816,6.62v1.36s2-4.625,3.086-5.26c0,0-4.267-5.985,19.972-15.779" transform="translate(-122.72 -429.61)" fill="#52a50e"/>
              <path id="Path_24022" data-name="Path 24022" d="M139.447,629.2a12.55,12.55,0,0,0-1.264,9.889l.757-.2s-.734-5.98.8-8.987-.3-.7-.3-.7" transform="translate(-114.1 -520.789)" fill="#52a50e"/>
              <path id="Path_24023" data-name="Path 24023" d="M92.762,695.334A13.33,13.33,0,0,0,106.1,682.011H79.425a13.33,13.33,0,0,0,13.337,13.323" transform="translate(-65.828 -565.26)" fill="#008175"/>
              <path id="Path_24024" data-name="Path 24024" d="M103.913,695.233A13.346,13.346,0,0,1,88.92,682.012h3.313a13.33,13.33,0,0,0,11.68,13.221" transform="translate(-73.698 -565.26)" fill="#00af8d"/>
              <path id="Path_24025" data-name="Path 24025" d="M105.391,755.841H78.349a1.644,1.644,0,0,1,1.645-1.644h23.751a1.644,1.644,0,0,1,1.645,1.644" transform="translate(-64.937 -625.088)" fill="#008175"/>
              <rect id="Rectangle_6430" data-name="Rectangle 6430" width="27.415" height="0.409" transform="translate(13.158 116.751)" fill="#00aaa8"/>
              <path id="Path_24026" data-name="Path 24026" d="M1735.617,682.628c2.4-1.992,6.02,1.7,6.02,1.7s-.213,6.3.536,6.976,1.235-5.347,1.235-5.347c1.7.966,4.383,5.769,4.383,5.769s-3.8,4.846-2.906,5.322,3.146-4.463,3.146-4.463a9.335,9.335,0,0,1,1.387,4.352c-.264,4.188-5.634,3.633-5.634,3.633a10.006,10.006,0,0,0-1.613,4.467,8.686,8.686,0,0,1-3.228,6.1l-.347-.416s2.522-2.784,3.059-5.045c.017-.085.041-.208.069-.359.049-.341.093-.585.132-.757a7.884,7.884,0,0,0,.124-2.953,1,1,0,0,0,.226-.129l-.226.129c-1.8,1.033-5.579-1.239-7.292-3.058s-.443-1.769,1.281-1.927,3.736,1.107,4.657,1.217.275-.368-1.133-1.2-3.015.027-5.316-1.284-1.088-6.52-1.088-6.52c1.163,1.509,4.412,2.567,4.876,2.126s-3.526-3.171-4.033-3.758-.718-2.577,1.685-4.57" transform="translate(-1436.141 -565.282)" fill="#52a50e"/>
              <path id="Path_24027" data-name="Path 24027" d="M1576.095,720.307s-3.378,1.129-4.151-1.529a6.154,6.154,0,0,1,.266-3s2.161,2.855,2.668,2.421-2.638-3.008-2.638-3.008,1.035-3.478,1.99-4.344c0,0,1.181,3.811,1.565,3.265s-.66-4.568-.66-4.568,1.8-2.9,3.63-1.962,1.986,2.248,1.744,2.7-2.418,2.783-2.055,3,2.3-.931,2.833-2.07c0,0,1.532,3.179.239,4.354s-2.452.851-3.238,1.591-1.1,1.518-.523,1.314,1.658-1.683,2.79-1.829,1.943-.361,1.1,1.056-2.944,3.423-4.254,3.017Z" transform="translate(-1302.783 -586.297)" fill="#52a50e"/>
              <path id="Path_24028" data-name="Path 24028" d="M1596.611,717.544s-3.763,8.326-2.1,11.176a6.6,6.6,0,0,1,1.682,2.644l.46.417a9.041,9.041,0,0,1-.832-2.656s-3.333-.4.791-11.582" transform="translate(-1321.199 -594.71)" fill="#52a50e"/>
              <path id="Path_24029" data-name="Path 24029" d="M1606.179,795.577a5.734,5.734,0,0,0,2.957,3.461l.164-.318s-2.247-1.587-2.793-3.029-.327-.114-.327-.114" transform="translate(-1331.186 -658.922)" fill="#52a50e"/>
              <path id="Path_24030" data-name="Path 24030" d="M1510.029,730.614s3.573-2,1.906-4.712a7.093,7.093,0,0,0-2.763-2.094s.762,4.046,0,4.141-.524-4.569-.524-4.569-3.764-1.808-5.241-1.666c0,0,2.335,3.95,1.573,3.855s-3.383-4.093-3.383-4.093-3.859-.714-4.478,1.571.381,3.427.953,3.57,4.24.095,4.145.571-2.573,1.237-3.954.809c0,0,1.525,3.76,3.525,3.57s2.62-1.428,3.859-1.523,2.144.238,1.525.571-2.716.109-3.716.959-1.81,1.373.047,1.754,5.193.143,5.86-1.285Z" transform="translate(-1240.668 -597.881)" fill="#79c80e"/>
              <path id="Path_24031" data-name="Path 24031" d="M1508.361,735.332s10,3.236,11.149,6.854a7.584,7.584,0,0,0,.953,3.474v.714s-1.048-2.427-1.62-2.76c0,0,2.239-3.141-10.482-8.281" transform="translate(-1250.148 -609.453)" fill="#52a50e"/>
              <path id="Path_24032" data-name="Path 24032" d="M1576.737,793.511a6.588,6.588,0,0,1,.663,5.19l-.4-.106s.385-3.138-.422-4.716.156-.367.156-.367" transform="translate(-1306.423 -657.304)" fill="#52a50e"/>
              <path id="Path_24033" data-name="Path 24033" d="M1732.155,729.38s-3.913-1.208-2.85-4.209a7.086,7.086,0,0,1,2.264-2.625s.1,4.115.867,4.049-.445-4.578-.445-4.578,3.3-2.555,4.776-2.724c0,0-1.456,4.351-.73,4.1s2.45-4.71,2.45-4.71,3.624-1.5,4.708.6.345,3.431-.184,3.69-4.126.979-3.934,1.425,2.775.672,4.037-.035c0,0-.7,4-2.7,4.227s-2.862-.849-4.093-.683-2.046.681-1.371.877,2.679-.461,3.835.161,2.058.965.321,1.725-5.049,1.225-6-.032Z" transform="translate(-1433.118 -595.221)" fill="#79c80e"/>
              <path id="Path_24034" data-name="Path 24034" d="M1755.319,730.938s-9.106,5.256-9.466,9.032a7.582,7.582,0,0,1-.2,3.6l.149.7s.517-2.593,1.006-3.038c0,0-2.847-2.6,8.515-10.289" transform="translate(-1446.816 -605.811)" fill="#52a50e"/>
              <path id="Path_24035" data-name="Path 24035" d="M1743.972,802.145a6.586,6.586,0,0,0,.439,5.214l.365-.187s-1.034-2.988-.575-4.7-.229-.326-.229-.326" transform="translate(-1445.139 -664.389)" fill="#52a50e"/>
              <path id="Path_24036" data-name="Path 24036" d="M1613.1,716.913s-4.71-2.635-2.512-6.211a9.355,9.355,0,0,1,3.643-2.76s-1,5.333,0,5.458.691-6.023.691-6.023,4.961-2.384,6.908-2.2c0,0-3.077,5.207-2.072,5.082s4.459-5.4,4.459-5.4,5.087-.941,5.9,2.07-.5,4.517-1.256,4.705-5.589.125-5.464.752,3.391,1.632,5.212,1.067c0,0-2.009,4.956-4.647,4.705s-3.454-1.882-5.087-2.008-2.826.314-2.01.753,3.58.144,4.9,1.264,2.386,1.81-.063,2.312-6.846.188-7.725-1.694Z" transform="translate(-1334.391 -584.088)" fill="#79c80e"/>
              <path id="Path_24037" data-name="Path 24037" d="M1636.706,723.132s-13.188,4.266-14.7,9.034a10,10,0,0,1-1.256,4.58v.941s1.382-3.2,2.135-3.639c0,0-2.952-4.141,13.816-10.916" transform="translate(-1343.301 -599.341)" fill="#52a50e"/>
              <path id="Path_24038" data-name="Path 24038" d="M1614.791,799.825a8.683,8.683,0,0,0-.874,6.841l.523-.14s-.508-4.137.556-6.217-.205-.484-.205-.484" transform="translate(-1337.338 -662.42)" fill="#52a50e"/>
              <path id="Path_24039" data-name="Path 24039" d="M1691.108,732.517s3.377,1.129,4.15-1.529a6.159,6.159,0,0,0-.266-3s-2.162,2.855-2.668,2.421,2.638-3.008,2.638-3.008-1.035-3.478-1.99-4.344c0,0-1.181,3.811-1.565,3.265s.66-4.568.66-4.568-1.8-2.9-3.63-1.962-1.986,2.248-1.743,2.7,2.417,2.782,2.055,3-2.3-.931-2.833-2.07c0,0-1.532,3.179-.239,4.354s2.452.85,3.238,1.591,1.1,1.518.523,1.315-1.658-1.683-2.791-1.829-1.943-.361-1.1,1.056,2.944,3.423,4.254,3.017Z" transform="translate(-1396.679 -596.417)" fill="#52a50e"/>
              <path id="Path_24040" data-name="Path 24040" d="M1707.446,729.754s3.764,8.326,2.1,11.176a6.6,6.6,0,0,0-1.682,2.644l-.46.417a9.041,9.041,0,0,0,.832-2.656s3.333-.4-.791-11.582" transform="translate(-1415.119 -604.83)" fill="#52a50e"/>
              <path id="Path_24041" data-name="Path 24041" d="M1694.986,807.787a5.734,5.734,0,0,1-2.957,3.461l-.164-.318s2.248-1.587,2.793-3.029.327-.114.327-.114" transform="translate(-1402.24 -669.042)" fill="#52a50e"/>
              <path id="Path_24042" data-name="Path 24042" d="M1560.872,793.4h-48.645a3.01,3.01,0,0,1-3.01-3.01V782.62h54.664v7.771a3.01,3.01,0,0,1-3.01,3.01" transform="translate(-1250.858 -648.646)" fill="#008175"/>
              <path id="Path_24043" data-name="Path 24043" d="M1563.3,845.909h-54.966v-.05a1.664,1.664,0,0,1,1.664-1.664h51.638a1.664,1.664,0,0,1,1.664,1.664Z" transform="translate(-1250.128 -699.68)" fill="#00aaa8"/>
              <path id="Path_24044" data-name="Path 24044" d="M1561.728,782.912h-54.8a.4.4,0,1,1,0-.794h54.8a.4.4,0,1,1,0,.794" transform="translate(-1248.632 -648.23)" fill="#00aaa8"/>
              <path id="Path_24045" data-name="Path 24045" d="M1517.656,796.3h0a2.5,2.5,0,0,1-2.505-2.5v-7.045h2.505Z" transform="translate(-1255.776 -652.072)" fill="#00af8d"/>
              <path id="Path_24046" data-name="Path 24046" d="M1621.834,722.974s8.285,14.019,5.579,13.682-12-14.527-12-14.527-13.7-2.533-15.894,5.575,1.352,12.162,3.382,12.668,15.048.337,14.71,2.027-9.131,4.392-14.035,2.871c0,0,5.411,13.344,12.513,12.668s9.3-5.067,13.7-5.4,7.608.844,5.411,2.027-9.638.387-13.19,3.4-6.424,4.873.17,6.225c3.362.689,10.206.574,15.214-.242a106.147,106.147,0,0,0,2.194-24.48,82.423,82.423,0,0,0-1.209-11.6c-5.248-2.163-13.4-5.2-16.537-4.894" transform="translate(-1325.123 -598.199)" fill="#fbae25"/>
              <path id="Path_24047" data-name="Path 24047" d="M1673.068,790.41q.081-1.163.134-2.318c-11.433-9.019-33.323-16.632-33.744-16.769,18.116,7.322,28.539,14.22,33.611,19.087" transform="translate(-1358.803 -639.283)" fill="#f48d1c"/>
              <path id="Path_24048" data-name="Path 24048" d="M1074.331,523.159c.061.1.12.209.182.316,1.258,2.285,2.631,5.266,3.93,8.236.718,1.627,1.416,3.256,2.1,4.755.4.913.787,1.77,1.152,2.555a25.414,25.414,0,0,0,1.862,3.458,8.948,8.948,0,0,0,2.446,1.849,82.873,82.873,0,0,0,7.7,3.9c1.085.5,2.108.95,2.959,1.321.671.3,1.23.54,1.627.711.333.045.87.086,1.486.156a3.639,3.639,0,0,0,.884-.314c.765-.408,3.261.247,3.02.579s-1.64-.076-1.771.112l0,0a5.47,5.47,0,0,1,1.118.425c1.813.969,3.823.939,3.057,1.975a3.693,3.693,0,0,1-4.588,1.2,35.219,35.219,0,0,0-4.1-1.516l-.178-.046-.849-.082c-.394-.04-.619-.076-.619-.076-1.051-.113-2.311-.282-3.682-.46h-.019c-2.354-.353-4.993-.792-7.234-1.341a19.467,19.467,0,0,1-3.908-1.35,2.228,2.228,0,0,1-.274-.163c-2.294-1.378-5.258-5.763-7.679-10.527-.336-.658-.654-1.318-.969-1.959a50.377,50.377,0,0,1-2.711-6.82,19.779,19.779,0,0,1-.789-3.291,8.244,8.244,0,0,1-.1-.939c-.014-.17-.024-.336-.031-.5a8.537,8.537,0,0,1,5.983-2.168" transform="translate(-885.46 -433.592)" fill="#ffb27d"/>
              <path id="Path_24049" data-name="Path 24049" d="M636.326,563.158c-.571.256-1.279.575-1.916.866a11.421,11.421,0,0,0-.705-1.12s-8.279-13.952-8.967-17.214c-.224-1.063-.773-3.188-1.415-5.569-1.329-4.931-3.044-10.966-3.044-10.966l-.564-2.443-1.925-8.331a26.215,26.215,0,0,1,5.844,1.276,2.686,2.686,0,0,1,1.45,1.071c1.584,3.48,3.165,12.263,4.277,18.528.62,3.492,1.093,6.2,1.339,6.778.688,1.6,2.79,10.419,4.586,14.77a11.59,11.59,0,0,0,1.041,2.354" transform="translate(-512.031 -429.64)" fill="#d9935c"/>
              <path id="Path_24050" data-name="Path 24050" d="M714.753,785.394a2.761,2.761,0,0,0,.194,1.376c.292.518,1.409,1.271,1.6.893.255-.505-1.793-2.269-1.793-2.269" transform="translate(-592.383 -650.945)" fill="#d9935c"/>
              <path id="Path_24051" data-name="Path 24051" d="M644.682,1126.933a26.214,26.214,0,0,1-4.017,2.643c-1.161.424-2.739.825-2.738,1.6h5.519s1.5-.7,2.13-.4a5.292,5.292,0,0,0,2.566.412c.7,0,.747-2.348.155-3.166a9.6,9.6,0,0,1-1.027-2.079Z" transform="translate(-528.722 -933.204)" fill="#284663"/>
              <path id="Path_24052" data-name="Path 24052" d="M469.2,528.393c-.252-.776-.442-1.34-.538-1.619-.043-.13-.067-.2-.067-.2a2.465,2.465,0,0,0-.2.232c-.782.979-3.469,5.192-1.45,14.941.3,1.435.7,2.99,1.217,4.671,0,0-7.439-1.311-9.539-2.709-.088-.219-1.182-3.453-2.013-3.891a5.629,5.629,0,0,0-2.713-.743,3.831,3.831,0,0,0,0,3.89,12.756,12.756,0,0,0,3.588,2.491s8.314,6.644,14.09,6.469c4.826-.146-.492-17.751-2.371-23.534" transform="translate(-375.746 -436.433)" fill="#d9935c"/>
              <path id="Path_24053" data-name="Path 24053" d="M582.4,400.126c-3.244-1.991,1.467-6.422,0-12.843s-6.781-5.21-10.7-7.27a4.561,4.561,0,0,0-5.763.955c-3.532-.259-7.654,4.688-7.654,4.688l6.836,9.052-.259,10.992s5.887,8.754,11.576,8.512,11.735-10.541,5.962-14.085" transform="translate(-462.71 -314.436)" fill="#4a2009"/>
              <path id="Path_24054" data-name="Path 24054" d="M538.545,791.653c-2.635,7.422-4.3,9.959-4.3,9.959l-3.445.643a79.739,79.739,0,0,0,1.65-11.667,57.741,57.741,0,0,0-1.181-18.552c-5.47-22.119-2.777-37.585-2.777-37.585l13.954,2.987.65.139c-.556,6.479-1.224,15.285-1.73,22.172-.458,6.193-.784,10.835-.784,10.835,2.158,6.094.39,14.239-2.036,21.069" transform="translate(-437.471 -608.722)" fill="#284663"/>
              <path id="Path_24055" data-name="Path 24055" d="M591.352,773.875a71.937,71.937,0,0,1,1.538,16.307,1.625,1.625,0,0,1-1.108.9c-1.2.358-1.48.081-1.48.081a56.4,56.4,0,0,0-5.056-13.532c-3.639-6.61-6.814-12.395-8.005-14.63-4.727-8.867-4.925-41.458-4.925-41.458l14.371-.712c1.445,2.427,2.075,6.408,2.225,10.935.378,11.424-2.31,26.321-2.712,28.475a.01.01,0,0,1,0,.005.752.752,0,0,0,.095.481c2.859,5.655,3.852,7.511,5.06,13.148" transform="translate(-474.342 -597.433)" fill="#2c3f4e"/>
              <path id="Path_24056" data-name="Path 24056" d="M534.285,521.941c3.613-.042,13.445-.229,15.808-1.016a5.425,5.425,0,0,0,3.578-4.12c0-.066-.238-1.4-.616-3.47a8.863,8.863,0,0,1-1.155-3.548,5.753,5.753,0,0,1,.213-1.594c.313-1.216.961-2.813,1.92-5.461a14.644,14.644,0,0,0,.713-2.855c.963-6.473-1.486-14.3-4.436-16.126a6.2,6.2,0,0,0-1.58-.284c-.762-.2-2.054-2.953-2.037-7.384l-.344.067-5.769,1.141s.131,1.814.135,3.522c0,1.423-.082,2.773-.406,2.944-.415.036-.661.062-.661.062l-.016.022c-1.1.071-4.015.331-4.4,1.118l1.066,3.235.309.942a24.722,24.722,0,0,0-1.954,5.829,15.448,15.448,0,0,0-.218,1.737,12.274,12.274,0,0,0-.012,1.416c.231,5.28,3.557,8.471-.02,19.892a5.88,5.88,0,0,0-.115,3.931" transform="translate(-442.587 -394.584)" fill="#d9935c"/>
              <path id="Path_24057" data-name="Path 24057" d="M534.285,578.9c1.8,2.437,12.415,2.436,14.778,1.649,2.911-.97,4.609-6.482,4.609-6.785,0-.066-.238-1.4-.616-3.47-.258-1.425-.584-3.2-.943-5.142-1.573-8.536-3.769-20.346-3.769-20.346s-4.776,4.131-7.963,3.271a5.887,5.887,0,0,1-4.051-3.03s-.011.036-.033.105a49.808,49.808,0,0,0-1.6,6.378c-.011.091-.023.222-.04.392-.055.615-.135,1.723-.231,3.153.231,5.28,3.557,8.471-.02,19.892a5.88,5.88,0,0,0-.115,3.931" transform="translate(-442.587 -451.541)" fill="#fff"/>
              <path id="Path_24058" data-name="Path 24058" d="M572.42,477.613s.132,1.814.135,3.523c3.229-.091,4.935-3.033,5.635-4.664Z" transform="translate(-474.429 -394.906)" fill="#cb7d45"/>
              <path id="Path_24059" data-name="Path 24059" d="M561.194,415.472a16.949,16.949,0,0,0,2.1-4.954c.29-1.63-.541-7.674-6.621-6.8a8.265,8.265,0,0,0-3.425,1.293c-1.32.891-3.225,2.813-1.095,8.087l.553,1.781Z" transform="translate(-456.837 -334.533)" fill="#4a2009"/>
              <path id="Path_24060" data-name="Path 24060" d="M553.8,430.251s7.639.126,7.644-4.628.995-7.939-3.882-8.22-5.826,1.531-6.214,3.117.466,9.574,2.453,9.73" transform="translate(-456.891 -345.926)" fill="#d9935c"/>
              <path id="Path_24061" data-name="Path 24061" d="M556.859,419.712c3.21.825,4.6-.035,4.6-.035a54.212,54.212,0,0,1-1.341-6.279s-4.914-1.719-8.5-.182c-.5-.43-1.392-.744-2.573.686-1.771,2.144-.2,5.935-.2,5.935.727.085.9-2.407,1.279-3.618A5.974,5.974,0,0,1,551.8,414c.15.55,1.687,5.888,5.527,7.661a17.825,17.825,0,0,1-3.067-3.742,5.459,5.459,0,0,0,2.6,1.792" transform="translate(-454.362 -341.949)" fill="#4a2009"/>
              <path id="Path_24062" data-name="Path 24062" d="M587.366,575.253c.643,5.6.968,19.41-.844,24.615,5.766-.592,16.2-4.307,19.28-7.482a112.574,112.574,0,0,1-3.688-19.592c-.1-1.432-.247-3.19-.438-5.183-.773-8.1-2.216-20.1-3.455-30.006-1.219-9.745-2.243-17.468-2.243-17.468l-2.8-.505s-4.015,3.279-4.665,14.425-2.1,32.853-1.146,41.2" transform="translate(-486.117 -430.678)" fill="#008175"/>
              <path id="Path_24063" data-name="Path 24063" d="M515.34,521.27c.024-.015-3.108.059-4.214.907-1.075.824-3.968,6.3-3.546,14.5-.315,1.35-.611,2.735-.877,4.129a4.762,4.762,0,0,1-1.885-.094s-.592,5.592.617,9.545c-.039.6-.068,1.185-.085,1.76-.364,12.116,4.107,29.157,4.107,29.157s1.522-13.666,2.169-28.733c.443-10.317-1.092-16.721.682-22.128.831-2.533,3.032-9.04,3.032-9.04" transform="translate(-418.279 -432.034)" fill="#008175"/>
              <path id="Path_24064" data-name="Path 24064" d="M511.616,1126.987s-3.166,2.847-4.327,3.271-2.739.825-2.738,1.605h5.519s1.5-.7,2.13-.4a5.293,5.293,0,0,0,2.566.412c.7,0,.747-2.348.155-3.166a2.007,2.007,0,0,1,.031-1.938Z" transform="translate(-418.178 -933.886)" fill="#284663"/>
              <path id="Path_24065" data-name="Path 24065" d="M710.237,790.632c2.583-.325,4.241,1.823,5.188,3.721a18.278,18.278,0,0,1,1.469,4.387c.026.145-.03.282-.125.306s-.195-.074-.221-.22a17.855,17.855,0,0,0-1.41-4.2c-1.331-2.66-3.045-3.812-5.095-3.423a3.622,3.622,0,0,0-2.862,2.464c-.949,2.566,0,6.224.013,6.261a.285.285,0,0,1-.1.33c-.092.041-.2-.039-.234-.18-.042-.159-1.025-3.927,0-6.7a3.944,3.944,0,0,1,3.1-2.7q.139-.027.275-.043" transform="translate(-585.47 -655.259)" fill="#dcd1b8"/>
              <path id="Path_24066" data-name="Path 24066" d="M678.087,828.112l-11.527.555.831,33.485,12.308-.592Z" transform="translate(-552.453 -686.35)" fill="#fff"/>
              <path id="Path_24067" data-name="Path 24067" d="M697.535,796.584l-3.092.149a16.719,16.719,0,0,0-.95-2.379c-.946-1.9-2.605-4.047-5.188-3.721q-.136.017-.275.043a3.943,3.943,0,0,0-3.1,2.7,9.66,9.66,0,0,0-.438,3.833l-5.449.262,2.726,33.394,18.99-.913Zm-12.286-2.915a3.621,3.621,0,0,1,2.862-2.464c2.05-.388,3.764.763,5.094,3.423a15.692,15.692,0,0,1,.86,2.123l-9.213.443a8.937,8.937,0,0,1,.4-3.526" transform="translate(-562.798 -655.26)" fill="#fff"/>
              <path id="Path_24068" data-name="Path 24068" d="M674.871,830.751l-.861.073,1.611,33.416,1.977-.1Z" transform="translate(-558.628 -688.537)" fill="#dcd1b8"/>
              <path id="Path_24069" data-name="Path 24069" d="M462.1,581.743l-2.436-7.308a.227.227,0,0,0-.288-.144l-3.232,1.075a.227.227,0,0,0-.144.287l2.436,7.308a.227.227,0,0,0,.288.144l3.232-1.075a.227.227,0,0,0,.144-.287" transform="translate(-377.928 -475.97)" fill="#2c3f4e"/>
              <path id="Path_24070" data-name="Path 24070" d="M458.191,583.157l-2.325-6.975a.4.4,0,0,0-.51-.255l-2.9.964a.4.4,0,0,0-.255.509l2.325,6.975a.4.4,0,0,0,.51.255l2.9-.964a.4.4,0,0,0,.255-.51" transform="translate(-374.774 -477.319)" fill="#1c468a"/>
              <path id="Path_24071" data-name="Path 24071" d="M455.334,596.974s.656-1.355,1.859-.809.678,2.6-.022,3.322a7.078,7.078,0,0,0-.9,1.049Z" transform="translate(-377.387 -494.002)" fill="#d9935c"/>
              <path id="Path_24072" data-name="Path 24072" d="M639.1,649.251c-.773-8.1-2.216-20.1-3.455-30.006a6.9,6.9,0,0,0-2.09-1.111s-6.826,19.756,5.545,31.117" transform="translate(-523.539 -512.318)" fill="#0b6d61"/>
              <path id="Path_24073" data-name="Path 24073" d="M637.533,522.579a7.534,7.534,0,0,1,4.134,2.593c1.8,2.62,4.73,22.264,6.277,25.626s2.274,4.816,2.274,4.816a8.515,8.515,0,0,1-4.367,8.289s-6.277-11.379-7.1-13.014-3.448-24.814-1.223-28.31" transform="translate(-527.671 -433.12)" fill="#008175"/>
              <path id="Path_24074" data-name="Path 24074" d="M716.678,779.9s2.349,1.636,2.534,2.2-.68,2.094-1.416,2.065-.543-1.2-.962-1.581-2.332-.783-2.073-1.822,1.917-.866,1.917-.866" transform="translate(-592.384 -646.383)" fill="#d9935c"/>
              <path id="Path_24076" data-name="Path 24076" d="M1354.277,1146.869h-83.531c-.281,0-.511.307-.511.681s.23.681.511.681h85.018Z" transform="translate(-1052.787 -950.54)" fill="#65c99e"/>
            </g>
          </g>
          <g id="Group_21979" data-name="Group 21979" transform="translate(28.45 4.905)">
            <g id="Group_21978" data-name="Group 21978" clip-path="url(#clip-path)">
              <path id="Path_24077" data-name="Path 24077" d="M860.773,58.121v23.8a1.093,1.093,0,0,0,.928,1.2h.134a1.093,1.093,0,0,0,.927-1.2V59.177q-.978-.538-1.989-1.056" transform="translate(-741.869 -53.074)" fill="#e6ac8b"/>
              <path id="Path_24078" data-name="Path 24078" d="M803.026,164.177c7.25,0,13.128,8.04,13.128,17.958H789.9c0-9.918,5.877-17.958,13.128-17.958" transform="translate(-683.127 -140.975)" fill="#ffe4bb"/>
              <path id="Path_24079" data-name="Path 24079" d="M860.474,164.668a4.234,4.234,0,0,1,1.153-.162c4.724,0,8.553,8.015,8.553,17.9h-2.306c0-9.068-3.222-16.561-7.4-17.739" transform="translate(-741.622 -141.247)" fill="#ffeed7"/>
              <path id="Path_24080" data-name="Path 24080" d="M584.811,0v33.75a1.092,1.092,0,0,1-.927,1.2h-.134a1.093,1.093,0,0,1-.928-1.2V.018q1-.016,1.989-.015" transform="translate(-511.5 -4.905)" fill="#e6ac8b"/>
              <path id="Path_24081" data-name="Path 24081" d="M525.075,164.177c7.25,0,13.127,8.04,13.127,17.958H511.947c0-9.918,5.877-17.958,13.128-17.958" transform="translate(-452.758 -140.975)" fill="#ffe4bb"/>
              <path id="Path_24082" data-name="Path 24082" d="M582.523,164.668a4.235,4.235,0,0,1,1.153-.162c4.724,0,8.553,8.015,8.553,17.9h-2.306c0-9.068-3.222-16.561-7.4-17.739" transform="translate(-511.252 -141.247)" fill="#ffeed7"/>
              <path id="Path_24083" data-name="Path 24083" d="M308.754,83.169V101.41a1.093,1.093,0,0,0,.927,1.2h.135a1.093,1.093,0,0,0,.927-1.2V81.634q-.97.726-1.989,1.535" transform="translate(-284.349 -72.562)" fill="#e6ac8b"/>
              <path id="Path_24084" data-name="Path 24084" d="M251.006,164.177c7.25,0,13.128,8.04,13.128,17.958H237.879c0-9.918,5.877-17.958,13.127-17.958" transform="translate(-225.607 -140.975)" fill="#ffe4bb"/>
              <path id="Path_24085" data-name="Path 24085" d="M308.454,164.668a4.236,4.236,0,0,1,1.153-.162c4.724,0,8.553,8.015,8.553,17.9h-2.306c0-9.068-3.222-16.561-7.4-17.739" transform="translate(-284.1 -141.247)" fill="#ffeed7"/>
            </g>
          </g>
        </g>
      </g>
    </g>
    <path id="Intersection_1" data-name="Intersection 1" d="M9412.027-385.629c.092-.17.187-.342.28-.51H9449.9a88.866,88.866,0,0,0-5.939,17.365c-4.26,20.017-37.032,36.909-37.032,36.909S9398.024-359.79,9412.027-385.629Zm195.548,20.8a32.417,32.417,0,0,1,5.315-15.064,67.272,67.272,0,0,0-9.773,8.684c-9.566,10.657-35.036,10.985-35.036,10.985a55.7,55.7,0,0,1,15.906-25.912h42.348a4.986,4.986,0,0,1,3.739,1.681c-.667,6.054-1.086,14.349.344,21.339,2.6,12.716-12.17,30.839-12.17,30.839S9605.989-346.264,9607.575-364.833Zm-577.39-21.306h37.942a80.192,80.192,0,0,0-3.991,12.77c-4.26,20.017-37.035,36.907-37.035,36.907S9019.116-361.529,9030.186-386.139Zm50.11,14.075a37.641,37.641,0,0,1-8.772-14.075h33.666c8.926,10.492,12.419,29.274,12.419,29.274h-.114C9115.783-356.864,9095.095-357.176,9080.3-372.064Zm397.032,2.171a39.761,39.761,0,0,1-17.771-16.246h44.062a89.77,89.77,0,0,1,14.116,17.025,58.615,58.615,0,0,1-19.918,3.422A50,50,0,0,1,9477.328-369.893Zm-229.749-8.8a26.3,26.3,0,0,1-4.7-7.446h24.069c5.041,7.895,6.606,19.6,6.606,19.6S9258-367.084,9247.579-378.693Zm-296.316,2.147a19.454,19.454,0,0,1-4.595-9.593H8960.5q.366.246.736.474c6.522,4.025,8.351,17.7,8.351,17.7S8958.614-368.358,8951.263-376.546Zm-9.927-4.593a5,5,0,0,1,4.657-4.988,31.016,31.016,0,0,0-.206,5.687c.251,3.749-2.046,7.928-4.451,11.213Zm409.188,1.924a18.861,18.861,0,0,1-3.926-6.924h16.372c4.529,5.391,5.881,15.5,5.881,15.5S9357.876-371.024,9350.524-379.215Zm-23.18,1.617-1.709-1.342a48.67,48.67,0,0,0,6.274-7.2h12.477a18.452,18.452,0,0,1-2.157,3.1c-4.216,4.894-10.416,5.517-13.3,5.517A14.51,14.51,0,0,1,9327.345-377.6Zm-150.912-1.777-1.712-1.344a49.9,49.9,0,0,0,4.96-5.42h12.668c-.317.446-.662.886-1.033,1.318-4.219,4.9-10.42,5.519-13.3,5.519A14.5,14.5,0,0,1,9176.433-379.375Z" transform="translate(-8681.336 7857.141)" fill="#72d3b3"/>
  </g>
</svg>
