<svg id="gift" xmlns="http://www.w3.org/2000/svg" width="27.238" height="27.238" viewBox="0 0 27.238 27.238">
  <g id="Group_24736" data-name="Group 24736">
    <path id="Path_42554" data-name="Path 42554" d="M24.844,6.384H21.6A3.988,3.988,0,0,0,18.407,0a3.581,3.581,0,0,0-3.075,1.494,15.493,15.493,0,0,0-1.713,3.548,15.491,15.491,0,0,0-1.713-3.548A3.581,3.581,0,0,0,8.831,0a3.988,3.988,0,0,0-3.19,6.384H2.394A2.4,2.4,0,0,0,0,8.778v1.6a2.4,2.4,0,0,0,1.6,2.257V24.844A2.4,2.4,0,0,0,3.99,27.238H23.248a2.4,2.4,0,0,0,2.394-2.394V12.631a2.4,2.4,0,0,0,1.6-2.257v-1.6A2.4,2.4,0,0,0,24.844,6.384Zm-9.76-.705c1.222-3.1,1.687-4.083,3.323-4.083a2.394,2.394,0,0,1,0,4.788H14.8C14.9,6.138,15,5.9,15.084,5.679ZM8.831,1.6c1.636,0,2.1.981,3.323,4.083.088.224.181.46.279.705h-3.6a2.394,2.394,0,1,1,0-4.788Zm1.6,24.046H3.99a.8.8,0,0,1-.8-.8V12.768h7.235Zm0-14.47H2.394a.8.8,0,0,1-.8-.8v-1.6a.8.8,0,0,1,.8-.8h8.033Zm4.788,14.47H12.023V7.98h3.192Zm8.831-.8a.8.8,0,0,1-.8.8H16.811V12.768h7.235Zm1.6-14.47a.8.8,0,0,1-.8.8H16.811V7.98h8.033a.8.8,0,0,1,.8.8Z" transform="translate(0 0)" fill="#8ebf2d"/>
  </g>
</svg>
