<svg xmlns="http://www.w3.org/2000/svg" width="17.485" height="17.475" viewBox="0 0 17.485 17.475">
  <g id="home-8" transform="translate(0 -0.16)">
    <path id="Path_3" data-name="Path 3" d="M194.186,319.841A2.186,2.186,0,0,0,192,322.027V326.4h4.371v-4.371A2.186,2.186,0,0,0,194.186,319.841Z" transform="translate(-185.443 -308.764)" fill="#fff"/>
    <g id="Group_24" data-name="Group 24" transform="translate(0 0.16)">
      <path id="Path_4" data-name="Path 4" d="M12.386,13.263v4.371H15.3a2.186,2.186,0,0,0,2.186-2.186V8.8a1.457,1.457,0,0,0-.41-1.014L10.884,1.1A2.914,2.914,0,0,0,6.766.934q-.084.078-.162.162L.423,7.787A1.457,1.457,0,0,0,0,8.814v6.634a2.186,2.186,0,0,0,2.186,2.186H5.1V13.263a3.643,3.643,0,1,1,7.286,0Z" transform="translate(0 -0.16)" fill="#fff"/>
      <path id="Path_5" data-name="Path 5" d="M194.186,319.841A2.186,2.186,0,0,0,192,322.027V326.4h4.371v-4.371A2.186,2.186,0,0,0,194.186,319.841Z" transform="translate(-185.443 -308.923)" fill="#fff"/>
    </g>
  </g>
</svg>
