<svg xmlns="http://www.w3.org/2000/svg" width="59.262" height="59.262" viewBox="0 0 59.262 59.262">
  <path id="briefcase-3" d="M46.915,9.877H44.2A12.368,12.368,0,0,0,32.1,0H27.162a12.368,12.368,0,0,0-12.1,9.877H12.346A12.361,12.361,0,0,0,0,22.223V46.915A12.361,12.361,0,0,0,12.346,59.262H46.915A12.361,12.361,0,0,0,59.262,46.915V22.223A12.361,12.361,0,0,0,46.915,9.877ZM27.162,4.938H32.1a7.408,7.408,0,0,1,6.953,4.938H20.208A7.408,7.408,0,0,1,27.162,4.938ZM12.346,14.815H46.915a7.408,7.408,0,0,1,7.408,7.408v7.408H4.938V22.223a7.408,7.408,0,0,1,7.408-7.408ZM46.915,54.323H12.346a7.408,7.408,0,0,1-7.408-7.408V34.569H27.162v2.469a2.469,2.469,0,1,0,4.938,0V34.569H54.323V46.915A7.408,7.408,0,0,1,46.915,54.323Z" fill="#fff"/>
</svg>
