<svg xmlns="http://www.w3.org/2000/svg" width="68.814" height="12.545" viewBox="0 0 68.814 12.545">
  <g id="Samsung_Pay_Logo" transform="translate(0 0)">
    <g id="Group_35" data-name="Group 35" transform="translate(17.433 3.37)">
      <g id="Group_32" data-name="Group 32" transform="translate(33.654)">
        <g id="Group_31" data-name="Group 31" transform="translate(0 0.015)">
          <g id="Group_30" data-name="Group 30">
            <g id="Group_29" data-name="Group 29">
              <path id="Path_59" data-name="Path 59" d="M343.2,30.155V22.861h1.176V23.4a1.423,1.423,0,0,1,.729-.536,2.275,2.275,0,0,1,.774-.119,2.6,2.6,0,0,1,1.905.8,2.858,2.858,0,0,1,.015,3.915,2.613,2.613,0,0,1-.863.61,2.513,2.513,0,0,1-1.012.208,2.481,2.481,0,0,1-.819-.134,1.551,1.551,0,0,1-.744-.506v2.53H343.2v-.015Zm2.635-6.385a1.449,1.449,0,0,0-1.1.447,1.8,1.8,0,0,0-.432,1.265,1.949,1.949,0,0,0,.417,1.31,1.581,1.581,0,0,0,2.218-.015,1.744,1.744,0,0,0,.462-1.235,1.817,1.817,0,0,0-.462-1.295A1.458,1.458,0,0,0,345.834,23.769Z" transform="translate(-343.199 -22.742)" fill="#211f1f"/>
              <path id="Path_60" data-name="Path 60" d="M426.08,30.835l.982-2.307L424.8,23.542h1.235l1.607,3.751,1.5-3.751h1.236L427.3,30.835Z" transform="translate(-412.654 -23.423)" fill="#211f1f"/>
            </g>
          </g>
        </g>
        <path id="Path_61" data-name="Path 61" d="M388.112,28.09v-.551a1.456,1.456,0,0,1-.744.506,2.552,2.552,0,0,1-.819.134,2.51,2.51,0,0,1-1.012-.208,2.614,2.614,0,0,1-.863-.61,2.766,2.766,0,0,1-.566-.893,2.832,2.832,0,0,1-.208-1.042,2.753,2.753,0,0,1,.789-1.98,2.626,2.626,0,0,1,1.905-.8,2.711,2.711,0,0,1,.774.119,1.423,1.423,0,0,1,.729.536v-.536h1.176v5.314h-1.161v.015Zm-2.575-3.945a1.841,1.841,0,0,0-.462,1.295,1.745,1.745,0,0,0,.462,1.235,1.492,1.492,0,0,0,1.087.461,1.46,1.46,0,0,0,1.131-.447,1.851,1.851,0,0,0,.417-1.31,1.821,1.821,0,0,0-.432-1.265,1.493,1.493,0,0,0-1.1-.447A1.546,1.546,0,0,0,385.537,24.145Z" transform="translate(-377.842 -22.642)" fill="#211f1f"/>
      </g>
      <g id="Group_34" data-name="Group 34" transform="translate(0 0.715)">
        <path id="Path_62" data-name="Path 62" d="M276.624,32.07l-.06-3.528h1.116v4.45h-1.608l-1.1-3.662h-.03l.06,3.662h-1.1v-4.45h1.667l1.042,3.528Z" transform="translate(-250.561 -28.379)" fill="#211f1f"/>
        <path id="Path_63" data-name="Path 63" d="M145.731,28.944l-.625,4.093H143.9l.834-4.5h1.995l.834,4.5h-1.206l-.61-4.093Z" transform="translate(-139.911 -28.379)" fill="#211f1f"/>
        <path id="Path_64" data-name="Path 64" d="M177.015,31.98l.566-3.438h1.831l.1,4.5h-1.131l-.03-4.049h-.03l-.744,4.049h-1.146l-.744-4.049h-.03l-.03,4.049H174.5l.1-4.5h1.846L177,31.98Z" transform="translate(-165.956 -28.379)" fill="#211f1f"/>
        <path id="Path_65" data-name="Path 65" d="M245.777,32.353a.394.394,0,0,0,.432-.328.664.664,0,0,0,.015-.178v-3.3h1.146v3.23c0,.089-.015.253-.015.3-.074.834-.744,1.116-1.578,1.116s-1.488-.268-1.563-1.116c0-.045-.015-.208-.015-.3v-3.23h1.146v3.334a.726.726,0,0,0,.015.179.381.381,0,0,0,.417.3" transform="translate(-225.281 -28.379)" fill="#211f1f"/>
        <g id="Group_33" data-name="Group 33">
          <path id="Path_66" data-name="Path 66" d="M119.184,30.823a.624.624,0,0,1,.015.327c-.045.149-.134.3-.447.3a.4.4,0,0,1-.447-.4v-.432H117.1v.342c0,1.012.789,1.31,1.637,1.31.819,0,1.488-.283,1.593-1.027a2.3,2.3,0,0,0,0-.744c-.193-.938-1.905-1.221-2.024-1.756a.637.637,0,0,1,0-.238.369.369,0,0,1,.417-.3.379.379,0,0,1,.417.4v.283h1.116v-.313c0-.982-.878-1.131-1.518-1.131-.8,0-1.459.268-1.578,1a1.7,1.7,0,0,0,.015.61c.179.937,1.786,1.191,2.009,1.771" transform="translate(-117.1 -27.444)" fill="#211f1f"/>
          <path id="Path_67" data-name="Path 67" d="M217.654,31.162a.619.619,0,0,1,.015.327c-.03.149-.134.3-.432.3a.4.4,0,0,1-.447-.4v-.432H215.6V31.3c0,1,.789,1.3,1.622,1.3.8,0,1.474-.268,1.578-1.012a2.172,2.172,0,0,0,0-.729c-.193-.938-1.875-1.206-1.994-1.726a.428.428,0,0,1,0-.238.362.362,0,0,1,.4-.3.379.379,0,0,1,.417.4v.283h1.116v-.313c0-.968-.878-1.116-1.5-1.116-.789,0-1.444.253-1.563.982a1.349,1.349,0,0,0,.015.6c.164.908,1.741,1.161,1.965,1.741" transform="translate(-200.939 -27.784)" fill="#211f1f"/>
          <path id="Path_68" data-name="Path 68" d="M308.792,31.542a.431.431,0,0,0,.461-.327.617.617,0,0,0,.015-.164V30.4h-.461v-.655H310.4v1.206a2.429,2.429,0,0,1-.015.3c-.075.819-.789,1.116-1.593,1.116s-1.5-.3-1.578-1.116a2.429,2.429,0,0,1-.015-.3v-1.89c0-.074.015-.223.015-.3.1-.848.774-1.116,1.578-1.116s1.5.268,1.578,1.116c.015.134.015.3.015.3V29.2h-1.131v-.253a1.1,1.1,0,0,0-.015-.179.4.4,0,0,0-.446-.327.424.424,0,0,0-.447.327.906.906,0,0,0-.015.208v2.054a.552.552,0,0,0,.015.164c0,.149.119.342.447.342" transform="translate(-278.904 -27.613)" fill="#211f1f"/>
        </g>
      </g>
    </g>
    <path id="Path_69" data-name="Path 69" d="M12.427,4.4a5.285,5.285,0,0,0-1.295-2.992h0A5.285,5.285,0,0,0,8.141.11a10.863,10.863,0,0,0-1.875-.1A13.106,13.106,0,0,0,4.39.11,5.285,5.285,0,0,0,1.4,1.405h0A5.285,5.285,0,0,0,.1,4.4,12.109,12.109,0,0,0-.016,6.272a13.106,13.106,0,0,0,.1,1.875A5.286,5.286,0,0,0,1.383,11.14h0a5.285,5.285,0,0,0,2.992,1.295,10.874,10.874,0,0,0,1.875.1,13.123,13.123,0,0,0,1.875-.1,5.285,5.285,0,0,0,2.992-1.295h0a5.285,5.285,0,0,0,1.295-2.992,10.863,10.863,0,0,0,.1-1.875A9.851,9.851,0,0,0,12.427,4.4" transform="translate(0.019 0)" fill="#1e4bc6"/>
    <path id="Path_70" data-name="Path 70" d="M15.5,29.842h1.131a1.234,1.234,0,0,1,.476.089,1.2,1.2,0,0,1,.625.625,1.237,1.237,0,0,1,0,.923,1.1,1.1,0,0,1-.253.372,1.265,1.265,0,0,1-.372.253,1.182,1.182,0,0,1-.476.09h-.506v.938h-.61V29.842Zm.61.566v1.206h.476a.7.7,0,0,0,.253-.045.566.566,0,0,0,.194-.134.525.525,0,0,0,.119-.194.657.657,0,0,0,0-.476.844.844,0,0,0-.119-.193.566.566,0,0,0-.194-.134.7.7,0,0,0-.253-.045H16.11Z" transform="translate(-13.19 -25.4)" fill="#fff"/>
    <path id="Path_71" data-name="Path 71" d="M33.11,36.791a1.345,1.345,0,0,1-.476-.089,1.492,1.492,0,0,1-.417-.253,1.418,1.418,0,0,1-.3-.417A1.489,1.489,0,0,1,31.9,34.9a1.415,1.415,0,0,1,.3-.417,1.207,1.207,0,0,1,.417-.253,1.368,1.368,0,0,1,.491-.089,1.182,1.182,0,0,1,.476.089,1.1,1.1,0,0,1,.372.253v-.342h.61v2.649h-.61v-.372a1.028,1.028,0,0,1-.372.283,1.228,1.228,0,0,1-.476.089m.1-.551a.69.69,0,0,0,.313-.06.921.921,0,0,0,.253-.164.851.851,0,0,0,.164-.238.774.774,0,0,0,0-.6.68.68,0,0,0-.164-.238.743.743,0,0,0-.253-.164.6.6,0,0,0-.313-.074.777.777,0,0,0-.313.06.743.743,0,0,0-.253.164.623.623,0,0,0-.164.238.774.774,0,0,0,0,.6,1.462,1.462,0,0,0,.164.253.924.924,0,0,0,.253.164.977.977,0,0,0,.313.06" transform="translate(-27.064 -29.06)" fill="#fff"/>
    <path id="Path_72" data-name="Path 72" d="M52.872,36.758,51.8,34.242h.64l.744,1.8.685-1.8h.64l-1.563,3.84h-.625Z" transform="translate(-44.087 -29.145)" fill="#fff"/>
  </g>
</svg>
