<svg id="logo" xmlns="http://www.w3.org/2000/svg" width="49.1" height="14.496" viewBox="0 0 49.1 14.496">
  <path id="Path_42500" data-name="Path 42500" d="M4.782,14.491a5.043,5.043,0,0,0,3.532-1.269,3.252,3.252,0,0,0,.975-2.368,3.091,3.091,0,0,0-.9-2.213A4.673,4.673,0,0,0,5.9,7.429L4.153,7.09c-.706-.141-1.13-.5-1.13-.994,0-.656.636-1.107,1.653-1.107a2.157,2.157,0,0,1,1.54.564,1.648,1.648,0,0,1,.424.923l2.515-.564a3.056,3.056,0,0,0-.932-1.875A5.015,5.015,0,0,0,4.69,2.714a4.881,4.881,0,0,0-3.327,1.17A3.288,3.288,0,0,0,.3,6.322a2.816,2.816,0,0,0,.812,2.072A4.892,4.892,0,0,0,3.482,9.6l1.716.409c.862.2,1.243.515,1.243,1.078,0,.7-.629,1.107-1.667,1.107a2.348,2.348,0,0,1-1.745-.655A1.556,1.556,0,0,1,2.578,10.5L0,11.065a3.211,3.211,0,0,0,.975,1.988,5.22,5.22,0,0,0,3.8,1.41Zm19.065-.028A5.361,5.361,0,0,0,27.69,12.99a4.932,4.932,0,0,0,1.363-2.276L26.4,9.832a2.558,2.558,0,0,1-.706,1.177,2.6,2.6,0,0,1-1.844.7,2.828,2.828,0,0,1-2.013-.811,3.294,3.294,0,0,1-.812-2.3,3.259,3.259,0,0,1,.834-2.326,2.829,2.829,0,0,1,1.992-.789,2.426,2.426,0,0,1,1.787.7,2.868,2.868,0,0,1,.706,1.2l2.691-.9A5.128,5.128,0,0,0,27.774,4.25a5.516,5.516,0,0,0-3.963-1.508,5.743,5.743,0,0,0-4.09,1.642,6.157,6.157,0,0,0,.042,8.458,5.842,5.842,0,0,0,4.09,1.649Zm-9.126.028a3.828,3.828,0,0,0,2.373-.7v-2.41a2.59,2.59,0,0,1-1.512.451,1.262,1.262,0,0,1-1.469-1.487V0H11.139V3.052h5.969V5.934H11.139v5.124a3.442,3.442,0,0,0,.883,2.46,3.721,3.721,0,0,0,2.712.973" fill="#4f008c"/>
  <path id="Path_42501" data-name="Path 42501" d="M68.343,14V6.355H69.63v.6A2.071,2.071,0,0,1,71.318,6.2a2.626,2.626,0,0,1,2.546,2.891,2.637,2.637,0,0,1-2.546,2.926,2.071,2.071,0,0,1-1.688-.772v2.78ZM69.63,8.44V9.83a1.6,1.6,0,0,0,1.466.987c.858,0,1.425-.646,1.425-1.689S71.954,7.453,71.1,7.453a1.556,1.556,0,0,0-1.466.98" transform="translate(-36.385 -3.301)" fill="#03bb86"/>
  <path id="Path_42502" data-name="Path 42502" d="M82.013,10.034A1.52,1.52,0,0,1,82.452,8.9a1.754,1.754,0,0,1,1.168-.518l2.307-.272V7.838a.4.4,0,0,0-.016-.193.423.423,0,0,0-.106-.167.464.464,0,0,0-.174-.106.492.492,0,0,0-.207-.024H82.5V6.2h2.921c1.168,0,1.818.53,1.818,1.482v3.881H85.927v-.68a2.206,2.206,0,0,1-.843.63,2.372,2.372,0,0,1-1.062.186,1.946,1.946,0,0,1-.752-.074,1.854,1.854,0,0,1-.655-.353,1.7,1.7,0,0,1-.444-.57,1.594,1.594,0,0,1-.156-.689Zm2.344.659a1.8,1.8,0,0,0,.927-.234,1.63,1.63,0,0,0,.643-.664v-.68l-1.76.231c-.489.061-.73.3-.73.68s.343.68.949.68" transform="translate(-43.662 -3.301)" fill="#03bb86"/>
  <path id="Path_42503" data-name="Path 42503" d="M95.281,12.815h.861a.49.49,0,0,0,.374-.119.615.615,0,0,0,.2-.373l.158-.492L95.059,6.2h1.229l1.127,3.917L98.5,6.2h1.21l-1.995,6.465c-.272.892-.633,1.363-1.507,1.363h-.925Z" transform="translate(-50.608 -3.301)" fill="#03bb86"/>
</svg>
