<svg id="layer1" xmlns="http://www.w3.org/2000/svg" width="53.112" height="18.53" viewBox="0 0 53.112 18.53">
  <g id="g3187" transform="translate(0 0)">
    <g id="g2666" transform="translate(12.314 0)">
      <path id="path2668" d="M.014.018C.08,1.5,1.36,7.152,1.36,7.152c.47,1.145.875,0,.875,0A6.825,6.825,0,0,0,.619-.183c-.808-.472-.6.2-.6.2M18.387-.789s1.549,1.077,0,1.278A19.749,19.749,0,0,0,8.292,5.2S1.83,10.853-.592,17.045c0,0-.808,0-.537-1.211S.754,9.305,7.954,2.779c0,0,6.934-6.327,10.433-3.567" transform="translate(1.185 1.486)" fill="#ff4600"/>
    </g>
    <g id="g2670" transform="translate(0 5.235)">
      <path id="path2672" d="M.029.053a3.69,3.69,0,0,0,.822.08,2.014,2.014,0,0,0,2.21-1.928c0-.97-.687-1.32-1.576-1.32a3.524,3.524,0,0,0-.877.08ZM-.712-4.152a10,10,0,0,1,2.184-.216A3.819,3.819,0,0,1,3.8-3.721a2.155,2.155,0,0,1,.836,1.806A3.14,3.14,0,0,1,3.48.552a4.6,4.6,0,0,1-2.844.863,7.346,7.346,0,0,1-.849-.067L-.874,4.785H-2.41Z" transform="translate(2.41 4.368)"/>
    </g>
    <g id="g2674" transform="translate(6.36 7.674)">
      <path id="path2676" d="M.059.015A2.6,2.6,0,0,0-.588-.052c-1.442,0-2.575,1.632-2.575,3.128,0,.686.256,1.253.944,1.253.741,0,1.631-.916,1.941-2.588ZM-.574,5.448c0-.392.054-.917.108-1.47H-.493A2.653,2.653,0,0,1-2.852,5.6,2,2,0,0,1-4.794,3.359,4.5,4.5,0,0,1-.17-1.265a7.155,7.155,0,0,1,2,.3L1.137,2.455a15.149,15.149,0,0,0-.27,2.993Z" transform="translate(4.794 1.265)"/>
    </g>
    <g id="g2678" transform="translate(20.283 7.674)">
      <path id="path2680" d="M.02.05c0,.9.472,1.537,1.281,1.537,1.173,0,1.955-1.618,1.955-2.926,0-.675-.311-1.51-1.253-1.51C.748-2.849.02-1.177.02.05m4.853-1.4A3.922,3.922,0,0,1,1.085,2.8,2.553,2.553,0,0,1-1.6.089,3.93,3.93,0,0,1,2.19-4.062a2.558,2.558,0,0,1,2.682,2.71" transform="translate(1.597 4.062)"/>
    </g>
    <g id="g2682" transform="translate(27.047 7.674)">
      <path id="path2684" d="M0,.081.85-4.448c.161-.782.256-1.469.337-2.035h1.4L2.44-5.311h.026A2.826,2.826,0,0,1,4.826-6.632,1.6,1.6,0,0,1,6.5-4.825a6.106,6.106,0,0,1-.121,1.078L5.661.081H4.084l.7-3.707a4.8,4.8,0,0,0,.082-.782c0-.553-.2-.944-.822-.944-.714,0-1.631.862-1.914,2.4L1.564.081Z" transform="translate(0 6.632)"/>
    </g>
    <g id="g2686" transform="translate(34.204 7.675)">
      <path id="path2688" d="M.042.014A2.02,2.02,0,0,0-1.777,1.686C-.16,1.7.879,1.484.879.689.879.271.542.014.042.014m1.5,5.163A5.281,5.281,0,0,1-.78,5.7,2.473,2.473,0,0,1-3.475,2.98C-3.475,1-2.02-1.158.245-1.158A1.873,1.873,0,0,1,2.361.689c0,1.684-1.765,2.223-4.3,2.17a1.8,1.8,0,0,0,.175.93,1.449,1.449,0,0,0,1.348.674,3.888,3.888,0,0,0,1.807-.431Z" transform="translate(3.475 1.158)"/>
    </g>
    <g id="g2690" transform="translate(40.309 7.675)">
      <path id="path2692" d="M.042.014A2.021,2.021,0,0,0-1.777,1.686C-.16,1.7.879,1.484.879.689.879.271.542.014.042.014m1.5,5.163A5.276,5.276,0,0,1-.778,5.7a2.474,2.474,0,0,1-2.7-2.722C-3.475,1-2.02-1.158.245-1.158A1.874,1.874,0,0,1,2.363.689c0,1.684-1.767,2.223-4.3,2.17a1.8,1.8,0,0,0,.175.93,1.45,1.45,0,0,0,1.348.674,3.888,3.888,0,0,0,1.807-.431Z" transform="translate(3.475 1.158)"/>
    </g>
    <g id="g2694" transform="translate(46.239 7.674)">
      <path id="path2696" d="M0,.081.768-3.963c.175-.93.269-1.941.336-2.52H2.466c-.04.445-.08.9-.148,1.375h.04a2.423,2.423,0,0,1,2.05-1.524c.122,0,.243.014.351.014L4.448-5.081a1.929,1.929,0,0,0-.3-.014c-1.119,0-1.833,1.132-2.089,2.534L1.563.081Z" transform="translate(0 6.632)"/>
    </g>
    <g id="g2698" transform="translate(52.077 8.009)">
      <path id="path2700" d="M0,.005H.116c.118,0,.2-.066.2-.165S.23-.321.112-.321A.563.563,0,0,0,0-.312Zm-.112-.4A1.3,1.3,0,0,1,.1-.409a.362.362,0,0,1,.251.071.219.219,0,0,1,.068.166.226.226,0,0,1-.162.22v0A.22.22,0,0,1,.388.228,1.374,1.374,0,0,0,.455.467H.338A1.075,1.075,0,0,1,.283.259C.256.139.208.095.107.09H0V.467H-.111Z" transform="translate(0.111 0.409)"/>
    </g>
    <g id="g2702" transform="translate(51.559 7.674)">
      <path id="path2704" d="M.009,0A.777.777,0,0,0-.767.777a.778.778,0,0,0,.777.777A.778.778,0,0,0,.786.777.777.777,0,0,0,.009,0m0,.12A.656.656,0,0,1,.665.777a.657.657,0,0,1-.656.657A.657.657,0,0,1-.648.777.656.656,0,0,1,.009.12" transform="translate(0.767 0)"/>
    </g>
  </g>
</svg>
