<svg id="PayPal" xmlns="http://www.w3.org/2000/svg" width="58.909" height="14.385" viewBox="0 0 58.909 14.385">
  <path id="Path_18" data-name="Path 18" d="M40.689,6.749h-3.26a.453.453,0,0,0-.448.382L35.663,15.49a.272.272,0,0,0,.269.314h1.556a.453.453,0,0,0,.448-.383l.356-2.255a.453.453,0,0,1,.447-.383h1.032a3.348,3.348,0,0,0,3.71-3.1,2.511,2.511,0,0,0-.416-2.1,3.024,3.024,0,0,0-2.376-.832ZM41.065,9.8c-.178,1.17-1.072,1.17-1.936,1.17h-.492l.345-2.185a.272.272,0,0,1,.268-.229h.225c.589,0,1.144,0,1.431.336a1.086,1.086,0,0,1,.158.909Zm9.368-.038H48.873a.272.272,0,0,0-.268.229l-.069.437-.109-.158a2.222,2.222,0,0,0-1.844-.654A3.59,3.59,0,0,0,43.1,12.757a2.947,2.947,0,0,0,.582,2.4,2.443,2.443,0,0,0,1.966.794,2.987,2.987,0,0,0,2.161-.894l-.07.434A.272.272,0,0,0,48,15.8H49.41a.453.453,0,0,0,.448-.383l.844-5.343a.271.271,0,0,0-.267-.314ZM48.258,12.8A1.74,1.74,0,0,1,46.5,14.293,1.209,1.209,0,0,1,45.2,12.775a1.747,1.747,0,0,1,1.749-1.5,1.317,1.317,0,0,1,1.041.425A1.351,1.351,0,0,1,48.258,12.8Zm10.49-3.038H57.179a.455.455,0,0,0-.375.2L54.64,13.15l-.917-3.063a.454.454,0,0,0-.435-.323H51.747a.272.272,0,0,0-.258.359l1.728,5.071-1.624,2.293a.272.272,0,0,0,.222.429h1.567a.452.452,0,0,0,.372-.194l5.218-7.531a.272.272,0,0,0-.223-.427Z" transform="translate(-18.662 -3.532)" fill="#253b80"/>
  <path id="Path_19" data-name="Path 19" d="M89.47,6.748H86.21a.453.453,0,0,0-.447.382L84.444,15.49a.271.271,0,0,0,.268.314h1.673a.317.317,0,0,0,.313-.268l.374-2.369a.453.453,0,0,1,.447-.383h1.032a3.348,3.348,0,0,0,3.711-3.1,2.509,2.509,0,0,0-.416-2.1A3.022,3.022,0,0,0,89.47,6.748ZM89.846,9.8c-.178,1.17-1.072,1.17-1.936,1.17h-.491l.346-2.185a.271.271,0,0,1,.268-.229h.225c.588,0,1.144,0,1.431.336A1.087,1.087,0,0,1,89.846,9.8Zm9.368-.038h-1.56a.27.27,0,0,0-.268.229l-.069.437-.11-.158a2.221,2.221,0,0,0-1.843-.654,3.589,3.589,0,0,0-3.485,3.139,2.948,2.948,0,0,0,.581,2.4,2.444,2.444,0,0,0,1.966.794,2.987,2.987,0,0,0,2.161-.894l-.07.434a.272.272,0,0,0,.269.315h1.406a.453.453,0,0,0,.447-.383l.844-5.343a.272.272,0,0,0-.269-.314ZM97.038,12.8a1.739,1.739,0,0,1-1.761,1.491,1.209,1.209,0,0,1-1.293-1.518,1.748,1.748,0,0,1,1.749-1.5,1.317,1.317,0,0,1,1.041.425A1.344,1.344,0,0,1,97.038,12.8Zm4.016-5.824L99.716,15.49a.271.271,0,0,0,.268.314h1.345a.452.452,0,0,0,.448-.383L103.1,7.062a.272.272,0,0,0-.268-.314h-1.506a.272.272,0,0,0-.268.23Z" transform="translate(-44.191 -3.531)" fill="#179bd7"/>
  <path id="Path_20" data-name="Path 20" d="M4.019,14.432l.249-1.583-.555-.013H1.061L2.9,1.152a.151.151,0,0,1,.15-.128H7.525a3.979,3.979,0,0,1,3.043.919,2.094,2.094,0,0,1,.488.914,3.3,3.3,0,0,1,0,1.26l-.006.037v.322l.251.142A1.759,1.759,0,0,1,11.812,5a1.8,1.8,0,0,1,.412.924,3.908,3.908,0,0,1-.059,1.34,4.72,4.72,0,0,1-.549,1.517,3.121,3.121,0,0,1-.87.953,3.529,3.529,0,0,1-1.172.529,5.843,5.843,0,0,1-1.464.169H7.762a1.047,1.047,0,0,0-1.035.883l-.026.143-.44,2.791-.02.1a.088.088,0,0,1-.028.06.074.074,0,0,1-.046.017Z" transform="translate(-0.555 -0.536)" fill="#253b80"/>
  <path id="Path_21" data-name="Path 21" d="M14.225,7.667q-.02.128-.046.262C13.589,10.956,11.572,12,9,12H7.684a.637.637,0,0,0-.63.54L6.383,16.8l-.19,1.207a.336.336,0,0,0,.331.388H8.85a.56.56,0,0,0,.553-.472l.023-.118.438-2.78.028-.153a.559.559,0,0,1,.553-.473h.348c2.254,0,4.019-.915,4.534-3.564a3.034,3.034,0,0,0-.466-2.68,2.225,2.225,0,0,0-.637-.491Z" transform="translate(-3.239 -4.012)" fill="#179bd7"/>
  <path id="Path_22" data-name="Path 22" d="M14.559,6.918a4.65,4.65,0,0,0-.573-.127,7.285,7.285,0,0,0-1.156-.084h-3.5a.559.559,0,0,0-.552.473L8.026,11.9l-.021.138a.637.637,0,0,1,.63-.54H9.946c2.576,0,4.594-1.046,5.183-4.073.018-.09.032-.177.046-.262a3.143,3.143,0,0,0-.485-.2l-.132-.041Z" transform="translate(-4.189 -3.51)" fill="#222d65"/>
  <path id="Path_23" data-name="Path 23" d="M4.583,3.67A.557.557,0,0,1,5.135,3.2h3.5A7.285,7.285,0,0,1,9.8,3.282a4.651,4.651,0,0,1,.706.168,3.191,3.191,0,0,1,.485.2,2.859,2.859,0,0,0-.606-2.57A4.442,4.442,0,0,0,6.97,0H2.5a.639.639,0,0,0-.632.54L0,12.345a.384.384,0,0,0,.379.444h2.76l.693-4.4L4.583,3.67Z" transform="translate(0 0)" fill="#253b80"/>
</svg>
