<svg xmlns="http://www.w3.org/2000/svg" width="51.404" height="18.353" viewBox="0 0 51.404 18.353">
  <g id="Group_2" data-name="Group 2" transform="translate(0)">
    <path id="Path_1" data-name="Path 1" d="M655.109,32.053h-2.631c-1.247,3.447-3.332,9.164-4.48,12.309a4.778,4.778,0,0,1-.431.865h.115v0h1.7a1.445,1.445,0,0,0,1.181-.737,1.222,1.222,0,0,0,.1-.208l1.1-3.01h0c1.362-3.734,3.209-8.812,3.347-9.222" transform="translate(-634.308 -32.053)" fill="#939598"/>
    <path id="Path_2" data-name="Path 2" d="M699.568,54.633l-1.1,3.011a1.475,1.475,0,0,1-1.272.941h-1.824a4.816,4.816,0,0,0,.465-.941l1.1-3.01H694.3l-1.1,3.01a1.481,1.481,0,0,1-1.277.941H690.1a4.787,4.787,0,0,0,.463-.941l1.1-3.011h-2.638l-1.1,3.011a1.479,1.479,0,0,1-1.275.941h-8.422a4.674,4.674,0,0,0,.47-.923l.278-.772c.718-1.972-.3-3.577-2.275-3.577h-3l-.956,2.635h3a.638.638,0,0,1,.6.941l-.294.772a1.451,1.451,0,0,1-1.269.922h-4.332l-.957,2.636h26.755a5.6,5.6,0,0,0,4.848-3.558l1.105-3.03Z" transform="translate(-650.803 -48.045)" fill="#ee7623"/>
    <path id="Path_3" data-name="Path 3" d="M601.041,61.221h-6.964l.959-2.635H602a1.491,1.491,0,0,0,1.284-.941l.272-.753a.638.638,0,0,0-.6-.941h-4.324l.956-2.635h4.324c1.972,0,2.993,1.6,2.275,3.577l-.269.753a5.666,5.666,0,0,1-4.878,3.577" transform="translate(-594.077 -48.045)" fill="#ee7623"/>
    <path id="Path_4" data-name="Path 4" d="M668.122,97.332H667.8l-.12.329H668Z" transform="translate(-649.434 -81.15)" fill="#939598"/>
    <path id="Path_5" data-name="Path 5" d="M665.6,99.315a.533.533,0,0,1-.237.309.728.728,0,0,1-.332.056h-.813a.548.548,0,0,1-.371-.095c-.085-.077-.091-.213-.021-.407l.186-.507h-.329l-.186.507c-.206.561.007.84.636.84h1.076a.664.664,0,0,0,.633-.474l.32-.872h-.326Z" transform="translate(-646.235 -82.158)" fill="#939598"/>
    <path id="Path_6" data-name="Path 6" d="M670.4,97.332h-.323l-.121.329h.323Z" transform="translate(-651.145 -81.15)" fill="#939598"/>
    <path id="Path_7" data-name="Path 7" d="M675.916,97.644a.736.736,0,0,1,.185-.288.428.428,0,0,1,.3-.131c.157,0,.233.077.228.229l.335-.136a.393.393,0,0,0-.441-.383.911.911,0,0,0-.568.207,1.126,1.126,0,0,0-.375.507.726.726,0,0,0-.049.312h-.537a.367.367,0,0,1-.237-.05c-.046-.045-.044-.14.009-.285l.454-1.24h-.329l-.5,1.373a.5.5,0,0,0-.023.385.305.305,0,0,0,.311.154h1.944l.124-.338h-.836a.387.387,0,0,1,.009-.317" transform="translate(-654.441 -80.439)" fill="#939598"/>
    <path id="Path_8" data-name="Path 8" d="M697.661,96.219h-.323l-.121.329h.323Z" transform="translate(-671.651 -80.313)" fill="#939598"/>
    <path id="Path_9" data-name="Path 9" d="M688.476,98.552a1.02,1.02,0,0,0-.921.685.7.7,0,0,0-.043.353H686.7l.126-.344c.142-.389-.011-.667-.373-.667a1,1,0,0,0-.905.658c-.144.392.037.691.4.691h.318a.469.469,0,0,1-.413.228l-.1.261a.853.853,0,0,0,.825-.489h1.392a1.019,1.019,0,0,0,.914-.682c.142-.389-.016-.694-.411-.694m-2.108,1.038h-.294c-.178,0-.257-.166-.182-.371a.485.485,0,0,1,.443-.335c.172,0,.227.125.181.3Zm1.722.033c-.2,0-.271-.175-.193-.389a.523.523,0,0,1,.457-.38c.2,0,.274.166.192.392a.526.526,0,0,1-.455.377" transform="translate(-662.837 -82.068)" fill="#939598"/>
    <path id="Path_10" data-name="Path 10" d="M704.939,97.65a.879.879,0,0,1-.1.214.305.305,0,0,1-.246.1h-.754a.824.824,0,0,0,.2-.344l.451-1.231h-.329l-.457,1.249a.716.716,0,0,1-.118.225.3.3,0,0,1-.236.1h-.508l.032-.086a.582.582,0,0,0,0-.5.421.421,0,0,0-.407-.2.911.911,0,0,0-.554.193,1.058,1.058,0,0,0-.363.49c-.012.032-.024.065-.033.1h-.69c.183-.507.1-.828-.247-.961a.552.552,0,0,0-.162-.041c-.041,0-.143-.006-.307-.006l-.111.3a1.24,1.24,0,0,1,.29.027c.276.065.345.291.2.679h-1.074l-.124.338h2.232a.412.412,0,0,0,.436.258.919.919,0,0,0,.631-.258h1.951a.707.707,0,0,0,.7-.537l.5-1.377H705.4Zm-2.585.487a.415.415,0,0,1-.279.113c-.2,0-.271-.175-.193-.389a.649.649,0,0,1,.173-.261.415.415,0,0,1,.284-.119.2.2,0,0,1,.208.122.4.4,0,0,1-.019.27.655.655,0,0,1-.174.264" transform="translate(-673.206 -80.439)" fill="#939598"/>
    <path id="Path_11" data-name="Path 11" d="M727.761,98.72a.561.561,0,0,0-.162-.042c-.041,0-.144-.006-.307-.006l-.11.3a1.24,1.24,0,0,1,.29.027c.276.065.344.29.2.679H726.6l-.124.338h1.409l.123-.338q.275-.761-.247-.961" transform="translate(-693.657 -82.158)" fill="#939598"/>
    <path id="Path_12" data-name="Path 12" d="M733.4,98.29h.329l.7-1.916H734.1Z" transform="translate(-698.861 -80.43)" fill="#939598"/>
    <path id="Path_13" data-name="Path 13" d="M740.067,99.353c-.079.217-.2.326-.371.326h-.323a.868.868,0,0,0,.2-.362l.237-.647h-.335l-.248.679c-.081.22-.2.329-.372.329h-.309l.006-.018a1,1,0,0,0,.179-.344l.237-.647h-.335l-.241.659c-.086.234-.211.35-.38.35h-.627c.183-.507.1-.828-.247-.961a.557.557,0,0,0-.163-.041c-.04,0-.143-.006-.306-.006l-.111.3a1.254,1.254,0,0,1,.29.027c.276.065.344.291.2.679h-1.074l-.124.338h3.733a.974.974,0,0,0,.834-.706l.234-.641h-.335Z" transform="translate(-700.708 -82.158)" fill="#939598"/>
    <path id="Path_14" data-name="Path 14" d="M758.422,98.66h-.837a1.083,1.083,0,0,0-.98.789l-.385,1.053h.332l.361-.985c.119-.323.332-.519.555-.519h.243a1.027,1.027,0,0,0-.211.35c-.141.386.023.691.417.691a1.028,1.028,0,0,0,.914-.682c.143-.392-.015-.7-.409-.7m-.384,1.074c-.2,0-.275-.172-.2-.389a.528.528,0,0,1,.456-.38c.2,0,.273.169.192.392a.529.529,0,0,1-.452.377" transform="translate(-716.027 -82.149)" fill="#939598"/>
    <path id="Path_15" data-name="Path 15" d="M779.189,96.243h-.323l-.12.329h.323Z" transform="translate(-732.969 -80.331)" fill="#939598"/>
    <path id="Path_16" data-name="Path 16" d="M786.256,96.243h-.323l-.12.329h.324Z" transform="translate(-738.284 -80.331)" fill="#939598"/>
    <path id="Path_17" data-name="Path 17" d="M772.044,96.953l-.255.7a.866.866,0,0,1-.1.214.305.305,0,0,1-.246.1h-.532c.237-.673.1-1.014-.4-1.014a1.684,1.684,0,0,0-1.063.513l.434-1.074h-.326l-.577,1.575h-.68a.368.368,0,0,1-.237-.051c-.046-.044-.044-.139.009-.285l.454-1.24H768.2l-.5,1.373a.5.5,0,0,0-.023.386.305.305,0,0,0,.311.154h3.4a.707.707,0,0,0,.7-.537l.3-.81Zm-1.48,1.009h-1.326a1.784,1.784,0,0,1,1.135-.718c.285,0,.368.243.229.623-.012.033-.023.062-.038.095" transform="translate(-724.619 -80.44)" fill="#939598"/>
  </g>
</svg>
