<svg id="Mada_Logo" xmlns="http://www.w3.org/2000/svg" width="42.318" height="14.111" viewBox="0 0 42.318 14.111">
  <rect id="Rectangle_4893" data-name="Rectangle 4893" width="17.901" height="5.963" transform="translate(0 8.137)" fill="#84b740"/>
  <rect id="Rectangle_4894" data-name="Rectangle 4894" width="17.901" height="5.969" fill="#259bd6"/>
  <path id="Path_373" data-name="Path 373" d="M618.967,138.536l-.08.016a2.612,2.612,0,0,1-.579.074c-.468,0-1.021-.239-1.021-1.366,0-.579.1-1.35.968-1.35h.005a2.615,2.615,0,0,1,.638.122l.069.021v2.482Zm.143-5.618-.143.027v2.083l-.128-.037-.037-.011a2.935,2.935,0,0,0-.792-.138c-1.743,0-2.11,1.318-2.11,2.424a2.149,2.149,0,0,0,2.333,2.386,4.731,4.731,0,0,0,1.557-.218.688.688,0,0,0,.585-.755V132.7c-.415.074-.845.149-1.265.218" transform="translate(-583.165 -125.647)" fill="#27292d"/>
  <path id="Path_374" data-name="Path 374" d="M717.6,176.258l-.074.021-.266.069a2.77,2.77,0,0,1-.643.1c-.409,0-.654-.2-.654-.547,0-.223.1-.6.771-.6h.866Zm-.611-3.758a5.881,5.881,0,0,0-1.775.308l-.447.133.149,1.01.436-.143a5.123,5.123,0,0,1,1.451-.244c.191,0,.776,0,.776.633v.276h-.813c-1.483,0-2.168.473-2.168,1.488,0,.866.632,1.387,1.7,1.387a5.481,5.481,0,0,0,1.18-.159l.021-.005.021.005.133.021c.414.074.845.149,1.265.228v-3.316c0-1.074-.648-1.621-1.924-1.621" transform="translate(-676.619 -163.332)" fill="#27292d"/>
  <path id="Path_375" data-name="Path 375" d="M523.3,176.258l-.074.021-.266.069a2.733,2.733,0,0,1-.643.1c-.409,0-.654-.2-.654-.547,0-.223.1-.6.765-.6h.866l.005.957ZM522.7,172.5a5.856,5.856,0,0,0-1.775.308l-.446.133.149,1.01.436-.143a5.122,5.122,0,0,1,1.451-.244c.192,0,.776,0,.776.633v.276h-.813c-1.483,0-2.174.473-2.174,1.488,0,.866.633,1.387,1.7,1.387a5.478,5.478,0,0,0,1.18-.159l.021-.005.021.005.127.021c.42.074.845.149,1.265.234v-3.317c.005-1.084-.643-1.626-1.919-1.626" transform="translate(-492.646 -163.332)" fill="#27292d"/>
  <path id="Path_376" data-name="Path 376" d="M382.686,172.605a3.587,3.587,0,0,0-1.44.319l-.053.027-.048-.037a2.181,2.181,0,0,0-1.292-.314,5.282,5.282,0,0,0-1.525.229c-.452.138-.627.356-.627.765v3.79h1.414v-3.5l.069-.021a1.8,1.8,0,0,1,.622-.112.559.559,0,0,1,.617.643v3h1.393v-3.056a1.03,1.03,0,0,0-.043-.308l-.048-.09.1-.043a1.676,1.676,0,0,1,.691-.144.563.563,0,0,1,.617.643v3h1.387v-3.136c0-1.111-.6-1.648-1.828-1.648" transform="translate(-357.625 -163.426)" fill="#27292d"/>
  <path id="Path_377" data-name="Path 377" d="M589.968,3.891a4.829,4.829,0,0,1-.824-.074l-.079-.016V1.754a1,1,0,0,0-.037-.292l-.043-.085.091-.037c.021-.011.042-.016.069-.027l.016-.011.1-.032a.134.134,0,0,1,.037-.011,3.3,3.3,0,0,1,.728-.085h.005c.866,0,.967.771.967,1.35-.005,1.127-.563,1.366-1.025,1.366M589.962,0h-.037a2.5,2.5,0,0,0-1.945.659,1.327,1.327,0,0,0-.255.792h0v2.11a.622.622,0,0,1-.043.266l-.048.09h-2.567V2.45h-.005a2.187,2.187,0,0,0-2.27-2.4H581.5c-.053.377-.1.643-.149,1.02h1.286c.675,0,1.031.574,1.031,1.456V4.007l-.091-.048a.971.971,0,0,0-.3-.043h-2.222c-.043.282-.1.648-.154,1.015h6.829c.234-.048.505-.09.739-.128a3.849,3.849,0,0,0,1.43.26,2.332,2.332,0,0,0,2.445-2.525A2.344,2.344,0,0,0,589.962,0" transform="translate(-550.025)" fill="#27292d"/>
  <path id="Path_378" data-name="Path 378" d="M385.587,6.6h.064c1.483,0,2.174-.489,2.174-1.7a1.553,1.553,0,0,0-1.7-1.557h-1.366a.589.589,0,0,1-.654-.627c0-.266.1-.6.771-.6h2.987c.064-.388.1-.632.154-1.02h-3.1c-1.446,0-2.174.606-2.174,1.616s.632,1.52,1.7,1.52h1.366a.645.645,0,0,1,.654.664.668.668,0,0,1-.765.686h-.228l-4.374-.011h-.8c-.675,0-1.148-.383-1.148-1.27V3.694c0-.925.367-1.5,1.148-1.5h1.3c.058-.393.1-.643.149-1.015h-1.77a2.218,2.218,0,0,0-2.27,2.434h0V4.3a2.1,2.1,0,0,0,2.27,2.285h1.292l2.37.005h1.956Z" transform="translate(-357.625 -1.042)" fill="#27292d"/>
</svg>
