<svg xmlns="http://www.w3.org/2000/svg" xmlns:xlink="http://www.w3.org/1999/xlink" width="46.677" height="15.073" viewBox="0 0 46.677 15.073">
  <defs>
    <clipPath id="clip-path">
      <path id="path10273" d="M1828.962-497.384c-.027,2.1,1.871,3.271,3.3,3.968,1.469.715,1.963,1.173,1.957,1.812-.011.978-1.172,1.41-2.257,1.427a7.885,7.885,0,0,1-3.874-.921l-.682,3.194a11.359,11.359,0,0,0,4.193.774c3.961,0,6.553-1.955,6.567-4.987.015-3.847-5.322-4.061-5.285-5.78.012-.521.51-1.078,1.6-1.219a7.1,7.1,0,0,1,3.718.652l.663-3.091a10.106,10.106,0,0,0-3.53-.648c-3.728,0-6.351,1.982-6.372,4.819m16.272-4.552a1.718,1.718,0,0,0-1.6,1.069l-5.658,13.51h3.958l.788-2.177h4.836l.458,2.177h3.488l-3.045-14.58h-3.221m.554,3.938,1.142,5.475H1843.8l1.986-5.475m-21.625-3.938-3.119,14.58h3.772l3.118-14.58h-3.771m-5.579,0-3.926,9.923-1.588-8.438a1.759,1.759,0,0,0-1.74-1.486h-6.418l-.089.423a15.684,15.684,0,0,1,3.72,1.24,1.594,1.594,0,0,1,.9,1.281l3.008,11.635h3.986l6.111-14.58h-3.961" transform="translate(-1804.822 502.203)"/>
    </clipPath>
    <linearGradient id="linear-gradient" y1="0.373" x2="0.008" y2="0.373" gradientUnits="objectBoundingBox">
      <stop offset="0" stop-color="#222357"/>
      <stop offset="1" stop-color="#254aa5"/>
    </linearGradient>
  </defs>
  <g id="layer1" transform="translate(0 0)">
    <g id="g10267" transform="translate(0 0)">
      <g id="g10269" transform="translate(0 0)" clip-path="url(#clip-path)">
        <g id="g10275" transform="translate(-4.888 -15.137)">
          <path id="path10283" d="M0-163.768,45.991-180.7l10.463,28.411-45.99,16.937" transform="translate(0 180.705)" fill="url(#linear-gradient)"/>
        </g>
      </g>
    </g>
  </g>
</svg>
