<svg id="layer1" xmlns="http://www.w3.org/2000/svg" width="38.475" height="23.035" viewBox="0 0 38.475 23.035">
  <g id="g10305" transform="translate(0 0)">
    <path id="path2268" d="M143.852,13.39a11.515,11.515,0,1,1-23.029.006V13.39a11.515,11.515,0,1,1,23.029-.006Z" transform="translate(-105.377 -1.872)" fill="#f90"/>
    <path id="path1350" d="M13.407,1.895A11.515,11.515,0,1,0,21.23,21.924h0A11.622,11.622,0,0,0,22.4,20.69H20.042a11.246,11.246,0,0,1-.858-1.186h4.069a11.534,11.534,0,0,0,.67-1.233H18.511a11.357,11.357,0,0,1-.481-1.21H24.4a11.565,11.565,0,0,0,.327-6.118H17.692a11.481,11.481,0,0,1,.329-1.21H24.4A11.516,11.516,0,0,0,23.9,8.5h-5.39a11.047,11.047,0,0,1,.661-1.209h4.066a11.54,11.54,0,0,0-.894-1.233H20.077A10.687,10.687,0,0,1,21.232,4.9a11.474,11.474,0,0,0-7.75-3Z" transform="translate(-1.967 -1.892)" fill="#c00"/>
    <path id="use9412" d="M286.649,136.82a.382.382,0,0,1,.183.048.34.34,0,0,1,.139.138.373.373,0,0,1,0,.372.346.346,0,0,1-.138.138.376.376,0,0,1-.37,0,.352.352,0,0,1-.138-.138.374.374,0,0,1,0-.372.346.346,0,0,1,.139-.138.386.386,0,0,1,.184-.048m0,.062a.318.318,0,0,0-.153.04.285.285,0,0,0-.116.115.309.309,0,0,0-.042.155.316.316,0,0,0,.041.154.3.3,0,0,0,.115.115.312.312,0,0,0,.309,0,.294.294,0,0,0,.115-.115.315.315,0,0,0,.041-.154.311.311,0,0,0-.042-.155.283.283,0,0,0-.116-.115.311.311,0,0,0-.152-.04m-.163.517V137h.138a.319.319,0,0,1,.1.011.1.1,0,0,1,.05.039.1.1,0,0,1,.019.059.106.106,0,0,1-.031.076.123.123,0,0,1-.083.036.118.118,0,0,1,.034.021.446.446,0,0,1,.059.079l.049.078h-.079l-.035-.063a.324.324,0,0,0-.068-.093.084.084,0,0,0-.052-.014h-.038v.17h-.065m.065-.226h.078a.126.126,0,0,0,.076-.017.055.055,0,0,0,.021-.044.053.053,0,0,0-.01-.032.062.062,0,0,0-.028-.021.2.2,0,0,0-.065-.007h-.073v.121" transform="translate(-249.329 -119.283)" fill="#fcb340"/>
  </g>
  <g id="g16480" transform="translate(0.734 8.544)">
    <g id="g13802" transform="translate(0 0.243)">
      <path id="path13804" d="M121.028,63.8l.153-1.042c-.084,0-.207.036-.316.036-.427,0-.48-.228-.447-.395l.421-2.1h.649l.134-1.183h-.611l.125-.717h-1.279c-.027.027-.724,4.031-.724,4.519a.91.91,0,0,0,.977,1.038A3.22,3.22,0,0,0,121.028,63.8Z" transform="translate(-106.426 -57.761)" fill="#006"/>
      <path id="path13806" d="M136.706,65.695a1.924,1.924,0,0,0,2.118,2.144,3.686,3.686,0,0,0,1.371-.208l.216-1.183a4.442,4.442,0,0,1-1.378.309c-1.317,0-1.086-.982-1.086-.982l2.529.008a8.8,8.8,0,0,0,.161-1.118,1.68,1.68,0,0,0-1.786-1.8C137.619,62.865,136.706,64.194,136.706,65.695Zm2.15-1.732c.692,0,.564.778.564.841h-1.361C138.059,64.723,138.188,63.963,138.856,63.963Z" transform="translate(-121.716 -61.647)" fill="#006"/>
      <path id="path13808" d="M190.577,59.526l.219-1.336a2.952,2.952,0,0,1-1.015.3,1.214,1.214,0,0,1-1.219-1.378c0-1.447.748-2.244,1.581-2.244a2.182,2.182,0,0,1,1.126.351l.2-1.3a2.439,2.439,0,0,0-1.229-.43c-1.916-.008-3.013,1.327-3.013,3.633,0,1.529.812,2.569,2.275,2.569A5.671,5.671,0,0,0,190.577,59.526Z" transform="translate(-165.674 -53.492)" fill="#006"/>
      <path id="path13810" d="M66.576,63.012a4.234,4.234,0,0,0-1.485.27l-.178,1.056a3.871,3.871,0,0,1,1.336-.216c.457,0,.791.051.791.422a.785.785,0,0,1-.041.309s-.36-.03-.527-.03c-1.2,0-2.174.453-2.174,1.817a1.164,1.164,0,0,0,1.184,1.322,1.511,1.511,0,0,0,1.227-.548l-.01.453h1.08l.482-3.376A1.45,1.45,0,0,0,66.576,63.012Zm.187,2.742c.024.206-.053,1.181-.792,1.181a.447.447,0,0,1-.48-.463c0-.336.182-.739,1.081-.739C66.782,65.733,66.728,65.748,66.763,65.754Z" transform="translate(-58.718 -61.775)" fill="#006"/>
      <path id="path13812" d="M94.4,67.987c.276,0,1.855.07,1.855-1.559,0-1.523-1.461-1.222-1.461-1.834,0-.3.238-.4.674-.4.173,0,.838.055.838.055l.155-1.083a5.718,5.718,0,0,0-1.131-.1c-.907,0-1.828.362-1.828,1.6,0,1.4,1.535,1.263,1.535,1.854,0,.395-.429.427-.759.427a4.007,4.007,0,0,1-1.089-.187l-.164,1.071A3.9,3.9,0,0,0,94.4,67.987Z" transform="translate(-83.715 -61.825)" fill="#006"/>
      <path id="path13814" d="M267.606,55.455l-.222,1.652a1.621,1.621,0,0,0-1.184-.637c-1.359,0-2.06,1.355-2.06,2.91,0,1,.5,1.989,1.52,1.989a1.533,1.533,0,0,0,1.142-.512l-.054.437h1.193l.937-5.83Zm-.527,3.21c0,.648-.321,1.513-.985,1.513-.441,0-.648-.371-.648-.952,0-.951.427-1.578.966-1.578C266.853,57.648,267.08,57.951,267.08,58.665Z" transform="translate(-232.59 -55.2)" fill="#006"/>
      <path id="path13816" d="M22.582,61.237l.746-4.4.11,4.4h.845l1.576-4.4-.7,4.4h1.255l.966-5.838-1.994-.015L24.2,58.958,24.17,55.4H22.342l-.98,5.838Z" transform="translate(-21.362 -55.138)" fill="#006"/>
      <path id="path13818" d="M167.671,65.824c.357-2.029.484-3.632,1.525-3.3a7.072,7.072,0,0,1,.668-1.8s-.051-.077-.373-.077c-.549,0-1.282,1.114-1.282,1.114l.11-.689h-1.142l-.765,4.752h1.259Z" transform="translate(-147.562 -59.717)" fill="#006"/>
      <g id="use14699" transform="translate(25.193 1.237)">
        <path id="path13810_1_" d="M-627.8,63.012a4.232,4.232,0,0,0-1.485.27l-.178,1.056a3.874,3.874,0,0,1,1.336-.216c.457,0,.791.051.791.422a.789.789,0,0,1-.041.309s-.36-.03-.527-.03c-1.2,0-2.174.453-2.174,1.817a1.163,1.163,0,0,0,1.184,1.322,1.511,1.511,0,0,0,1.227-.548l-.01.453h1.079l.481-3.376A1.449,1.449,0,0,0-627.8,63.012Zm.187,2.742c.023.206-.053,1.181-.792,1.181a.447.447,0,0,1-.48-.463c0-.336.182-.739,1.081-.739C-627.6,65.733-627.653,65.748-627.618,65.754Z" transform="translate(630.083 -63.012)" fill="#006"/>
      </g>
      <path id="use14701" d="M246.834,68.671c.2-1.493.559-3.589,1.525-3.3.149-.785.005-.783-.316-.783a5.729,5.729,0,0,0-.671.02l.11-.689H246.34l-.765,4.752h1.259Z" transform="translate(-216.437 -62.564)" fill="#006"/>
    </g>
    <g id="g10289" transform="translate(0.358)">
      <path id="path4157" d="M109.741,76.928l.154-1.042c-.084,0-.207.036-.316.036-.427,0-.474-.227-.447-.395l.345-2.126h.649l.157-1.153h-.612l.124-.717h-1.226c-.027.027-.724,4.032-.724,4.519a.91.91,0,0,0,.977,1.038A3.222,3.222,0,0,0,109.741,76.928Z" transform="translate(-95.178 -71.022)" fill="#fff"/>
      <path id="path4155" d="M125.423,78.826a1.924,1.924,0,0,0,2.118,2.144,3.12,3.12,0,0,0,1.295-.2l.216-1.182a3.817,3.817,0,0,1-1.3.3c-1.316,0-1.086-.982-1.086-.982h2.492a8.817,8.817,0,0,0,.161-1.118A1.644,1.644,0,0,0,127.568,76C126.336,76,125.423,77.325,125.423,78.826Zm2.15-1.732c.692,0,.564.778.564.84h-1.361C126.776,77.854,126.9,77.094,127.573,77.094Z" transform="translate(-110.471 -74.907)" fill="#fff"/>
      <path id="path4151" d="M179.754,73.523l.219-1.337a2.949,2.949,0,0,1-1.014.3,1.214,1.214,0,0,1-1.218-1.378c0-1.447.748-2.244,1.581-2.244a2.183,2.183,0,0,1,1.126.351l.2-1.3a4.4,4.4,0,0,0-1.381-.3c-1.415,0-2.792,1.228-2.792,3.534,0,1.529.743,2.539,2.207,2.539A5.653,5.653,0,0,0,179.754,73.523Z" transform="translate(-154.889 -67.618)" fill="#fff"/>
      <path id="path4149" d="M55.293,76.143a4.235,4.235,0,0,0-1.485.27l-.178,1.056a3.87,3.87,0,0,1,1.336-.216c.457,0,.791.051.791.422a.783.783,0,0,1-.041.308s-.36-.03-.527-.03c-1.06,0-2.174.453-2.174,1.817A1.164,1.164,0,0,0,54.2,81.092a1.6,1.6,0,0,0,1.258-.563l-.04.468h1.08l.482-3.376A1.45,1.45,0,0,0,55.293,76.143Zm.263,2.749c.023.206-.129,1.173-.867,1.173a.447.447,0,0,1-.48-.463c0-.336.182-.738,1.081-.738A.78.78,0,0,1,55.555,78.892Z" transform="translate(-47.472 -75.035)" fill="#fff"/>
      <path id="path4145" d="M83.121,81.118c.276,0,1.855.07,1.855-1.559,0-1.523-1.461-1.222-1.461-1.834,0-.3.238-.4.674-.4.173,0,.838.055.838.055L85.18,76.3a5.719,5.719,0,0,0-1.131-.1c-.907,0-1.828.362-1.828,1.6,0,1.4,1.535,1.263,1.535,1.854,0,.395-.429.427-.759.427a4,4,0,0,1-1.089-.187l-.163,1.072A3.892,3.892,0,0,0,83.121,81.118Z" transform="translate(-72.469 -75.086)" fill="#fff"/>
      <path id="path4139" d="M256.366,68.655,256.1,70.3a1.62,1.62,0,0,0-1.184-.637c-1.123,0-2.06,1.354-2.06,2.911,0,1,.5,1.989,1.52,1.989a1.533,1.533,0,0,0,1.142-.512l-.054.437h1.193l.936-5.83Zm-.569,3.2c0,.648-.321,1.513-.985,1.513-.441,0-.648-.37-.648-.952,0-.95.427-1.578.966-1.578C255.57,70.838,255.8,71.141,255.8,71.854Z" transform="translate(-221.345 -68.519)" fill="#fff"/>
      <path id="path4133" d="M11.552,74.47l.746-4.4.11,4.4h.845l1.576-4.4-.7,4.4h1.255l.967-5.838H14.411L13.2,72.214l-.063-3.582H11.351L10.37,74.47Z" transform="translate(-10.37 -68.5)" fill="#fff"/>
      <path id="path4131" d="M156.389,81.392c.357-2.029.423-3.677,1.275-3.376a4.718,4.718,0,0,1,.456-1.422,1.293,1.293,0,0,0-.236-.016c-.549,0-.956.75-.956.75l.109-.689h-1.142l-.765,4.752Z" transform="translate(-136.318 -75.414)" fill="#fff"/>
      <g id="use8523" transform="translate(25.416 1.108)">
        <path id="path4149_1_" d="M-638.785,76.143a4.236,4.236,0,0,0-1.485.27l-.178,1.056a3.87,3.87,0,0,1,1.336-.216c.456,0,.79.051.79.422a.785.785,0,0,1-.041.308s-.36-.03-.527-.03c-1.06,0-2.174.453-2.174,1.817a1.163,1.163,0,0,0,1.183,1.322,1.6,1.6,0,0,0,1.258-.563l-.04.468h1.079l.482-3.376A1.45,1.45,0,0,0-638.785,76.143Zm.263,2.749c.023.206-.129,1.173-.868,1.173a.446.446,0,0,1-.48-.463c0-.336.182-.738,1.081-.738A.781.781,0,0,1-638.522,78.892Z" transform="translate(641.063 -76.143)" fill="#fff"/>
      </g>
      <g id="use8525" transform="translate(29.106 1.165)">
        <path id="path4131_1_" d="M-206.691,81.392c.357-2.029.423-3.677,1.274-3.376a4.724,4.724,0,0,1,.456-1.422,1.3,1.3,0,0,0-.236-.016c-.549,0-.956.75-.956.75l.109-.689h-1.141l-.765,4.752Z" transform="translate(207.95 -76.579)" fill="#fff"/>
      </g>
      <path id="text9407" d="M286.609,107.975a.375.375,0,0,1,.183.048.336.336,0,0,1,.139.138.373.373,0,0,1,0,.371.345.345,0,0,1-.138.138.376.376,0,0,1-.371,0,.348.348,0,0,1-.138-.138.372.372,0,0,1-.049-.185.375.375,0,0,1,.05-.186.342.342,0,0,1,.139-.138.38.38,0,0,1,.183-.048m0,.061a.316.316,0,0,0-.153.041.285.285,0,0,0-.116.115.311.311,0,0,0,0,.31.3.3,0,0,0,.116.115.314.314,0,0,0,.309,0,.3.3,0,0,0,.115-.115.31.31,0,0,0,0-.31.28.28,0,0,0-.116-.115.313.313,0,0,0-.152-.041m-.163.517v-.4h.138a.325.325,0,0,1,.1.011.1.1,0,0,1,.05.039.1.1,0,0,1,.019.059.107.107,0,0,1-.032.076.122.122,0,0,1-.083.036.124.124,0,0,1,.034.021.477.477,0,0,1,.059.079l.049.078H286.7l-.035-.063a.324.324,0,0,0-.068-.093.083.083,0,0,0-.052-.014h-.038v.17h-.065m.065-.225h.078a.125.125,0,0,0,.076-.017.054.054,0,0,0,.021-.044.052.052,0,0,0-.01-.031.059.059,0,0,0-.028-.021.205.205,0,0,0-.065-.007h-.073v.121" transform="translate(-250.386 -102.73)" fill="#fff"/>
    </g>
  </g>
</svg>
