<svg xmlns="http://www.w3.org/2000/svg" width="46.292" height="19.007" viewBox="0 0 46.292 19.007">
  <g id="Group_28" data-name="Group 28" transform="translate(-173 -573)">
    <path id="XMLID_34_" d="M8.517,2.45A2.844,2.844,0,0,1,6.238,3.527a3.224,3.224,0,0,1,.814-2.36A3.4,3.4,0,0,1,9.313,0a3.433,3.433,0,0,1-.8,2.45M9.3,3.7c-1.257-.072-2.333.714-2.93.714s-1.519-.678-2.514-.66A3.714,3.714,0,0,0,.7,5.67C-.652,8,.352,11.457,1.663,13.356c.642.94,1.411,1.971,2.423,1.935.958-.036,1.338-.624,2.5-.624s1.5.624,2.514.606c1.049-.018,1.709-.94,2.351-1.881A8.248,8.248,0,0,0,12.5,11.231a3.407,3.407,0,0,1-2.044-3.1,3.479,3.479,0,0,1,1.655-2.912A3.584,3.584,0,0,0,9.3,3.7m7.261-2.622v14.1h2.188v-4.82h3.029a4.474,4.474,0,0,0,4.711-4.648,4.422,4.422,0,0,0-4.639-4.63h-5.29Zm2.188,1.845h2.523c1.9,0,2.984,1.013,2.984,2.794s-1.085,2.8-2.993,2.8H18.753ZM30.49,15.282a3.62,3.62,0,0,0,3.228-1.8h.045v1.691h2.026V8.156c0-2.035-1.628-3.346-4.132-3.346-2.324,0-4.042,1.329-4.105,3.156h1.971a1.921,1.921,0,0,1,2.071-1.438c1.338,0,2.089.624,2.089,1.772v.778l-2.731.163c-2.541.154-3.915,1.194-3.915,3C27.036,14.07,28.456,15.282,30.49,15.282Zm.588-1.673c-1.166,0-1.908-.561-1.908-1.42,0-.886.714-1.4,2.08-1.483l2.432-.154v.8A2.378,2.378,0,0,1,31.078,13.609Zm7.415,5.4c2.134,0,3.138-.814,4.015-3.282L46.351,4.946H44.126l-2.577,8.328H41.5L38.927,4.946H36.639l3.707,10.263-.2.624A1.74,1.74,0,0,1,38.3,17.3c-.172,0-.506-.018-.642-.036v1.691A6.027,6.027,0,0,0,38.493,19.007Z" transform="translate(172.941 573)"/>
  </g>
</svg>
