<svg xmlns="http://www.w3.org/2000/svg" xmlns:xlink="http://www.w3.org/1999/xlink" width="160" height="160" viewBox="0 0 160 160">
  <defs>
    <linearGradient id="linear-gradient" x1="0.298" y1="0.411" x2="0.936" y2="0.721" gradientUnits="objectBoundingBox">
      <stop offset="0" stop-color="#acc288" stop-opacity="0"/>
      <stop offset="1" stop-color="#b0c18e" stop-opacity="0.412"/>
    </linearGradient>
  </defs>
  <g id="Group_210" data-name="Group 210" transform="translate(-1422.601 -5064.6)">
    <circle id="Ellipse_12" data-name="Ellipse 12" cx="80" cy="80" r="80" transform="translate(1582.601 5064.6) rotate(90)" fill="url(#linear-gradient)"/>
    <g id="complain" transform="translate(1456.365 5104.6)">
      <path id="Path_45" data-name="Path 45" d="M30.971,0A22.734,22.734,0,0,1,48.038,37.751a1.265,1.265,0,0,0-.2,1.384A20.812,20.812,0,0,0,50.406,43.2a.761.761,0,0,1-.493,1.233c-2.625.347-5.813-.97-7.189-1.62a1.263,1.263,0,0,0-1.132.027A22.622,22.622,0,0,1,31.27,45.466,22.734,22.734,0,1,1,30.971,0Z" fill="#8ebf2d"/>
      <path id="Path_46" data-name="Path 46" d="M178.29,43.242a.761.761,0,0,1-.492,1.233,10.221,10.221,0,0,1-3.882-.387c.053,0,.107-.011.16-.018a.761.761,0,0,0,.492-1.233A20.871,20.871,0,0,1,172,38.775a1.27,1.27,0,0,1,.2-1.385A22.734,22.734,0,0,0,159.461.052a22.732,22.732,0,0,1,16.462,37.743,1.271,1.271,0,0,0-.2,1.385A20.866,20.866,0,0,0,178.29,43.242Z" transform="translate(-127.885 -0.044)" fill="#5c8e00"/>
      <g id="Group_221" data-name="Group 221" transform="translate(16.126 19.647)">
        <g id="Group_220" data-name="Group 220">
          <g id="Group_217" data-name="Group 217" transform="translate(23.537)">
            <circle id="Ellipse_20" data-name="Ellipse 20" cx="3.076" cy="3.076" r="3.076" transform="translate(0)" fill="#ffeee7"/>
          </g>
          <g id="Group_218" data-name="Group 218" transform="translate(11.768)">
            <circle id="Ellipse_21" data-name="Ellipse 21" cx="3.076" cy="3.076" r="3.076" fill="#ffeee7"/>
          </g>
          <g id="Group_219" data-name="Group 219">
            <circle id="Ellipse_22" data-name="Ellipse 22" cx="3.076" cy="3.076" r="3.076" fill="#ffeee7"/>
          </g>
        </g>
      </g>
      <g id="Group_223" data-name="Group 223" transform="translate(26.375 5.27)">
        <path id="Path_47" data-name="Path 47" d="M182.634,45.05a18.526,18.526,0,0,0-5.645-7.471c-2.708-2.106-6.582-4.483-10.115-2.934a5.844,5.844,0,0,0-2.381,1.959,7.779,7.779,0,0,0-1.023,1.946c-.056.153-2.359,7.448-3.213,11-.571,2.378-.139,4.02,1.382,5.317A8.823,8.823,0,0,0,163.385,56c1.636.829,3.335,1.526,5.04,2.214l.713.288,2,.759-.737,2.1A73.6,73.6,0,0,1,151.79,90.135L150.4,91.621l-1.755-1.668a39.365,39.365,0,0,0-4.13-4.074c-2.665-2.095-4.76-2.217-7.456-.18a85.09,85.09,0,0,0-9.087,7.713c-3.088,3.1-2.872,6.073.156,9.246a17.057,17.057,0,0,0,9.589,5c4.795.868,10.237-.764,14.43-3.205a63.5,63.5,0,0,0,9.917-7.106l4.184-4.031c7.468-7.915,12.614-17.607,15.924-28.631,1.841-6.133,2.992-13.587.458-19.639Z" transform="translate(-125.758 -34.148)" fill="#8ebf2d"/>
        <path id="Path_48" data-name="Path 48" d="M358.837,59.325c2.378-6.879,4.495-14.107,6.294-21.318-.146-.123-.3-.242-.447-.359-2.437-1.884-5.712-3.924-8.924-3.306a6.384,6.384,0,0,0-4.753,4.741c-1.082,3.494-2.2,6.984-3.055,10.536-.75,3.122.228,4.975,3.128,6.445,1.863.946,3.814,1.721,5.754,2.5Z" transform="translate(-313.455 -34.217)" fill="#5c8e00"/>
        <path id="Path_49" data-name="Path 49" d="M150.4,366.082c-2.44,2.492-5.009,4.927-7.677,7.336a93.594,93.594,0,0,1-9.176,7.468,16.323,16.323,0,0,1-5.417-3.768c-3.028-3.172-3.243-6.142-.157-9.245a85.046,85.046,0,0,1,9.087-7.713c2.7-2.038,4.791-1.915,7.456.18a39.587,39.587,0,0,1,4.131,4.072Z" transform="translate(-125.759 -308.608)" fill="#5c8e00"/>
        <g id="ADEcVW_1_" transform="translate(0.093 7.027)">
          <g id="Group_222" data-name="Group 222">
            <path id="Path_50" data-name="Path 50" d="M182.682,103.189c-5.087,16.939-14.505,30.732-30.025,39.768-4.193,2.442-9.635,4.073-14.431,3.206a17.053,17.053,0,0,1-9.589-5,8.084,8.084,0,0,1-2.28-3.868c.068.075.139.151.21.225a17.054,17.054,0,0,0,9.589,5c4.8.868,10.238-.763,14.431-3.206,15.52-9.036,24.938-22.829,30.025-39.768,1.841-6.133,2.992-13.586.459-19.638-.033-.078-.066-.156-.1-.234a18.9,18.9,0,0,1,2.171,3.876C185.674,89.6,184.524,97.056,182.682,103.189Z" transform="translate(-126.358 -79.675)"/>
          </g>
        </g>
        <path id="Path_51" data-name="Path 51" d="M136.157,458.216a17.052,17.052,0,0,1-9.589-5c-.071-.075-.142-.151-.21-.225l0,.02c.012.058.023.118.038.176a6.126,6.126,0,0,0,.252.757,7.377,7.377,0,0,0,.745,1.4,11.349,11.349,0,0,0,.957,1.217,15.427,15.427,0,0,0,1.158,1.156,16.409,16.409,0,0,0,2.362,1.779,16.664,16.664,0,0,0,1.727.93c.118.055.235.109.354.159.033.017.066.03.1.045,1.073-.753,2.085-1.505,3.058-2.267Q136.632,458.3,136.157,458.216Z" transform="translate(-126.265 -388.345)" fill="#1b1b1b"/>
      </g>
    </g>
  </g>
</svg>
