<svg xmlns="http://www.w3.org/2000/svg" width="41.85" height="38.007" viewBox="0 0 41.85 38.007">
  <g id="plant" transform="translate(0 0)">
    <g id="Group_22276" data-name="Group 22276" transform="translate(0 0)">
      <path id="Path_24815" data-name="Path 24815" d="M16.824,25.646C13.168,21.992,6.013,21.568.95,21.568a.95.95,0,0,0-.95.95c0,5.064.424,12.219,4.078,15.876a8.848,8.848,0,0,0,6.254,2.233,9.476,9.476,0,0,0,6.492-2.233C19.547,35.669,20.047,28.869,16.824,25.646Z" transform="translate(0 -21.568)" fill="#8ebf2d"/>
      <path id="Path_24816" data-name="Path 24816" d="M273.92,63.765c-5.064,0-12.219.424-15.876,4.078-3.231,3.231-2.723,10.021,0,12.746a9.477,9.477,0,0,0,6.493,2.233,8.85,8.85,0,0,0,6.254-2.233c3.656-3.656,4.078-10.811,4.078-15.876A.95.95,0,0,0,273.92,63.765Z" transform="translate(-233.02 -60.006)" fill="#8ebf2d"/>
    </g>
    <path id="Path_24817" data-name="Path 24817" d="M97.814,137.436a.95.95,0,0,1-.95-.95c0-20.153-7.391-25.21-10.173-27.113a7.428,7.428,0,0,1-.95-.72.95.95,0,0,1,1.344-1.344,5.848,5.848,0,0,0,.68.5c2.47,1.689,8.289,5.671,10.3,18.73a22.77,22.77,0,0,1,12.5-15.543,1.028,1.028,0,0,1,1.33.42.882.882,0,0,1-.332,1.2l-.048.026-.154.072c-10.418,4.9-12.605,15.631-12.605,23.774A.95.95,0,0,1,97.814,137.436Z" transform="translate(-77.861 -99.428)" fill="#abd252"/>
  </g>
</svg>
