<svg xmlns="http://www.w3.org/2000/svg" xmlns:xlink="http://www.w3.org/1999/xlink" width="160" height="160" viewBox="0 0 160 160">
  <defs>
    <linearGradient id="linear-gradient" x1="0.298" y1="0.411" x2="0.936" y2="0.721" gradientUnits="objectBoundingBox">
      <stop offset="0" stop-color="#acc288" stop-opacity="0"/>
      <stop offset="1" stop-color="#b0c18e" stop-opacity="0.412"/>
    </linearGradient>
  </defs>
  <g id="Group_210" data-name="Group 210" transform="translate(-1422.601 -5064.6)">
    <circle id="Ellipse_12" data-name="Ellipse 12" cx="80" cy="80" r="80" transform="translate(1582.601 5064.6) rotate(90)" fill="url(#linear-gradient)"/>
    <g id="supplies" transform="translate(964.463 4608.6)">
      <path id="Path_24159" data-name="Path 24159" d="M1257.655,2592.913h0Z" transform="translate(-736.649 -2043.349)" fill="#9eddff"/>
      <path id="Path_24160" data-name="Path 24160" d="M555.169,2619.876a.613.613,0,0,1,1.026.455v3.4a.613.613,0,0,1-1.107.366v10.568h12.289a2.473,2.473,0,0,0,2.453-2.783l-.2-1.565a71.55,71.55,0,0,1-.52-11.422h-12.59A1.43,1.43,0,0,0,555.169,2619.876Z" transform="translate(-50.72 -2068.719)" fill="#8ebf2d"/>
      <path id="Path_24161" data-name="Path 24161" d="M573.128,2613.775a1.357,1.357,0,0,1-.247-1.18l.738-2.8-.6-4.743a72.265,72.265,0,0,1-.5-12.114h-.8a.615.615,0,0,1-.615.615h-2a71.533,71.533,0,0,0,.52,11.422l.2,1.564a2.473,2.473,0,0,1-2.453,2.783H555.089v2.433a1.435,1.435,0,0,0,1.433,1.433h14.589a.615.615,0,0,1,.615.615h1.427C573.146,2613.792,573.135,2613.785,573.128,2613.775Z" transform="translate(-50.721 -2043.371)" fill="#5c8e00"/>
      <rect id="Rectangle_6433" data-name="Rectangle 6433" height="1.484" transform="translate(535.238 532.732)" fill="#9eddff"/>
      <path id="Path_24162" data-name="Path 24162" d="M781.176,1683.585l-.107-.012q-.3-.033-.587-.09l-.067-.012c-.128-.027-.253-.058-.378-.092,0,.015-.006.031-.012.046a.615.615,0,0,1-.79.365,7.663,7.663,0,0,1-5.014-7.162v-.963h-4.967v13.2h13.18l.278-2.2-.738-2.8a1.322,1.322,0,0,1-.035-.245c-.031,0-.061,0-.093,0C781.621,1683.621,781.4,1683.606,781.176,1683.585Z" transform="translate(-259.817 -1147.824)" fill="#8ebf2d"/>
      <path id="Path_24163" data-name="Path 24163" d="M1491.258,1675.664v.963a7.609,7.609,0,0,1-.911,3.6.615.615,0,0,1-.834.249c-.01-.005-.018-.013-.027-.019a7.045,7.045,0,0,1-1.422,1.577h4.154v-6.375Z" transform="translate(-961.602 -1147.822)" fill="#5c8e00"/>
      <path id="Path_24164" data-name="Path 24164" d="M789.472,748.482v.963h.96V735.053a3.224,3.224,0,0,1,1.342-2.617H769.256v1.835a.612.612,0,0,1,.994.481v4.3a.612.612,0,0,1-.994.481v9.912h4.967v-.963a7.625,7.625,0,1,1,15.25,0Z" transform="translate(-259.817 -226.931)" fill="#8ebf2d"/>
      <path id="Path_24165" data-name="Path 24165" d="M769.256,2236.875h10.951a.615.615,0,0,1,.615.615h1.086c.063-.628.129-1.257.208-1.883l.321-2.541h-13.18v3.809Z" transform="translate(-259.817 -1692.025)" fill="#5c8e00"/>
      <path id="Path_24166" data-name="Path 24166" d="M1667.471,1679.94v-4.275h-4.007v6.375h4.622v-1.484A.615.615,0,0,1,1667.471,1679.94Z" transform="translate(-1132.849 -1147.823)" fill="#5c8e00"/>
      <path id="Path_24167" data-name="Path 24167" d="M1663.464,735.054v14.392h4.007V732.437h-2.665A3.224,3.224,0,0,0,1663.464,735.054Z" transform="translate(-1132.848 -226.932)" fill="#5c8e00"/>
      <g id="Group_22032" data-name="Group 22032" transform="translate(507.238 515.156)">
        <path id="Path_24168" data-name="Path 24168" d="M1053.077,1197.8a6.421,6.421,0,0,0-1.975,2.609A7.747,7.747,0,0,1,1053.077,1197.8Z" transform="translate(-1042.226 -1196.432)" fill="#ffe76b"/>
        <path id="Path_24169" data-name="Path 24169" d="M1039.461,1154.932a4.147,4.147,0,0,1-5.724-5.63l2.381-4.123a1.4,1.4,0,0,1,2.42,0l2.38,4.123a4.3,4.3,0,0,1,.213.431v-6.568a7.013,7.013,0,0,0-.342-2.161,6.351,6.351,0,0,0-6.613-.188.614.614,0,0,1,.468,1.1,6.484,6.484,0,0,0-2.388,3.219.613.613,0,0,1-1.186-.081,6.387,6.387,0,0,0-.137,1.313v7.255a6.365,6.365,0,0,0,1.018,3.439,7.012,7.012,0,0,0,7.51-2.134Z" transform="translate(-1022.535 -1139.979)" fill="#c1f261"/>
        <path id="Path_24170" data-name="Path 24170" d="M1268.106,2009.572l.107.011Z" transform="translate(-1254.091 -1988.979)" fill="#ffe76b"/>
        <path id="Path_24171" data-name="Path 24171" d="M1240.5,2005.277l.067.012Z" transform="translate(-1227.141 -1984.785)" fill="#ffe76b"/>
        <path id="Path_24172" data-name="Path 24172" d="M689.47,2420.492H677.661a1.345,1.345,0,0,0-1.343,1.343v.18a1.345,1.345,0,0,0,1.343,1.344H689.47a.615.615,0,0,1,.615.615h.8q.087-2.052.288-4.1h-1.086A.615.615,0,0,1,689.47,2420.492Z" transform="translate(-676.318 -2389.567)" fill="#c1f261"/>
        <path id="Path_24173" data-name="Path 24173" d="M677.656,1505.489h.243c.01,0,.02,0,.029,0l.028,0h5.524v-2.867h-5.825a1.345,1.345,0,0,0-1.343,1.343v.18A1.345,1.345,0,0,0,677.656,1505.489Z" transform="translate(-676.313 -1494.034)" fill="#c1f261"/>
        <path id="Path_24174" data-name="Path 24174" d="M1622.927,1502.622h.96v2.867h-.96Z" transform="translate(-1600.51 -1494.034)" fill="#8ebf2d"/>
      </g>
      <path id="Path_24175" data-name="Path 24175" d="M1668.085,1505.489h.243a1.345,1.345,0,0,0,1.343-1.343v-.181a1.345,1.345,0,0,0-1.343-1.344h-4.865v2.867Z" transform="translate(-1132.848 -978.878)" fill="#c1f261"/>
      <path id="Path_24176" data-name="Path 24176" d="M1085.17,1199.741a.613.613,0,0,1-.221-.815,6.375,6.375,0,0,0,.763-3.02v-7.254a6.39,6.39,0,0,0-2.934-5.369,7.017,7.017,0,0,1,.342,2.161v6.568a4.093,4.093,0,0,1-.213,3.715,4.136,4.136,0,0,1-1.456,1.484,7.011,7.011,0,0,1-7.51,2.135,6.428,6.428,0,0,0,3.189,2.568.614.614,0,0,1,.377.744c.125.033.25.065.378.091l.067.012c.193.038.389.068.587.09l.107.012c.221.021.445.036.672.036.031,0,.061,0,.093,0a1.361,1.361,0,0,1,.282-.935,1.728,1.728,0,0,1,1.371-.641h2.685A7.047,7.047,0,0,0,1085.17,1199.741Z" transform="translate(-557.286 -667.102)" fill="#5c8e00"/>
      <path id="Path_24177" data-name="Path 24177" d="M682.951,559.811a.615.615,0,0,1-.615.615h-1.348a1.356,1.356,0,0,0-1.15.652.6.6,0,0,1-.78.235,1.341,1.341,0,0,0,1.278.952h26.9a1.345,1.345,0,0,0,1.343-1.344v-.18a1.345,1.345,0,0,0-1.343-1.344H682.789A.611.611,0,0,1,682.951,559.811Z" transform="translate(-171.755 -57.991)" fill="#c1f261"/>
      <path id="Path_24178" data-name="Path 24178" d="M1204.665,1390.618a2.915,2.915,0,0,0,2.525-4.373l-2.38-4.123a.167.167,0,0,0-.289,0l-1.891,3.275a.612.612,0,0,1,.65.909,2.87,2.87,0,0,0-.252,2.35.615.615,0,0,1-.585.806.6.6,0,0,1-.114-.018A2.879,2.879,0,0,0,1204.665,1390.618Z" transform="translate(-682.635 -861.151)" fill="#8ebf2d"/>
      <path id="Path_24179" data-name="Path 24179" d="M770.249,809.175v-4.3a.612.612,0,0,0-.994-.481v5.262a.612.612,0,0,0,.994-.481Z" transform="translate(-259.816 -297.055)" fill="#fff"/>
      <path id="Path_24180" data-name="Path 24180" d="M555.579,2658.08a.615.615,0,0,0,.615-.615v-3.4a.613.613,0,0,0-1.026-.455,1.417,1.417,0,0,0-.081.455v3.768A.612.612,0,0,0,555.579,2658.08Z" transform="translate(-50.719 -2102.452)" fill="#fff"/>
      <path id="Path_24181" data-name="Path 24181" d="M520.39,577.077H505.8a1.435,1.435,0,0,1-1.433-1.433V558.875a1.416,1.416,0,0,1,.081-.455,1.43,1.43,0,0,1,1.352-.979H520.39a.615.615,0,0,0,.615-.615h0a.615.615,0,0,0-.615-.615H508.581a1.345,1.345,0,0,1-1.343-1.343v-.18a1.345,1.345,0,0,1,1.343-1.343H520.39a.615.615,0,0,0,0-1.23H509.439V535.1h4.966v.963a7.664,7.664,0,0,0,5.014,7.162.615.615,0,0,0,.789-.366c.006-.015.007-.031.012-.046a.614.614,0,0,0-.377-.744,6.448,6.448,0,0,1-4.208-6.007v-7.255a6.393,6.393,0,0,1,.137-1.313,6.322,6.322,0,0,1,.341-1.1,6.458,6.458,0,0,1,2.765-3.14,6.4,6.4,0,0,1,9.547,5.557v7.255a6.377,6.377,0,0,1-.763,3.02.613.613,0,0,0,.221.815c.01.006.018.013.028.019a.615.615,0,0,0,.834-.249,7.609,7.609,0,0,0,.911-3.6V535.1h4.967v4.275a.615.615,0,0,0,1.23,0v-4.3a2.578,2.578,0,0,0,2.2-2.547v-.18a2.577,2.577,0,0,0-1.722-2.427.61.61,0,0,0-.4-.147h-.083V512.737a2.575,2.575,0,0,0,2.2-2.544v-.181a2.577,2.577,0,0,0-2.574-2.574h-26.9a2.576,2.576,0,0,0-2.573,2.574v.181a2.575,2.575,0,0,0,2.2,2.544V529.8a2.578,2.578,0,0,0-2.2,2.547v.18a2.577,2.577,0,0,0,2.2,2.547v17.066a2.575,2.575,0,0,0-2.2,2.544v.18a2.555,2.555,0,0,0,.383,1.344h-.59a2.666,2.666,0,0,0-2.664,2.664v16.769a2.666,2.666,0,0,0,2.664,2.664H520.39a.615.615,0,0,0,.615-.614h0a.615.615,0,0,0-.615-.615Zm16.433-67.064v.181a1.345,1.345,0,0,1-1.343,1.343h-26.9a1.37,1.37,0,0,1-1.343-1.343v-.181a1.345,1.345,0,0,1,1.343-1.344h26.9A1.345,1.345,0,0,1,536.823,510.013Zm-22.417,18.8v.963h-4.967V512.767h25.183v17.009h-4.967v-.963a7.625,7.625,0,0,0-15.25,0Zm15.25,2.193h5.825a1.345,1.345,0,0,1,1.343,1.344v.18a1.345,1.345,0,0,1-1.343,1.343h-5.825Zm-22.417,1.343a1.345,1.345,0,0,1,1.343-1.343h5.825v2.868h-5.524l-.028,0c-.01,0-.019,0-.029,0h-.243a1.345,1.345,0,0,1-1.343-1.344v-.18Z" transform="translate(0 -7.263)" fill="#1c3359"/>
      <path id="Path_24182" data-name="Path 24182" d="M677.16,561.073a1.356,1.356,0,0,1,1.15-.652h1.348a.613.613,0,0,0,.453-1.029h-2.453a1.345,1.345,0,0,0-1.343,1.344v.181a1.33,1.33,0,0,0,.065.391.6.6,0,0,0,.78-.235Z" transform="translate(-169.077 -57.985)" fill="#fff"/>
      <path id="Path_24183" data-name="Path 24183" d="M1037.128,1179.641a.614.614,0,0,0,.778-.39,6.484,6.484,0,0,1,2.388-3.219.614.614,0,0,0-.468-1.1,6.424,6.424,0,0,0-.789.531,7.747,7.747,0,0,0-1.976,2.609,6.321,6.321,0,0,0-.341,1.1A.612.612,0,0,0,1037.128,1179.641Z" transform="translate(-520.947 -658.933)" fill="#fff"/>
      <path id="Path_24184" data-name="Path 24184" d="M1178.55,1527.369a.615.615,0,0,0,.394-.776,2.868,2.868,0,0,1,.252-2.35.615.615,0,0,0-.225-.84.609.609,0,0,0-.425-.068l-.49.848a2.884,2.884,0,0,0,0,2.915,2.952,2.952,0,0,0,.189.283.59.59,0,0,0,.114.018A.62.62,0,0,0,1178.55,1527.369Z" transform="translate(-658.55 -999.088)" fill="#fff"/>
      <path id="Path_24185" data-name="Path 24185" d="M1130.976,1330.785a1.4,1.4,0,0,0-2.42,0l-2.381,4.123a4.146,4.146,0,1,0,7.394.431,4.3,4.3,0,0,0-.213-.431Zm-3.734,7.654a2.885,2.885,0,0,1,0-2.916l.49-.848,1.891-3.275a.167.167,0,0,1,.289,0l2.38,4.123a2.914,2.914,0,0,1-4.86,3.2A2.984,2.984,0,0,1,1127.241,1338.439Z" transform="translate(-607.735 -810.429)" fill="#1c3359"/>
      <path id="Path_24186" data-name="Path 24186" d="M1354.816,2187.341a.609.609,0,0,1-.015-.295,13.486,13.486,0,0,0,.213-3.979,5.435,5.435,0,0,1-4.635-.381,10.413,10.413,0,0,1-4.92-11.725.575.575,0,0,1,.105-.373c.055-.179.11-.358.174-.536a.616.616,0,0,1,.422-.385,10.422,10.422,0,0,1,12.154,5.779,5.534,5.534,0,0,1-1.386,6.449,6.07,6.07,0,0,1-.74.572,14.713,14.713,0,0,1-.18,4.825c0,.018-.014.031-.019.048h.564a3.256,3.256,0,0,0,3.153-3.563,71.693,71.693,0,0,1,.319-14.855l.537-4.236h-19.232l-.544,4.314a71.084,71.084,0,0,0,0,17.787l.07.553Z" transform="translate(-817.265 -1625.265)" fill="#fff"/>
      <path id="Path_24187" data-name="Path 24187" d="M1376.994,1996.794h-20.118a.5.5,0,0,0-.4.162.121.121,0,0,0-.032.115l.65,2.469h19.31l.609-2.314A.7.7,0,0,0,1376.994,1996.794Z" transform="translate(-833.099 -1461.348)" fill="#c1f261"/>
      <path id="Path_24188" data-name="Path 24188" d="M2296.178,2138.686h0Z" transform="translate(-1749.421 -1599.879)" fill="#ffe76b"/>
      <path id="Path_24189" data-name="Path 24189" d="M1376.993,3334.844a.706.706,0,0,0,.024-.434l-.609-2.312H1357.1l-.65,2.469a.121.121,0,0,0,.032.115.5.5,0,0,0,.4.162Z" transform="translate(-833.099 -2765.031)" fill="#c1f261"/>
      <path id="Path_24190" data-name="Path 24190" d="M1389.93,2166.3l-.6-4.744a72.28,72.28,0,0,1,0-18.1l.6-4.747-.008-.029h-1.187a.615.615,0,0,1-.615.615h-1.66l-.537,4.236a71.7,71.7,0,0,0-.319,14.855,3.256,3.256,0,0,1-3.153,3.563h-.564a.612.612,0,0,1-.583.444.633.633,0,0,1-.124-.012.614.614,0,0,1-.465-.431h-13.962l.475,3.762h20.892a.615.615,0,0,1,.615.614h1.186Z" transform="translate(-843.165 -1599.878)" fill="#d5dfed"/>
      <path id="Path_24191" data-name="Path 24191" d="M2359.71,2187.319l-5.545-10.539a1.431,1.431,0,0,1,1.543-2.066l-1.113-3.171a3.9,3.9,0,0,1,7.367-2.584l1.113,3.172a1.406,1.406,0,0,1,.99-.5,1.391,1.391,0,0,1,1.506,1.151l2.371,12.3a2.862,2.862,0,0,1,.043.707,5.394,5.394,0,0,0,1.6-3.194,71.61,71.61,0,0,0,.018-17.926h-20.433l-.544,4.315a71.093,71.093,0,0,0,0,17.787l.07.553Z" transform="translate(-1801.241 -1625.242)" fill="#fff"/>
      <path id="Path_24192" data-name="Path 24192" d="M2399.273,2169.1l-.555-4.436h-3.209a71.61,71.61,0,0,1-.018,17.926,5.4,5.4,0,0,1-1.6,3.195,2.853,2.853,0,0,1-2.106,2.6l-2.6.912c-.019.007-.039.012-.058.017a2.867,2.867,0,0,1-3.225-1.454l-.287-.545H2374.6l.475,3.762h23.644l.534-4.192A71.059,71.059,0,0,0,2399.273,2169.1Z" transform="translate(-1827.144 -1625.241)" fill="#d5dfed"/>
      <path id="Path_24193" data-name="Path 24193" d="M2202.19,1997.385a1.319,1.319,0,0,1-.02-.589h-2.114a.706.706,0,0,1,.024.432l-.609,2.314h1.647a.615.615,0,0,1,.615.615h1.186Z" transform="translate(-1656.162 -1461.349)" fill="#8ebf2d"/>
      <path id="Path_24194" data-name="Path 24194" d="M2200.073,3309.44h2.115a1.33,1.33,0,0,1,.018-.59l.73-2.771h-1.186a.615.615,0,0,1-.615.615h-1.646l.609,2.313A.708.708,0,0,1,2200.073,3309.44Z" transform="translate(-1656.179 -2739.626)" fill="#8ebf2d"/>
      <path id="Path_24195" data-name="Path 24195" d="M2364.742,1996.854a.507.507,0,0,0-.4.161.117.117,0,0,0-.03.111l.651,2.472h20.389l.609-2.313a.7.7,0,0,0-.023-.43Z" transform="translate(-1817.098 -1461.406)" fill="#c1f261"/>
      <path id="Path_24196" data-name="Path 24196" d="M2385.951,3334.412l-.609-2.312h-20.391l-.65,2.469a.122.122,0,0,0,.031.115.5.5,0,0,0,.4.161h21.2A.71.71,0,0,0,2385.951,3334.412Z" transform="translate(-1817.085 -2765.031)" fill="#c1f261"/>
      <path id="Path_24197" data-name="Path 24197" d="M3253.579,1997.285l-.609,2.313h3.383l.646-2.469v0a.116.116,0,0,0-.03-.111.5.5,0,0,0-.4-.161h-3.017A.7.7,0,0,1,3253.579,1997.285Z" transform="translate(-2684.712 -1461.407)" fill="#8ebf2d"/>
      <path id="Path_24198" data-name="Path 24198" d="M3256.364,3332.1h-3.381l.609,2.312a.708.708,0,0,1-.024.434h3.019a.5.5,0,0,0,.4-.162.121.121,0,0,0,.031-.115Z" transform="translate(-2684.725 -2765.031)" fill="#8ebf2d"/>
      <path id="Path_24199" data-name="Path 24199" d="M3001.742,2524.234a1.642,1.642,0,0,0,.307-1.308l-2.371-12.3a.194.194,0,0,0-.384.029l-.5,12.515a1.642,1.642,0,0,0,1.764,1.7,1.588,1.588,0,0,0,.294-.054l.128-.045.016,0A1.638,1.638,0,0,0,3001.742,2524.234Z" transform="translate(-2436.557 -1962.858)" fill="#c1f261"/>
      <path id="Path_24200" data-name="Path 24200" d="M2670.193,2289.739a.616.616,0,0,1-.377.784l-2.148.753a.612.612,0,0,1,.224.346,9.117,9.117,0,0,0,.663,1.9.613.613,0,0,1,.058.276l2.129-.747a.615.615,0,1,1,.407,1.161l-3.134,1.1.424,1.208,4.756,5.483.289-7.254-1.878-5.354a2.672,2.672,0,0,0-5.191,1.022l2.994-1.05A.615.615,0,0,1,2670.193,2289.739Z" transform="translate(-2112.044 -1745.267)" fill="#acc288"/>
      <path id="Path_24201" data-name="Path 24201" d="M2658.411,2651.732a2.826,2.826,0,0,1-1.184-2.435l.069-1.738-6.748-7.78a.194.194,0,0,0-.319.218l5.832,11.084a1.64,1.64,0,0,0,1.817.838Z" transform="translate(-2096.217 -2089.032)" fill="#c1f261"/>
      <path id="Path_24202" data-name="Path 24202" d="M1598.6,2463.191a9.19,9.19,0,0,0-.18,2.383.614.614,0,0,1,1.186.15,9.116,9.116,0,0,0,.847,3,.615.615,0,0,1-.289.82.605.605,0,0,1-.265.061.615.615,0,0,1-.358-.121,9.162,9.162,0,0,0,3.513,3.569,4.253,4.253,0,0,0,3.85.2A13.532,13.532,0,0,0,1598.6,2463.191Z" transform="translate(-1069.327 -1916.699)" fill="#c1f261"/>
      <path id="Path_24203" data-name="Path 24203" d="M1644.809,2417.941a9.185,9.185,0,0,0-9.99-5.252,14.765,14.765,0,0,1,8.746,10.412c.05-.042.1-.083.15-.127A4.32,4.32,0,0,0,1644.809,2417.941Z" transform="translate(-1104.882 -1867.251)" fill="#c1f261"/>
      <path id="Path_24204" data-name="Path 24204" d="M1340.173,1954.329l-.608-4.861.736-2.809a1.351,1.351,0,0,0-.243-1.176,1.728,1.728,0,0,0-1.373-.642H1290.6a1.728,1.728,0,0,0-1.371.641,1.362,1.362,0,0,0-.282.935,1.339,1.339,0,0,0,.035.245l.738,2.8-.278,2.2-.321,2.541c-.079.627-.145,1.255-.208,1.883q-.2,2.045-.287,4.1h0a72.285,72.285,0,0,0,.5,12.114l.6,4.743-.738,2.8a1.356,1.356,0,0,0,.247,1.18c.008.01.019.017.026.027a1.73,1.73,0,0,0,1.344.614h48.084a1.728,1.728,0,0,0,1.371-.641,1.357,1.357,0,0,0,.246-1.18l-.738-2.8.589-4.62A72.311,72.311,0,0,0,1340.173,1954.329Zm-50,25.832.65-2.469h20.957a.615.615,0,0,0,.615-.615h0a.615.615,0,0,0-.615-.614h-20.892l-.475-3.762-.07-.552a71.072,71.072,0,0,1,0-17.787l.544-4.314h20.892a.615.615,0,0,0,.615-.615h0a.615.615,0,0,0-.615-.614h-20.957l-.65-2.469a.121.121,0,0,1,.032-.115.5.5,0,0,1,.4-.162h22.231a1.316,1.316,0,0,0,.02.589l.73,2.771h0l.007.029-.6,4.747a72.29,72.29,0,0,0,0,18.1l.6,4.744-.008.03-.73,2.772a1.336,1.336,0,0,0-.018.59H1290.6a.5.5,0,0,1-.4-.162A.121.121,0,0,1,1290.172,1980.161Zm48.908.115a.5.5,0,0,1-.4.162h-24.218a.5.5,0,0,1-.4-.161.121.121,0,0,1-.031-.115l.65-2.469h23.772l.65,2.469A.12.12,0,0,1,1339.081,1980.277Zm-.148-8.006-.534,4.192h-23.644l-.475-3.762-.07-.553a71.071,71.071,0,0,1,0-17.787l.545-4.315H1338.4l.555,4.436A71.066,71.066,0,0,1,1338.932,1972.271Zm-.248-26.2a.5.5,0,0,1,.4.161.116.116,0,0,1,.03.111v0l-.647,2.469h-23.772l-.651-2.472a.117.117,0,0,1,.03-.111.506.506,0,0,1,.4-.161Z" transform="translate(-766.823 -1410.624)" fill="#1c3359"/>
      <path id="Path_24205" data-name="Path 24205" d="M2612.118,2254.354l-2.371-12.3a1.39,1.39,0,0,0-1.506-1.15,1.4,1.4,0,0,0-.99.5l-1.113-3.171a3.9,3.9,0,0,0-7.367,2.584l1.113,3.171a1.405,1.405,0,0,0-1.087.227,1.39,1.39,0,0,0-.457,1.839l5.545,10.539.287.545a2.869,2.869,0,0,0,3.225,1.454l.057-.017,2.6-.912a2.89,2.89,0,0,0,2.063-3.312Zm-6.856,2.214-5.832-11.084a.194.194,0,0,1,.319-.218l6.748,7.78-.069,1.738a2.826,2.826,0,0,0,1.184,2.436l-.532.187A1.64,1.64,0,0,1,2605.262,2256.567ZM2601.571,2237a2.673,2.673,0,0,1,3.408,1.637l1.878,5.354-.289,7.254-4.756-5.483-.424-1.208,3.134-1.1a.615.615,0,0,0-.407-1.161l-2.13.747-1,.352-.89-2.536.95-.333,2.148-.753a.615.615,0,0,0-.407-1.161l-2.994,1.05A2.677,2.677,0,0,1,2601.571,2237Zm8.289,19.428-.016,0-.127.045a1.637,1.637,0,0,1-2.059-1.649l.5-12.515a.194.194,0,0,1,.384-.029l2.371,12.3a1.623,1.623,0,0,1-1.051,1.846Z" transform="translate(-2045.417 -1694.519)" fill="#1c3359"/>
      <path id="Path_24206" data-name="Path 24206" d="M2681.2,2445.074a9.107,9.107,0,0,1-.663-1.9.611.611,0,0,0-.224-.345l-.95.333.89,2.536,1-.352A.61.61,0,0,0,2681.2,2445.074Z" transform="translate(-2124.692 -1896.824)" fill="#fff"/>
      <path id="Path_24207" data-name="Path 24207" d="M1600.731,2551.252a.614.614,0,0,0,.289-.82,9.125,9.125,0,0,1-.846-3,.614.614,0,0,0-1.186-.149,9.142,9.142,0,0,0,1.12,3.907.6.6,0,0,0,.624.06Z" transform="translate(-1069.899 -1998.411)" fill="#fff"/>
      <path id="Path_24208" data-name="Path 24208" d="M1557.485,2373.555a6.068,6.068,0,0,0,.74-.572,5.534,5.534,0,0,0,1.387-6.449,10.422,10.422,0,0,0-12.154-5.779.615.615,0,0,0-.422.385c-.064.177-.12.357-.174.536a.623.623,0,0,0-.075.146.613.613,0,0,0-.03.227,10.413,10.413,0,0,0,4.92,11.725,5.437,5.437,0,0,0,4.635.381,13.494,13.494,0,0,1-.213,3.979.623.623,0,0,0,.479.726.6.6,0,0,0,.124.013.612.612,0,0,0,.583-.444c0-.017.016-.031.019-.048A14.713,14.713,0,0,0,1557.485,2373.555Zm-5.2-.852a9.177,9.177,0,0,1-4.452-9.86,13.532,13.532,0,0,1,8.3,10.055A4.253,4.253,0,0,1,1552.284,2372.7Zm-3.783-10.914a9.186,9.186,0,0,1,9.99,5.252,4.32,4.32,0,0,1-1.095,5.033c-.049.044-.1.084-.15.126A14.765,14.765,0,0,0,1548.5,2361.788Z" transform="translate(-1018.563 -1816.351)" fill="#1c3359"/>
      <path id="Path_24209" data-name="Path 24209" d="M2221.984,577.268a15.162,15.162,0,0,0,5.757-1.13l-1.688-2.62a.845.845,0,0,1,.022-.953l2.369-3.333a.85.85,0,0,1,1.542.512l-.011.5,1.071-.005-1.423-2.438a.642.642,0,0,1,.235-.881l3.747-2.143a.662.662,0,0,1,.874.236l1.607,2.752a15.191,15.191,0,0,0-.581-12.677,14.552,14.552,0,0,0-15.763-1.479.613.613,0,0,1,.273,1.151,13.562,13.562,0,0,0-5.487,5.626.613.613,0,0,1-1.157-.246,14.559,14.559,0,0,0,1.638,15.427A15.106,15.106,0,0,0,2221.984,577.268Zm-1.872-15.661.96-1.644v0l2.248-3.852,0,0,.013-.023a.672.672,0,0,1,.558-.319l5.012.024a.666.666,0,0,1,.554.323l2.392,4.189.558-.3a.85.85,0,0,1,1.153,1.146l-1.9,3.618a.846.846,0,0,1-.751.454.779.779,0,0,1-.089,0l-4.068-.424a.85.85,0,0,1-.313-1.6l.442-.237-.531-.93-1.423,2.438a.643.643,0,0,1-.885.227l-3.706-2.209A.663.663,0,0,1,2220.112,561.607Zm-4.856,8.893,2.379-4.191-.542-.328a.85.85,0,0,1,.4-1.576l4.085-.21a.846.846,0,0,1,.815.493l1.712,3.714a.85.85,0,0,1-1.212,1.083l-.43-.26-.528.931,2.823-.021a.65.65,0,0,1,.457.186.67.67,0,0,1,.19.456l-.008,4.317a.662.662,0,0,1-.637.641l-6.368.047h-.036a.666.666,0,0,1-.553-.316l-2.539-4.323A.669.669,0,0,1,2215.256,570.5Z" transform="translate(-1668.279 -50.724)" fill="#8ebf2d"/>
      <path id="Path_24210" data-name="Path 24210" d="M2365,697l1.619,2.773a.668.668,0,0,1,0,.643l-2.484,4.352a.668.668,0,0,1-.555.324l-4.822.023-.015.633a.845.845,0,0,1-.619.8.861.861,0,0,1-.233.032.846.846,0,0,1-.712-.39l-.527-.818a15.186,15.186,0,0,1-12.732-.571,14.591,14.591,0,1,0,20.5-20.478A15.19,15.19,0,0,1,2365,697Z" transform="translate(-1797.192 -179.957)" fill="#5c8e00"/>
      <path id="Path_24211" data-name="Path 24211" d="M2762.927,764.932l2.387,4.242v0l.93,1.631a.639.639,0,0,1-.158.818l2.6.271,1.209-2.3a.666.666,0,0,1-.791-.242l-.254-.393a.328.328,0,0,1-.018-.031l-2.276-3.984Z" transform="translate(-2206.274 -258.658)" fill="#c1f261"/>
      <path id="Path_24212" data-name="Path 24212" d="M2620.844,794.149l-1.784-3.171-2.4,4.11,2.7,1.607Z" transform="translate(-2063.473 -284.087)" fill="#c1f261"/>
      <path id="Path_24213" data-name="Path 24213" d="M3020.008,1154.918l3.638.005-1.731-2.965,0-.006-.665-1.139-2.725,1.559Z" transform="translate(-2455.816 -635.401)" fill="#c1f261"/>
      <path id="Path_24214" data-name="Path 24214" d="M2861.839,1357.33l.467-.029,4.625-.023,1.8-3.153-4.868-.007h0l-1.879.009h0a.669.669,0,0,1-.458-.192.677.677,0,0,1-.175-.348l-1.513,2.13,1.407,2.183A.665.665,0,0,1,2861.839,1357.33Z" transform="translate(-2300.886 -833.373)" fill="#c1f261"/>
      <path id="Path_24215" data-name="Path 24215" d="M2408.857,1121.426a.666.666,0,0,1,.2.8l-.209.421a.287.287,0,0,1-.017.031l-2.265,3.991,1.838,3.131,2.43-4.218v0l.928-1.633a.639.639,0,0,1,.785-.282l-1.094-2.373Z" transform="translate(-1858.35 -606.581)" fill="#c1f261"/>
      <path id="Path_24216" data-name="Path 24216" d="M2531.354,1371.9l-1.815,3.153,3.434-.026h0l1.323-.009.005-3.14Z" transform="translate(-1978.413 -851.232)" fill="#c1f261"/>
      <path id="Path_24217" data-name="Path 24217" d="M2556.24,719.474l3.706,2.208a.643.643,0,0,0,.885-.227l1.423-2.438.531.93-.443.237a.85.85,0,0,0,.313,1.595l4.068.424a.814.814,0,0,0,.089.005.847.847,0,0,0,.751-.454l1.9-3.618a.85.85,0,0,0-1.153-1.146l-.558.3-2.392-4.189a.666.666,0,0,0-.554-.323l-5.012-.024a.672.672,0,0,0-.558.319l-.013.023,0,0-2.249,3.852v0l-.96,1.644A.663.663,0,0,0,2556.24,719.474Zm10.519-1.453.254.393a.666.666,0,0,0,.791.241l-1.209,2.3-2.6-.271a.638.638,0,0,0,.158-.818l-.93-1.631v0l-2.387-4.242,3.631.017,2.275,3.984A.278.278,0,0,0,2566.76,718.021Zm-9.388.695,2.4-4.11,1.784,3.171-1.487,2.546Z" transform="translate(-2004.182 -207.714)" fill="#1c3359"/>
      <path id="Path_24218" data-name="Path 24218" d="M2807.577,1102.814a.863.863,0,0,0,.233-.032.845.845,0,0,0,.619-.8l.015-.633,4.822-.023a.667.667,0,0,0,.555-.324l2.485-4.352a.667.667,0,0,0,0-.643l-1.619-2.773-1.607-2.752a.662.662,0,0,0-.874-.236l-3.747,2.143a.642.642,0,0,0-.235.881l1.423,2.438-1.071.005.011-.5a.85.85,0,0,0-1.542-.512l-2.369,3.333a.846.846,0,0,0-.022.953l1.688,2.62.527.818A.846.846,0,0,0,2807.577,1102.814Zm-1.753-4.278,1.513-2.13a.64.64,0,0,0,.633.54h0l1.879-.009h0l4.868.007-1.8,3.153-4.625.023-.467.029a.665.665,0,0,0-.6.57Zm6.483-6.932.665,1.139,0,.006,1.731,2.966-3.638-.005-1.487-2.546Z" transform="translate(-2246.876 -576.192)" fill="#1c3359"/>
      <path id="Path_24219" data-name="Path 24219" d="M2353.544,1080.062a.666.666,0,0,0,.553.316h.036l6.368-.047a.662.662,0,0,0,.637-.641l.008-4.317a.667.667,0,0,0-.19-.456.649.649,0,0,0-.457-.186l-2.823.021.529-.931.43.26a.85.85,0,0,0,1.212-1.083l-1.712-3.714a.846.846,0,0,0-.815-.493l-4.084.209a.85.85,0,0,0-.4,1.576l.542.328-2.38,4.191a.669.669,0,0,0,0,.645Zm4.287-7.68a.67.67,0,0,0-.4.3l-.928,1.634v0l-2.43,4.218-1.837-3.131,2.265-3.99a.288.288,0,0,0,.017-.031l.209-.421a.666.666,0,0,0-.2-.8l2.594-.133,1.094,2.373A.668.668,0,0,0,2357.831,1072.382Zm2.079,6.723-1.323.009h0l-3.434.025,1.815-3.153,2.949-.022Z" transform="translate(-1804.025 -555.318)" fill="#1c3359"/>
      <path id="Path_24220" data-name="Path 24220" d="M2275.059,628.888a.615.615,0,0,0,.829-.262,13.561,13.561,0,0,1,5.488-5.626.614.614,0,0,0-.273-1.151,14.694,14.694,0,0,0-6.372,6.53A.613.613,0,0,0,2275.059,628.888Z" transform="translate(-1729.64 -118.963)" fill="#fff"/>
      <path id="Path_24221" data-name="Path 24221" d="M2175.758,500a15.83,15.83,0,1,0,15.83,15.83A15.848,15.848,0,0,0,2175.758,500Zm-13.112,9.416a14.7,14.7,0,0,1,6.372-6.53,14.6,14.6,0,1,1-6.372,6.53Z" transform="translate(-1617.555 0)" fill="#1c3359"/>
    </g>
  </g>
</svg>
