<svg xmlns="http://www.w3.org/2000/svg" xmlns:xlink="http://www.w3.org/1999/xlink" width="85" height="85" viewBox="0 0 85 85">
  <defs>
    <linearGradient id="linear-gradient" x1="0.298" y1="0.411" x2="0.936" y2="0.721" gradientUnits="objectBoundingBox">
      <stop offset="0" stop-color="#acc288" stop-opacity="0"/>
      <stop offset="1" stop-color="#b0c18e" stop-opacity="0.412"/>
    </linearGradient>
  </defs>
  <g id="Group_24389" data-name="Group 24389" transform="translate(-1142 -501)">
    <circle id="Ellipse_676" data-name="Ellipse 676" cx="42.5" cy="42.5" r="42.5" transform="translate(1227 501) rotate(90)" fill="url(#linear-gradient)"/>
    <g id="credit-card" transform="translate(1170.279 529.959)">
      <circle id="Ellipse_677" data-name="Ellipse 677" cx="2" cy="2" r="2" transform="translate(4.721 16.041)" fill="#8ebf2d"/>
      <path id="Path_42439" data-name="Path 42439" d="M23.309,3H6.134A6.141,6.141,0,0,0,0,9.134v9.814a6.141,6.141,0,0,0,6.134,6.134H23.309a6.141,6.141,0,0,0,6.134-6.134V9.134A6.141,6.141,0,0,0,23.309,3ZM6.134,5.454H23.309a3.68,3.68,0,0,1,3.68,3.68H2.454a3.68,3.68,0,0,1,3.68-3.68ZM23.309,22.628H6.134a3.68,3.68,0,0,1-3.68-3.68V11.587H26.989v7.361A3.68,3.68,0,0,1,23.309,22.628Z" transform="translate(0 0)" fill="#8ebf2d"/>
    </g>
  </g>
</svg>
