<svg xmlns="http://www.w3.org/2000/svg" xmlns:xlink="http://www.w3.org/1999/xlink" width="160" height="160" viewBox="0 0 160 160">
  <defs>
    <linearGradient id="linear-gradient" x1="0.298" y1="0.411" x2="0.936" y2="0.721" gradientUnits="objectBoundingBox">
      <stop offset="0" stop-color="#acc288" stop-opacity="0"/>
      <stop offset="1" stop-color="#b0c18e" stop-opacity="0.412"/>
    </linearGradient>
  </defs>
  <g id="Group_24385" data-name="Group 24385" transform="translate(-1058 -6582)">
    <circle id="Ellipse_12" data-name="Ellipse 12" cx="80" cy="80" r="80" transform="translate(1218 6582) rotate(90)" fill="url(#linear-gradient)"/>
    <g id="guarantee" transform="translate(1087 6588.645)">
      <g id="Group_22027" data-name="Group 22027" transform="translate(5.792 28.356)">
        <path id="Path_24135" data-name="Path 24135" d="M75.49,29.329l5.38,6.046,7.285-3.527a2.9,2.9,0,0,1,4.005,1.659l2.657,7.645,8.08-.47a2.9,2.9,0,0,1,3.065,3.065l-.47,8.08,7.645,2.657a2.9,2.9,0,0,1,1.659,4.005l-3.527,7.285,6.046,5.38a2.9,2.9,0,0,1,0,4.335l-6.046,5.38,3.527,7.285a2.9,2.9,0,0,1-1.659,4.005l-7.645,2.657.47,8.08a2.9,2.9,0,0,1-3.065,3.065l-8.08-.47-2.657,7.645a2.9,2.9,0,0,1-4.005,1.659l-7.285-3.527-5.38,6.046a2.9,2.9,0,0,1-4.335,0l-5.38-6.046L58.489,114.8a2.9,2.9,0,0,1-4.005-1.659l-2.657-7.645-8.08.47a2.9,2.9,0,0,1-3.065-3.065l.47-8.08L33.507,92.16a2.9,2.9,0,0,1-1.659-4.005l3.527-7.285-6.046-5.38a2.9,2.9,0,0,1,0-4.335l6.046-5.38-3.527-7.285a2.9,2.9,0,0,1,1.659-4.005l7.645-2.657-.47-8.08a2.9,2.9,0,0,1,3.065-3.065l8.08.47,2.657-7.645a2.9,2.9,0,0,1,4.005-1.659l7.285,3.527,5.38-6.046a2.9,2.9,0,0,1,4.335,0Z" transform="translate(-28.356 -28.356)" fill="#8ebf2d"/>
        <g id="Group_22026" data-name="Group 22026" transform="translate(12.32 3.201)">
          <path id="Path_24136" data-name="Path 24136" d="M165.311,83.623l-6.046-5.381,3.527-7.285a2.9,2.9,0,0,0-1.659-4.005L153.488,64.3l.47-8.08a2.9,2.9,0,0,0-3.065-3.065l-8.08.47-2.657-7.645a2.9,2.9,0,0,0-4.005-1.659l-2.618,1.268,3.493,10.048a6.127,6.127,0,0,0,6.144,4.105l4.461-.26-.26,4.461a6.128,6.128,0,0,0,4.105,6.144l4.221,1.467-1.947,4.022a6.127,6.127,0,0,0,1.442,7.247l3.338,2.971-3.338,2.971a6.127,6.127,0,0,0-1.442,7.247l1.947,4.022-4.221,1.467a6.128,6.128,0,0,0-4.105,6.144l.26,4.461-4.461-.26a6.13,6.13,0,0,0-6.144,4.106l-1.467,4.221-4.022-1.947a6.128,6.128,0,0,0-7.248,1.442L121.318,123l-2.971-3.338a6.127,6.127,0,0,0-7.248-1.442l-4.022,1.947-1.467-4.221a6.131,6.131,0,0,0-6.144-4.106l-10.62.618-.169,2.9a2.9,2.9,0,0,0,3.065,3.066l8.08-.47,2.657,7.645a2.9,2.9,0,0,0,4.005,1.659l7.285-3.526,5.38,6.046a2.9,2.9,0,0,0,4.335,0l5.38-6.046,7.285,3.526a2.9,2.9,0,0,0,4.005-1.659l2.657-7.645,8.08.47a2.9,2.9,0,0,0,3.065-3.066l-.47-8.08,7.645-2.657a2.9,2.9,0,0,0,1.659-4.005l-3.527-7.285,6.046-5.381A2.9,2.9,0,0,0,165.311,83.623Z" transform="translate(-88.672 -44.026)" fill="#5c8e00"/>
          <circle id="Ellipse_627" data-name="Ellipse 627" cx="29.154" cy="29.154" r="29.154" transform="translate(3.492 12.611)" fill="#c1f261"/>
        </g>
      </g>
      <g id="Group_22028" data-name="Group 22028" transform="translate(35.406 57.87)">
        <path id="Path_24137" data-name="Path 24137" d="M158.779,174.958a1.207,1.207,0,0,1-1.207,1.207h-3.219a1.207,1.207,0,1,1,0-2.415h.4v-3.288a1.208,1.208,0,0,1-1.256-1.992l1.61-1.61a1.207,1.207,0,0,1,2.061.854v6.037h.4A1.207,1.207,0,0,1,158.779,174.958Z" transform="translate(-153.145 -166.505)" fill="#21522b"/>
        <path id="Path_24138" data-name="Path 24138" d="M203.947,170.129v2.415a3.622,3.622,0,1,1-7.244,0v-2.415a3.622,3.622,0,0,1,7.244,0Zm-2.415,0a1.207,1.207,0,0,0-2.415,0v2.415a1.207,1.207,0,0,0,2.415,0Z" transform="translate(-189.69 -166.505)" fill="#21522b"/>
        <path id="Path_24139" data-name="Path 24139" d="M257.525,170.129v2.415a3.622,3.622,0,1,1-7.244,0v-2.415a3.622,3.622,0,0,1,7.244,0Zm-2.415,0a1.207,1.207,0,0,0-2.415,0v2.415a1.207,1.207,0,0,0,2.415,0Z" transform="translate(-234.643 -166.505)" fill="#21522b"/>
        <path id="Path_24140" data-name="Path 24140" d="M310.146,168.29l-4.024,7.243a1.207,1.207,0,1,1-2.111-1.172l4.024-7.244a1.207,1.207,0,1,1,2.111,1.173Zm-6.287-.587a1.207,1.207,0,1,1,1.207,1.207A1.207,1.207,0,0,1,303.859,167.7Zm4.024,7.244a1.207,1.207,0,1,1,1.207,1.207A1.207,1.207,0,0,1,307.883,174.947Z" transform="translate(-279.594 -166.496)" fill="#21522b"/>
      </g>
      <g id="Group_22030" data-name="Group 22030" transform="translate(0 73.322)">
        <path id="Path_24141" data-name="Path 24141" d="M98.451,266.883H3.064A3.064,3.064,0,0,1,0,263.819V251.564A3.064,3.064,0,0,1,3.064,248.5H98.451a3.064,3.064,0,0,1,3.064,3.064v12.255A3.064,3.064,0,0,1,98.451,266.883Z" transform="translate(0 -248.5)" fill="#5c8e00"/>
        <g id="Group_22029" data-name="Group 22029" transform="translate(1.912 3.065)">
          <path id="Path_24142" data-name="Path 24142" d="M21.613,269.631a6.127,6.127,0,1,1-6.127-6.127H16.61a1.532,1.532,0,1,1,0,3.063H15.486a3.061,3.061,0,1,0,2.655,4.6h-.713a1.532,1.532,0,1,1,0-3.063h2.654A1.531,1.531,0,0,1,21.613,269.631Z" transform="translate(-9.359 -263.504)" fill="#fff" stroke="#5c8e00" stroke-width="1"/>
          <path id="Path_24143" data-name="Path 24143" d="M85.748,265.036v5.545a5.208,5.208,0,0,1-10.416,0v-5.545a1.532,1.532,0,0,1,3.064,0v5.545a2.145,2.145,0,0,0,4.289,0v-5.545a1.532,1.532,0,0,1,3.063,0Z" transform="translate(-61.857 -263.504)" fill="#fff" stroke="#5c8e00" stroke-width="1"/>
          <path id="Path_24144" data-name="Path 24144" d="M138.925,275.661a1.53,1.53,0,0,1-1.972-.9l-.2-.538H133.13l-.2.538a1.532,1.532,0,0,1-2.869-1.076l3.446-9.19a1.532,1.532,0,0,1,2.868,0l3.446,9.19A1.532,1.532,0,0,1,138.925,275.661Zm-3.323-4.5-.662-1.765-.662,1.765Z" transform="translate(-105.328 -263.505)" fill="#fff" stroke="#5c8e00" stroke-width="1"/>
          <path id="Path_24145" data-name="Path 24145" d="M195.855,273.149a1.532,1.532,0,0,1-2.175,2.157l-2.589-2.61h-.817v1.532a1.532,1.532,0,0,1-3.064,0v-9.19a1.531,1.531,0,0,1,1.532-1.531h2.987a4.6,4.6,0,0,1,2.753,8.259Zm-2.619-5.049a1.521,1.521,0,0,0-1.506-1.532h-1.455v3.063h1.455a1.521,1.521,0,0,0,1.506-1.531Z" transform="translate(-150.884 -263.505)" fill="#fff" stroke="#5c8e00" stroke-width="1"/>
          <path id="Path_24146" data-name="Path 24146" d="M249.158,275.661a1.53,1.53,0,0,1-1.972-.9l-.2-.538h-3.621l-.2.538a1.532,1.532,0,0,1-2.869-1.076l3.446-9.19a1.532,1.532,0,0,1,2.868,0l3.446,9.19A1.532,1.532,0,0,1,249.158,275.661Zm-3.323-4.5-.662-1.765-.662,1.765Z" transform="translate(-193.046 -263.505)" fill="#fff" stroke="#5c8e00" stroke-width="1"/>
          <path id="Path_24147" data-name="Path 24147" d="M307.247,265.036v9.19a1.532,1.532,0,0,1-2.767.906l-3.973-5.417v4.511a1.532,1.532,0,0,1-3.064,0v-9.19a1.532,1.532,0,0,1,2.767-.906l3.973,5.417v-4.512a1.532,1.532,0,0,1,3.064,0Z" transform="translate(-238.601 -263.504)" fill="#fff" stroke="#5c8e00" stroke-width="1"/>
          <path id="Path_24148" data-name="Path 24148" d="M359.72,265.036a1.532,1.532,0,0,1-1.532,1.532h-1.94v7.659a1.532,1.532,0,0,1-3.063,0v-7.659h-1.94a1.532,1.532,0,1,1,0-3.063h6.944A1.532,1.532,0,0,1,359.72,265.036Z" transform="translate(-280.193 -263.504)" fill="#fff" stroke="#5c8e00" stroke-width="1"/>
          <path id="Path_24149" data-name="Path 24149" d="M410.873,274.226a1.531,1.531,0,0,1-1.532,1.532h-4.7a1.532,1.532,0,0,1-1.532-1.532v-9.19a1.531,1.531,0,0,1,1.532-1.532h4.7a1.532,1.532,0,0,1,0,3.063h-3.166V268.1h1.94a1.532,1.532,0,0,1,0,3.063h-1.94v1.532h3.166A1.531,1.531,0,0,1,410.873,274.226Z" transform="translate(-322.686 -263.504)" fill="#fff" stroke="#5c8e00" stroke-width="1"/>
          <path id="Path_24150" data-name="Path 24150" d="M457.407,274.226a1.531,1.531,0,0,1-1.532,1.532h-4.7a1.532,1.532,0,0,1-1.532-1.532v-9.19a1.531,1.531,0,0,1,1.532-1.532h4.7a1.532,1.532,0,0,1,0,3.063h-3.166V268.1h1.94a1.532,1.532,0,0,1,0,3.063h-1.94v1.532h3.166A1.531,1.531,0,0,1,457.407,274.226Z" transform="translate(-359.715 -263.504)" fill="#fff" stroke="#5c8e00" stroke-width="1"/>
        </g>
      </g>
    </g>
  </g>
</svg>
