<svg xmlns="http://www.w3.org/2000/svg" width="58.392" height="58.392" viewBox="0 0 58.392 58.392">
  <g id="_01_align_center" data-name="01 align center" transform="translate(0 0)">
    <path id="Path_42432" data-name="Path 42432" d="M29.2,58.392a29.2,29.2,0,1,1,29.2-29.2,29.2,29.2,0,0,1-29.2,29.2Zm0-53.526A24.33,24.33,0,1,0,53.526,29.2,24.33,24.33,0,0,0,29.2,4.866Z" transform="translate(0 0)" fill="#fff"/>
    <path id="Path_42433" data-name="Path 42433" d="M20.165,29.329H15.3V27.521a9.62,9.62,0,0,1,4.778-8.516,4.866,4.866,0,0,0,2.433-5.17,4.924,4.924,0,0,0-3.893-3.881,4.866,4.866,0,0,0-5.752,4.776H8a9.732,9.732,0,1,1,14.428,8.528,4.822,4.822,0,0,0-2.263,4.263Z" transform="translate(11.464 7.574)" fill="#fff"/>
    <rect id="Rectangle_6724" data-name="Rectangle 6724" width="5.422" height="4.744" transform="translate(26.485 41.803)" fill="#fff"/>
  </g>
</svg>
