<svg xmlns="http://www.w3.org/2000/svg" width="89.516" height="68.394" viewBox="0 0 89.516 68.394">
  <path id="quote-2" d="M11.146,68.062C6.117,62.53,3.1,56.5,3.1,46.438c0-17.6,12.572-33.191,30.174-41.238L37.8,11.738C21.2,20.79,17.684,32.356,16.678,39.9a14.913,14.913,0,0,1,9.555-1.509c9.052,1.006,16.093,8.046,16.093,17.6A19.843,19.843,0,0,1,37.3,68.565a16.68,16.68,0,0,1-12.572,5.029,19.78,19.78,0,0,1-13.578-5.532Zm50.29,0C56.407,62.53,53.39,56.5,53.39,46.438c0-17.6,12.572-33.191,30.174-41.238l4.526,6.538C71.494,20.79,67.974,32.356,66.968,39.9a14.913,14.913,0,0,1,9.555-1.509c9.052,1.006,16.093,8.046,16.093,17.6a19.843,19.843,0,0,1-5.029,12.572c-3.017,3.52-7.543,5.029-12.572,5.029A19.78,19.78,0,0,1,61.436,68.062Z" transform="translate(-3.1 -5.2)" fill="#f9e857"/>
</svg>
