<svg xmlns="http://www.w3.org/2000/svg" width="125.921" height="125.921" viewBox="0 0 125.921 125.921">
  <path id="check-4" d="M125.921,63.461a62.712,62.712,0,0,1-10.668,34.951,4.919,4.919,0,1,1-8.178-5.467,52.99,52.99,0,0,0,7.335-42.769,4.919,4.919,0,1,1,9.527-2.453A63.188,63.188,0,0,1,125.921,63.461ZM90.441,108.934A53.125,53.125,0,1,1,93.12,19.723a4.919,4.919,0,1,0,5.592-8.094,62.963,62.963,0,0,0-80.272,96.352,62.984,62.984,0,0,0,77.1,9.367,4.919,4.919,0,1,0-5.1-8.414ZM63.435,77.723a2.8,2.8,0,0,1-2.071-.784L35.6,52.513a4.919,4.919,0,1,0-6.769,7.138L54.59,84.073a12.561,12.561,0,0,0,8.716,3.489c.175,0,.35,0,.525-.011a12.572,12.572,0,0,0,8.932-4.21c.059-.064.114-.131.169-.2l51.9-64.559a4.919,4.919,0,0,0-7.667-6.164l-51.8,64.433A2.812,2.812,0,0,1,63.435,77.723Zm0,0" transform="translate(0 -0.5)" fill="#8ebf2d"/>
</svg>
