<svg xmlns="http://www.w3.org/2000/svg" width="29.888" height="29.884" viewBox="0 0 29.888 29.884">
  <path id="return-box" d="M18.955,30.525a.852.852,0,0,0,.83,0l8.542-4.932a.83.83,0,0,0,.415-.719V15.01a.853.853,0,0,0-.415-.719L19.785,9.36a.831.831,0,0,0-.83,0l-8.543,4.932A.854.854,0,0,0,10,15.01v9.864a.83.83,0,0,0,.415.719Zm8.127-6.13L20.2,28.368V20.421l4.091-2.362,0,0,2.786-1.609ZM19.37,11.037l6.882,3.973-2.367,1.367L17,12.4Zm-4.027,2.325,6.882,3.974L19.37,18.984,12.488,15.01Zm-3.685,3.086,6.882,3.974v7.947l-6.882-3.973Zm4.462,3.706L14.226,19.06A.83.83,0,1,0,13.4,20.5l1.894,1.094a.83.83,0,1,0,.83-1.438Zm16.13,7.834a.864.864,0,0,0-.821-.691l-3.16.01a.83.83,0,1,0,0,1.66h0l1.41,0A13.282,13.282,0,0,1,8.666,12.915a.83.83,0,1,0-1.408-.88A14.941,14.941,0,0,0,30.919,30.073l.229,1.353a.83.83,0,0,0,.818.691.817.817,0,0,0,.14-.012.83.83,0,0,0,.68-.957ZM19.939,5a14.818,14.818,0,0,0-9.192,3.165l0-1.319a.83.83,0,0,0-.828-.832h0a.83.83,0,0,0-.83.828L9.082,10a.851.851,0,0,0,.713.824l3.16.452a.891.891,0,0,0,.119.008.83.83,0,0,0,.116-1.652l-1.375-.2A13.285,13.285,0,0,1,32.13,25.223a.83.83,0,1,0,1.523.66A14.949,14.949,0,0,0,19.939,5Z" transform="translate(-4.994 -5)" fill="#8ebf2d"/>
</svg>
