<svg xmlns="http://www.w3.org/2000/svg" width="38.024" height="38.024" viewBox="0 0 38.024 38.024">
  <g id="sakura" transform="translate(0 0)">
    <path id="Path_42504" data-name="Path 42504" d="M180.309,177.649c.023-1.553-1.83-1.386-1.942-1.428.078-.116,1.672-1.044.732-2.3-2.628-3.5-7.76.7-7.76.7s2.413-6.181-1.732-7.6c-1.47-.5-1.884,1.311-1.959,1.405-.086-.11-.475-1.912-1.958-1.405-4.146,1.416-1.732,7.6-1.732,7.6s-5.132-4.2-7.76-.7c-.932,1.243.665,2.2.732,2.3-.131.048-1.965-.138-1.942,1.428.066,4.38,6.69,3.995,6.69,3.995s-5.586,3.582-3.064,7.165c.894,1.27,2.3.046,2.41.013.006.14-.738,1.827.758,2.289,4.186,1.291,5.867-5.128,5.867-5.128s1.682,6.419,5.867,5.128c1.484-.458.753-2.168.758-2.289.134.039,1.509,1.268,2.41-.013,2.522-3.583-3.064-7.165-3.064-7.165s6.625.385,6.69-3.995Z" transform="translate(-142.286 -153.258)" fill="#ffa4b8"/>
    <path id="Path_42505" data-name="Path 42505" d="M193.889,364.394a1.376,1.376,0,0,1-1.972-.285c-1.584-2.25.031-4.5,1.45-5.862,1.133-1.087,3.059.509,1.9,1.81C194.235,361.209,193.34,362.768,193.889,364.394Z" transform="translate(-175.59 -328.558)" fill="#ffbfcb"/>
    <path id="Path_42506" data-name="Path 42506" d="M158.655,237.791c-.932,1.243.665,2.2.732,2.3-.131.048-1.965-.139-1.942,1.428a3.282,3.282,0,0,0,1.046,2.446c-1.708-.433-3.47-1.426-3.5-3.675-.023-1.566,1.811-1.379,1.942-1.428-.066-.1-1.664-1.054-.732-2.3,2-2.671,5.46-.865,6.992.147C161.649,236.2,159.881,236.158,158.655,237.791Z" transform="translate(-142.286 -215.895)" fill="#ffbfcb"/>
    <path id="Path_42507" data-name="Path 42507" d="M260.28,168.325c-1.923,1.008-2.04,3.31-1.784,5.1a1.082,1.082,0,0,1-2.114.415c-.49-1.706-1.25-5.714,1.986-6.819C259.672,166.581,260.13,167.921,260.28,168.325Z" transform="translate(-234.964 -153.256)" fill="#ffbfcb"/>
    <g id="Group_24695" data-name="Group 24695" transform="translate(18.588 19.378)">
      <path id="Path_42508" data-name="Path 42508" d="M328.627,352.674a.655.655,0,0,1-.53-.269l-1.771-2.422a.656.656,0,1,1,1.058-.774l1.771,2.422A.656.656,0,0,1,328.627,352.674Z" transform="translate(-318.056 -339.723)" fill="#ff8ca5"/>
      <path id="Path_42509" data-name="Path 42509" d="M255.822,352.673a.656.656,0,0,1-.529-1.043l1.771-2.422a.656.656,0,1,1,1.058.774l-1.771,2.422A.655.655,0,0,1,255.822,352.673Z" transform="translate(-252.844 -339.722)" fill="#ff8ca5"/>
      <path id="Path_42510" data-name="Path 42510" d="M342.04,292.752a.656.656,0,0,1-.184-1.285l2.828-.935a.656.656,0,0,1,.411,1.245A20.4,20.4,0,0,1,342.04,292.752Z" transform="translate(-331.996 -286.071)" fill="#ff8ca5"/>
      <path id="Path_42511" data-name="Path 42511" d="M230.333,292.751a20.405,20.405,0,0,1-3.056-.975.656.656,0,1,1,.411-1.245l2.85.942a.656.656,0,0,1-.206,1.278Z" transform="translate(-226.827 -286.07)" fill="#ff8ca5"/>
      <path id="Path_42512" data-name="Path 42512" d="M302.155,240.772a.656.656,0,0,1-.656-.656v-3a.656.656,0,1,1,1.311,0v3A.656.656,0,0,1,302.155,240.772Z" transform="translate(-295.38 -236.461)" fill="#ff8ca5"/>
    </g>
    <path id="Path_42513" data-name="Path 42513" d="M274.244,283.441a3.439,3.439,0,1,1-3.269-2.37A3.44,3.44,0,0,1,274.244,283.441Z" transform="translate(-245.613 -258.037)" fill="#ffd9e0"/>
    <path id="Path_42514" data-name="Path 42514" d="M14.093,8.439s4.525-1.882,3.154-4.814c-.485-1.04-1.663-.33-1.75-.322.014-.1.774-1.232-.256-1.762-2.877-1.48-4.93,2.971-4.93,2.971S9.919-.374,6.708.023C5.569.164,5.879,1.5,5.861,1.589c-.093-.045-.933-1.117-1.755-.3-2.3,2.279,1.3,5.606,1.3,5.606S.64,5.757.026,8.934c-.218,1.127,1.151,1.245,1.228,1.29C1.182,10.3-.1,10.767.424,11.8c1.444,2.862,5.651.541,5.733.5-.045.075-2.528,4.2.279,5.749,1,.555,1.539-.71,1.605-.769.049.091.1,1.452,1.242,1.276,3.161-.488,2.265-5.19,2.244-5.3.064.073,3.212,3.7,5.552,1.511.838-.783-.2-1.684-.235-1.765.1-.018,1.412.355,1.6-.787.519-3.194-4.348-3.771-4.348-3.771Z" transform="translate(-0.002 0)" fill="#ffa4b8"/>
    <path id="Path_42515" data-name="Path 42515" d="M64.793,178.73a.936.936,0,0,1-1.243.247,2.542,2.542,0,0,1-1.335-2.436c.032-1.831,2.973-1.549,2.577.269A3.928,3.928,0,0,0,64.793,178.73Z" transform="translate(-57.116 -160.933)" fill="#ffbfcb"/>
    <path id="Path_42516" data-name="Path 42516" d="M9.243,1.244c-1.239.12-.9,1.465-.924,1.574-.093-.045-.933-1.117-1.755-.3-2.3,2.279,1.3,5.606,1.3,5.606S3.1,6.986,2.484,10.164c-.218,1.127,1.151,1.245,1.228,1.29-.071.075-1.351.542-.829,1.575.034.068.07.134.108.2A2.586,2.586,0,0,1,.424,11.8c-.521-1.033.758-1.5.829-1.575-.076-.045-1.446-.163-1.228-1.29C.64,5.757,5.407,6.894,5.407,6.894s-3.6-3.327-1.3-5.606c.821-.815,1.661.256,1.755.3C5.879,1.5,5.569.164,6.708.023A2.549,2.549,0,0,1,9.243,1.244Z" transform="translate(-0.002 0)" fill="#ffbfcb"/>
    <path id="Path_42517" data-name="Path 42517" d="M92.825,84.811a2.248,2.248,0,1,1-3-1.039A2.247,2.247,0,0,1,92.825,84.811Z" transform="translate(-81.299 -76.699)" fill="#ffd9e0"/>
    <path id="Path_42518" data-name="Path 42518" d="M394.1,97.74a5.608,5.608,0,0,1,1.363,5.452,5.61,5.61,0,0,1-5.381-1.619A1.534,1.534,0,0,1,391.37,98.9,1.533,1.533,0,0,1,394.1,97.74Z" transform="translate(-357.647 -89.206)" fill="#ffa4b8"/>
    <path id="Path_42519" data-name="Path 42519" d="M391.852,102.843a5.038,5.038,0,0,1-1.762-1.269,1.534,1.534,0,0,1,1.288-2.673,1.484,1.484,0,0,1,1.468-1.73A5.037,5.037,0,0,1,391.852,102.843Z" transform="translate(-357.655 -89.207)" fill="#ffbfcb"/>
    <path id="Path_42520" data-name="Path 42520" d="M276.549,15.183c1.54-.419,2.97,1.273,1.694,2.97a6.462,6.462,0,0,1-6.057,2.29,6.464,6.464,0,0,1,1.132-6.376C274.75,12.5,276.677,13.592,276.549,15.183Z" transform="translate(-249.533 -12.215)" fill="#ffa4b8"/>
    <path id="Path_42521" data-name="Path 42521" d="M273.02,20.515a7.386,7.386,0,0,1-.834-.072,6.464,6.464,0,0,1,1.132-6.376,2.092,2.092,0,0,1,1.608-.76C275.831,16.1,275.306,18.8,273.02,20.515Z" transform="translate(-249.533 -12.215)" fill="#ffbfcb"/>
    <path id="Path_42522" data-name="Path 42522" d="M8.211,286.6A7.155,7.155,0,0,1,4.9,292.963c-2.033,1.182-3.707-.611-3.046-2.249-1.765-.068-2.717-2.33-.806-3.7a7.157,7.157,0,0,1,7.16-.414Z" transform="translate(0 -262.416)" fill="#ffa4b8"/>
    <path id="Path_42523" data-name="Path 42523" d="M2.939,293.239a1.9,1.9,0,0,1-1.081-2.515c-1.765-.068-2.717-2.33-.806-3.7a6.762,6.762,0,0,1,3.824-1.173A5.556,5.556,0,0,1,2.939,293.239Z" transform="translate(-0.001 -262.426)" fill="#ffbfcb"/>
  </g>
</svg>
