<svg xmlns="http://www.w3.org/2000/svg" width="129.059" height="587.143" viewBox="0 0 129.059 587.143">
  <g id="Group_21986" data-name="Group 21986" transform="translate(5930.718 -11271.404)">
    <path id="Path_24089" data-name="Path 24089" d="M2031.717,53.55c-16.816-2.962-44.978-4.044-70.94,12.7-40.819,26.323-51.358,71.5-51.358,71.5s59.686-.774,82.105-25.746c11.748-13.087,26.717-23.3,40.193-31.69Z" transform="translate(-7834.83 11219.6)" fill="#72d3b3"/>
    <path id="Path_24090" data-name="Path 24090" d="M2032.423,71.2c-12.038,10.422-28.185,29.2-30.45,55.743-3.715,43.52,25.02,76.292,25.02,76.292s2.412-2.96,6.028-8.118Z" transform="matrix(1, 0.017, -0.017, 1, -7833.128, 11184.413)" fill="#72d3b3"/>
    <path id="Path_24097" data-name="Path 24097" d="M1949.614,563.974s-27.327,4.243-38.212,27.617-1.6,47.356-1.6,47.356,27.8-16.539,30.464-34.3,15.332-38.219,15.332-38.219Z" transform="translate(-7836.83 11219.6)" fill="#72d3b3"/>
    <path id="Path_24098" data-name="Path 24098" d="M1950.164,252.929s-15.22,18.828-8.5,40.389,26.879,31.651,26.879,31.651,8.278-27.08-.462-40.162S1955.494,251,1955.494,251Z" transform="translate(-7836.83 11219.6)" fill="#72d3b3"/>
  </g>
</svg>
