<svg xmlns="http://www.w3.org/2000/svg" width="103.436" height="106.139" viewBox="0 0 103.436 106.139">
  <path id="shopping-cart-check" d="M44.79,101.706a6.646,6.646,0,1,1-6.683-6.63h.053a6.63,6.63,0,0,1,6.63,6.63Zm35.8-6.63h-.053a6.657,6.657,0,1,0,.053,0Zm24.851-59.716-5.379,32.706a17.5,17.5,0,0,1-19.578,16.4H36.643A14.65,14.65,0,0,1,22.21,71.943L14.185,15.9a6.662,6.662,0,0,0-6.546-5.692H6.228a3.978,3.978,0,0,1,0-7.956H7.639A14.65,14.65,0,0,1,22.072,14.773l.488,3.389H91.1a14.587,14.587,0,0,1,14.353,17.2Zm-9.261-6.853A6.62,6.62,0,0,0,91.1,26.119H23.7l6.365,44.7a6.662,6.662,0,0,0,6.583,5.692H80.488c8.487,0,10.534-3.183,11.738-9.8L97.605,34a6.646,6.646,0,0,0-1.422-5.5ZM66.941,41.428l-11.33,11.33-4.243-4.243a3.978,3.978,0,1,0-5.628,5.623l7.071,7.07a3.978,3.978,0,0,0,5.628,0L72.569,47.071a3.979,3.979,0,0,0-5.628-5.628Z" transform="translate(-2.25 -2.25)" fill="#8ebf2d"/>
</svg>
