<svg xmlns="http://www.w3.org/2000/svg" xmlns:xlink="http://www.w3.org/1999/xlink" width="160" height="160" viewBox="0 0 160 160">
  <defs>
    <linearGradient id="linear-gradient" x1="0.298" y1="0.411" x2="0.936" y2="0.721" gradientUnits="objectBoundingBox">
      <stop offset="0" stop-color="#acc288" stop-opacity="0"/>
      <stop offset="1" stop-color="#b0c18e" stop-opacity="0.412"/>
    </linearGradient>
  </defs>
  <g id="Group_24752" data-name="Group 24752" transform="translate(-1058 -5058)">
    <circle id="Ellipse_12" data-name="Ellipse 12" cx="80" cy="80" r="80" transform="translate(1218 5058) rotate(90)" fill="url(#linear-gradient)"/>
    <g id="door" transform="translate(1097.943 5098)">
      <path id="Ellipse_13" data-name="Ellipse 13" d="M4.851,0A4.851,4.851,0,1,1,0,4.851,4.856,4.856,0,0,1,4.851,0Zm0,6.25a1.4,1.4,0,1,0-1.4-1.4A1.4,1.4,0,0,0,4.851,6.25Z" transform="translate(13.828 44.227) rotate(-45)" fill="#5c8e00"/>
      <path id="Path_30" data-name="Path 30" d="M272.951,383.3a1.725,1.725,0,0,1-.827-.211l-2.3-1.254-2.3,1.254a1.726,1.726,0,0,1-2.552-1.515v-9.378a1.726,1.726,0,1,1,3.452,0v6.471l.573-.312a1.726,1.726,0,0,1,1.653,0l.573.312v-6.471a1.726,1.726,0,0,1,3.452,0v9.378a1.726,1.726,0,0,1-1.726,1.726Z" transform="translate(-223.355 -312.344)" fill="#5c8e00"/>
      <path id="Path_31" data-name="Path 31" d="M386.213,383.346a1.726,1.726,0,0,1-1.726-1.726v-9.369a1.726,1.726,0,1,1,3.452,0v6.463l.573-.312a1.726,1.726,0,0,1,1.652,0l.573.313v-6.463a1.726,1.726,0,0,1,3.452,0v9.369a1.726,1.726,0,0,1-2.552,1.515l-2.3-1.253-2.3,1.253A1.725,1.725,0,0,1,386.213,383.346Z" transform="translate(-324.117 -312.392)" fill="#5c8e00"/>
      <path id="Path_32" data-name="Path 32" d="M326.457,263.736a1.726,1.726,0,0,1-1.726-1.726v-9.388a1.726,1.726,0,1,1,3.452,0V259.1l.572-.312a1.726,1.726,0,0,1,1.655,0l.572.312v-6.479a1.726,1.726,0,1,1,3.452,0v9.388a1.726,1.726,0,0,1-2.553,1.515l-2.3-1.255-2.3,1.255A1.725,1.725,0,0,1,326.457,263.736Z" transform="translate(-273.736 -211.532)" fill="#5c8e00"/>
      <path id="Path_33" data-name="Path 33" d="M27.677,80.321a1.726,1.726,0,0,1-1.726-1.726V1.726A1.726,1.726,0,0,1,27.677,0H80.8a1.726,1.726,0,0,1,1.726,1.726V41.1a1.726,1.726,0,0,1-3.452,0V3.452H29.4V78.595A1.726,1.726,0,0,1,27.677,80.321Z" transform="translate(-21.832)" fill="#5c8e00"/>
      <path id="Line_1" data-name="Line 1" d="M67.6-7.548H-9.274A1.726,1.726,0,0,1-11-9.274,1.726,1.726,0,0,1-9.274-11H67.6a1.726,1.726,0,0,1,1.726,1.726A1.726,1.726,0,0,1,67.6-7.548Z" transform="translate(11.056 87.877)"/>
      <path id="Path_34" data-name="Path 34" d="M226.864,392.708a1.726,1.726,0,0,1-1.726-1.726V372.214a1.726,1.726,0,0,1,1.726-1.726h37.5a1.726,1.726,0,0,1,1.726,1.726v18.742a1.726,1.726,0,0,1-3.452,0V373.94H228.59v17.042A1.726,1.726,0,0,1,226.864,392.708Z" transform="translate(-189.768 -312.361)"/>
      <path id="Path_35" data-name="Path 35" d="M286.62,273.189a1.726,1.726,0,0,1-1.726-1.726V252.7a1.726,1.726,0,0,1,1.726-1.726h18.75A1.726,1.726,0,0,1,307.1,252.7v18.756a1.726,1.726,0,1,1-3.452,0v-17.03h-15.3v17.035A1.726,1.726,0,0,1,286.62,273.189Z" transform="translate(-240.149 -211.601)"/>
      <path id="Line_2" data-name="Line 2" d="M-9.274,11.178A1.726,1.726,0,0,1-11,9.452V-9.274A1.726,1.726,0,0,1-9.274-11,1.726,1.726,0,0,1-7.548-9.274V9.452A1.726,1.726,0,0,1-9.274,11.178Z" transform="translate(65.12 69.146)"/>
      <path id="Path_36" data-name="Path 36" d="M67.514,113.934a1.726,1.726,0,0,1-1.726-1.726V41.564a1.726,1.726,0,0,1,1.726-1.726H108.14a1.726,1.726,0,0,1,1.726,1.726V74.687a1.726,1.726,0,1,1-3.452,0V43.29H69.24v68.919A1.726,1.726,0,0,1,67.514,113.934Z" transform="translate(-55.419 -33.588)"/>
    </g>
  </g>
</svg>
