<svg xmlns="http://www.w3.org/2000/svg" width="38.252" height="43.752" viewBox="0 0 38.252 43.752">
  <g id="tree" transform="translate(-32.185 0.001)">
    <path id="Path_42550" data-name="Path 42550" d="M69.555,19.111a6.907,6.907,0,0,1-6.035,6.821c-.125,2.761-6.938,5.428-7.559,5.312h0A5.55,5.55,0,0,1,52.5,29.553c-.009-.015-2.486.031-2.494.045-.156.265-1.7,1.833-5.584,1.833-3.663,0-5.694-2.178-6.178-4.609a1.344,1.344,0,0,0-1-1.044c-5.818-1.394-6.938-9.8-1.7-12.633a1.325,1.325,0,0,0,.69-1.325,7,7,0,0,1,7.7-7.727,1.3,1.3,0,0,0,1.316-.652,6.972,6.972,0,0,1,12.026,0,1.318,1.318,0,0,0,1.318.666q.221-.028.448-.042c4.088-.257,6.935,6.831,6.161,8.626a7.02,7.02,0,0,1,4.345,6.419Z" transform="translate(0 0)" fill="#80d261"/>
    <path id="Path_42551" data-name="Path 42551" d="M324.892,62.489a6.88,6.88,0,0,1-5.2,6.656,1.3,1.3,0,0,0-.933,1.024c-.473,2.443-2.5,4.64-6.183,4.64a11.777,11.777,0,0,1-2.155-.187c12.918-6.164,10.076-22.31,3.088-27.178a6.881,6.881,0,0,1,7.266,7.266q-.015.234-.045.463a1.326,1.326,0,0,0,.638,1.316A6.91,6.91,0,0,1,324.892,62.489Z" transform="translate(-254.456 -43.379)" fill="#68ca44"/>
    <path id="Path_42552" data-name="Path 42552" d="M161.184,150.164h-1.548a1.322,1.322,0,0,0-1.041.506l-1.945,2.482a.617.617,0,0,1-1.1-.319l-.784-7.841a1.323,1.323,0,0,1,.076-.59l.872-2.357a.617.617,0,0,0-.855-.766l-.656.328a1.322,1.322,0,0,1-1.325-.082l-1.67-1.113a.617.617,0,0,0-.9.769l1.45,3.189a1.322,1.322,0,0,1,.113.667l-.421,4.632a.617.617,0,0,1-.971.448l-3.094-2.189a2.733,2.733,0,0,0-1.578-.5h-1.2a.617.617,0,0,0-.342,1.13l2.411,1.608,3.279,4.243a3.966,3.966,0,0,1,.811,2.784l-.606,6.662a11.168,11.168,0,0,1-3.678,7.154.617.617,0,0,0,.429,1.06h12.179l.881-.881c-2.743-2.232-3.765-3.973-4.082-7.332l-.342-3.978a3.966,3.966,0,0,1,.767-2.7l2.773-3.735a1.322,1.322,0,0,1,1.061-.534s2.176-.413,2.323-1l-.351-1.242C161.871,150.906,161.535,150.164,161.184,150.164Z" transform="translate(-102.248 -128.316)" fill="#e19974"/>
    <path id="Path_42553" data-name="Path 42553" d="M266.807,240.891a1.322,1.322,0,0,1-.935.387h-.043l-.434,1.736a1.322,1.322,0,0,1-1.283,1h-1.041a1.322,1.322,0,0,0-1.061.534l-2.773,3.735a3.966,3.966,0,0,0-.767,2.7l.342,3.978c.316,3.36,2.221,5.982,4.963,8.214h1.011a.617.617,0,0,0,.423-1.066,11.235,11.235,0,0,1-3.753-7.148l-.342-3.978a3.966,3.966,0,0,1,.767-2.7l2.773-3.735a1.322,1.322,0,0,1,1.061-.534h1.041a1.322,1.322,0,0,0,1.282-1l.578-2.313a.617.617,0,0,0-1.035-.586Z" transform="translate(-206.936 -219.43)" fill="#dc8758"/>
  </g>
</svg>
