<svg xmlns="http://www.w3.org/2000/svg" xmlns:xlink="http://www.w3.org/1999/xlink" width="93.893" height="30.32" viewBox="0 0 93.893 30.32">
  <defs>
    <clipPath id="clip-path">
      <path id="path10273" d="M1853.38-492.509c-.053,4.224,3.764,6.581,6.64,7.982,2.955,1.438,3.948,2.36,3.936,3.645-.022,1.968-2.357,2.836-4.541,2.87a15.86,15.86,0,0,1-7.793-1.852l-1.372,6.426a22.851,22.851,0,0,0,8.435,1.556c7.968,0,13.182-3.933,13.21-10.032.029-7.739-10.705-8.168-10.632-11.627.024-1.049,1.025-2.168,3.22-2.453a14.282,14.282,0,0,1,7.479,1.311l1.333-6.217a20.33,20.33,0,0,0-7.1-1.3c-7.5,0-12.775,3.987-12.817,9.693m32.731-9.157a3.456,3.456,0,0,0-3.227,2.151L1871.5-472.339h7.962l1.584-4.379h9.729l.921,4.379h7.017l-6.125-29.328h-6.479m1.115,7.922,2.3,11.013h-6.293l4-11.013m-43.5-7.922-6.275,29.328h7.587l6.272-29.328h-7.585m-11.223,0-7.9,19.961-3.194-16.973a3.537,3.537,0,0,0-3.5-2.988H1805l-.18.852a31.539,31.539,0,0,1,7.484,2.495,3.207,3.207,0,0,1,1.8,2.577l6.051,23.4h8.018l12.293-29.328H1832.5" transform="translate(-1804.822 502.203)"/>
    </clipPath>
    <linearGradient id="linear-gradient" y1="0.373" x2="0.008" y2="0.373" gradientUnits="objectBoundingBox">
      <stop offset="0" stop-color="#222357"/>
      <stop offset="1" stop-color="#254aa5"/>
    </linearGradient>
  </defs>
  <g id="layer1" transform="translate(0 0)">
    <g id="g10267" transform="translate(0 0)">
      <g id="g10269" transform="translate(0 0)" clip-path="url(#clip-path)">
        <g id="g10275" transform="translate(-9.832 -30.449)">
          <path id="path10283" d="M0-146.635,92.513-180.7l21.046,57.149L21.047-89.486" transform="translate(0 180.705)" fill="url(#linear-gradient)"/>
        </g>
      </g>
    </g>
  </g>
</svg>
